<svg width="140" height="179" viewBox="0 0 140 179" fill="none" xmlns="http://www.w3.org/2000/svg">
<path d="M111.312 28.4751C113.116 22.7716 112.363 13.2025 108.377 8.48263C104.392 3.76279 97.4808 1.03615 91.2968 0.28546C90.2694 0.0817917 89.2034 0.190123 88.2398 0.596103C87.765 0.816432 87.3935 1.20713 87.2014 1.68829C87.0093 2.16945 87.011 2.70473 87.2062 3.18468C85.9523 2.4744 84.588 1.97294 83.1682 1.70056C82.4562 1.57286 81.7232 1.61852 81.0332 1.83357C80.3432 2.04862 79.717 2.42654 79.2091 2.93445C78.9729 3.19829 78.7919 3.50542 78.6763 3.83828C78.5608 4.17114 78.5131 4.52317 78.5359 4.87422C78.5587 5.22528 78.6515 5.56847 78.8091 5.88412C78.9667 6.19978 79.186 6.48171 79.4543 6.71378C78.574 6.4835 77.6445 6.51191 76.7804 6.79551C75.9163 7.07912 75.1552 7.60554 74.591 8.30992C74.0268 9.01429 73.6841 9.86586 73.6051 10.7597C73.526 11.6536 73.7141 12.5507 74.1462 13.3405C75.1262 14.9525 76.4142 16.362 77.939 17.4909C79.3142 18.5263 79.6383 19.6998 79.5769 21.4083" fill="#263238"/>
<path d="M108.938 18.5362L113.616 52.0583C113.805 53.4098 113.714 54.7851 113.347 56.1007C112.98 57.4164 112.346 58.6449 111.482 59.7116C110.619 60.7784 109.545 61.6612 108.324 62.3065C107.104 62.9517 105.763 63.346 104.384 63.4653C101.769 63.6883 99.1679 62.9124 97.1183 61.2981C95.0687 59.6839 93.7278 57.3549 93.3733 54.7936C93.023 52.2654 92.7251 50.16 92.6726 49.9011C92.6726 49.9011 83.9134 50.2808 82.0914 41.9111C81.2155 37.8729 80.1031 29.4082 79.1921 21.7374C78.7356 17.7705 79.8071 13.7792 82.1947 10.5532C84.5823 7.32716 88.1121 5.10142 92.0857 4.31626L92.9091 4.15232C101.843 2.88391 107.931 9.68326 108.938 18.5362Z" fill="#FFDBD3"/>
<path d="M92.6296 49.7882C96.5894 49.0944 100.249 47.2527 103.141 44.4989C103.141 44.4989 101.739 51.048 93.0939 51.9626L92.6296 49.7882Z" fill="#F0C3B9"/>
<path d="M82.8093 26.8609C82.8711 27.1731 83.0537 27.4493 83.3185 27.6313C83.5833 27.8132 83.9096 27.8866 84.2283 27.836C84.385 27.8179 84.5363 27.7692 84.6736 27.6927C84.8108 27.6162 84.9311 27.5134 85.0274 27.3904C85.1237 27.2674 85.1941 27.1266 85.2344 26.9764C85.2746 26.8262 85.284 26.6696 85.2619 26.5158C85.2021 26.202 85.0203 25.9237 84.7553 25.74C84.4902 25.5562 84.1629 25.4817 83.8429 25.5321C83.6859 25.5512 83.5343 25.6009 83.397 25.6783C83.2598 25.7558 83.1395 25.8593 83.0433 25.983C82.9471 26.1067 82.8768 26.2481 82.8367 26.3988C82.7965 26.5495 82.7872 26.7066 82.8093 26.8609Z" fill="#263238"/>
<path d="M81.855 25.4897C82.0389 25.6191 82.8273 24.7649 84.1324 24.5061C85.4375 24.2472 86.5324 24.7131 86.6375 24.5061C86.7426 24.299 86.4799 24.1696 86.0069 23.9538C85.3614 23.6792 84.6458 23.6069 83.9572 23.7467C83.2832 23.881 82.6699 24.2224 82.2054 24.7218C81.8462 25.1273 81.7674 25.4293 81.855 25.4897Z" fill="#263238"/>
<path d="M95.7124 24.7732C95.7722 25.0847 95.953 25.3609 96.2164 25.543C96.4798 25.7251 96.8049 25.7987 97.1226 25.7482C97.2792 25.7302 97.4306 25.6815 97.5679 25.605C97.7051 25.5284 97.8254 25.4257 97.9217 25.3026C98.018 25.1796 98.0884 25.0389 98.1287 24.8887C98.1689 24.7385 98.1783 24.5819 98.1562 24.4281C98.0984 24.115 97.9184 23.8367 97.6548 23.6528C97.3912 23.469 97.0649 23.3942 96.746 23.4444C96.5885 23.4624 96.4363 23.5113 96.2984 23.5884C96.1605 23.6655 96.0398 23.7691 95.9433 23.893C95.8469 24.017 95.7768 24.1588 95.7371 24.31C95.6974 24.4612 95.689 24.6187 95.7124 24.7732Z" fill="#263238"/>
<path d="M94.757 23.2029C94.9409 23.3237 95.7293 22.4695 97.0344 22.2193C98.3396 21.969 99.4345 22.4177 99.5396 22.2193C99.6447 22.0208 99.3907 21.8827 98.9089 21.667C98.2635 21.3924 97.5478 21.3201 96.8592 21.4599C96.1853 21.5942 95.5719 21.9356 95.1074 22.435C94.7482 22.8319 94.6694 23.1425 94.757 23.2029Z" fill="#263238"/>
<path d="M91.9528 33.6523C91.22 33.5598 90.4782 33.5598 89.7454 33.6523C89.4126 33.6523 89.0797 33.6523 88.9746 33.4625C88.8743 33.1303 88.8743 32.7765 88.9746 32.4443C89.1323 31.5814 89.2899 30.7186 89.4564 29.7435C90.1045 25.9124 90.4987 22.7803 90.3323 22.7544C90.1659 22.7285 89.5264 25.8262 88.8782 29.6573C88.7293 30.6064 88.5804 31.5038 88.4403 32.3666C88.3174 32.8038 88.3483 33.2691 88.5279 33.6868C88.6004 33.7937 88.6962 33.8832 88.8084 33.9489C88.9205 34.0146 89.0461 34.0548 89.1761 34.0665C89.3712 34.0856 89.5678 34.0856 89.7629 34.0665C90.5083 34.0248 91.2447 33.8855 91.9528 33.6523Z" fill="#263238"/>
<path d="M95.9827 33.8162C95.7637 33.8162 96.044 35.2485 95.028 36.4824C94.0119 37.7163 92.4791 37.8543 92.5053 38.0528C92.5316 38.2513 92.8995 38.2599 93.5389 38.1477C94.3728 37.9937 95.1258 37.5572 95.6674 36.9138C96.1827 36.2948 96.4339 35.5028 96.3681 34.7049C96.3068 34.1095 96.0791 33.7903 95.9827 33.8162Z" fill="#263238"/>
<path d="M93.3973 18.2156C93.5988 18.5435 94.8689 18.1207 96.4368 17.9999C98.0047 17.8791 99.3361 18.0431 99.4763 17.6893C99.5376 17.5253 99.2485 17.2406 98.6792 16.999C97.9313 16.7072 97.1236 16.5948 96.3229 16.6711C95.518 16.7266 94.7391 16.9754 94.0543 17.3959C93.5375 17.7324 93.3098 18.0603 93.3973 18.2156Z" fill="#263238"/>
<path d="M81.5838 21.6666C81.8728 21.9169 82.7137 21.4337 83.7911 21.2007C84.8684 20.9677 85.8319 21.0109 85.9808 20.6571C86.0421 20.4932 85.8407 20.2257 85.3852 20.0272C84.7843 19.813 84.1331 19.7756 83.511 19.9196C82.8889 20.0636 82.3227 20.3828 81.8816 20.8383C81.5137 21.218 81.4524 21.5717 81.5838 21.6666Z" fill="#263238"/>
<path d="M109.498 24.8765C109.629 24.7903 114.998 22.0291 115.979 27.793C116.96 33.5569 110.873 33.3326 110.838 33.1686C110.803 33.0047 109.498 24.8765 109.498 24.8765Z" fill="#FFDBD3"/>
<path d="M112.258 30.692C112.258 30.692 112.372 30.7438 112.556 30.7956C112.815 30.8592 113.089 30.8188 113.318 30.6834C113.656 30.3865 113.908 30.006 114.046 29.5812C114.185 29.1564 114.206 28.7028 114.106 28.2674C114.037 27.7693 113.857 27.2923 113.581 26.8696C113.497 26.7022 113.374 26.5569 113.221 26.4459C113.069 26.3348 112.892 26.2612 112.705 26.2311C112.583 26.2185 112.461 26.249 112.36 26.3169C112.259 26.3849 112.186 26.4859 112.153 26.6021C112.1 26.7746 112.153 26.8868 112.153 26.9041C112.153 26.9213 112.013 26.8264 112.022 26.5762C112.03 26.4291 112.088 26.2891 112.188 26.1793C112.331 26.0334 112.525 25.9469 112.731 25.9377C112.98 25.9465 113.222 26.0176 113.435 26.1445C113.648 26.2713 113.825 26.4496 113.949 26.6625C114.281 27.1198 114.494 27.65 114.571 28.207C114.687 28.7159 114.647 29.2473 114.457 29.7341C114.267 30.2209 113.934 30.6413 113.502 30.9423C113.353 31.0139 113.19 31.0511 113.025 31.0511C112.859 31.0511 112.696 31.0139 112.547 30.9423C112.293 30.8301 112.241 30.7093 112.258 30.692Z" fill="#F0C3B9"/>
<path d="M73.6113 11.4694C74.1982 19.0625 84.0698 20.633 87.4684 15.7837C89.0363 13.5402 90.2801 10.8481 92.7239 9.55383C93.5608 9.14875 94.4709 8.91117 95.4016 8.85489C96.3323 8.79861 97.265 8.92473 98.1459 9.22594H98.2072C100.835 10.0888 102.718 12.5738 103.542 15.171C104.689 18.7778 104.645 22.1343 106.169 25.37C106.346 25.8573 106.678 26.2752 107.115 26.5608C107.912 26.9491 108.867 26.3365 109.331 25.5944C110.001 24.3536 110.287 22.9468 110.155 21.5476C110.141 18.3561 109.48 15.1995 108.21 12.2632C106.933 9.31564 104.8 6.80591 102.079 5.0497C98.5968 2.94962 94.4211 2.26869 90.4378 3.1514C86.4758 4.05663 82.9047 6.17032 80.2333 9.19142C78.9295 10.5263 77.9842 12.1604 77.4829 13.9458" fill="#263238"/>
<path d="M79.0689 6.33473C78.7906 6.32317 78.5138 6.37948 78.263 6.49868C77.5596 6.78865 76.9527 7.26692 76.5112 7.87926C75.8439 8.7909 75.5076 9.89722 75.5564 11.0201C75.6686 12.3966 76.2924 13.6839 77.3083 14.6355C78.2994 15.5884 79.5396 16.2515 80.8908 16.551C81.9781 16.7819 83.0958 16.8402 84.2018 16.7236C84.9405 16.6446 85.6705 16.5002 86.3828 16.2922C86.651 16.2392 86.9085 16.143 87.1449 16.0074C87.1449 15.9211 86.0149 16.2749 84.1755 16.4043C83.1084 16.4804 82.0358 16.3931 80.9959 16.1455C79.7288 15.8431 78.5672 15.2114 77.6323 14.3162C76.6892 13.4427 76.0982 12.2629 75.9681 10.9942C75.9062 9.95724 76.1857 8.92831 76.7652 8.06046C77.1581 7.47028 77.6979 6.98906 78.3331 6.66263C78.8324 6.42965 79.0689 6.37788 79.0689 6.33473Z" fill="#455A64"/>
<path d="M82.5726 3.0459C82.5726 3.0459 82.3448 3.0459 82.0295 3.23573C81.8194 3.40319 81.6481 3.61305 81.5272 3.8512C81.4063 4.08934 81.3387 4.35024 81.3287 4.61631C81.3423 5.39962 81.6336 6.15358 82.1521 6.74758C82.7127 7.48601 83.3796 8.14003 84.1317 8.68902C85.489 9.69571 87.0777 10.3567 88.7566 10.6132C89.4433 10.7617 90.1546 10.7617 90.8413 10.6132C90.8413 10.5355 90.0442 10.5614 88.8179 10.3026C87.2303 9.96323 85.7362 9.28911 84.4383 8.3266C83.7225 7.79965 83.0779 7.18494 82.52 6.49734C82.0445 5.97817 81.7526 5.32123 81.6879 4.62492C81.6769 4.15781 81.8532 3.70525 82.1784 3.36515C82.3886 3.13218 82.5726 3.08041 82.5726 3.0459Z" fill="#455A64"/>
<path d="M43.0605 108.721C44.3216 110.108 45.8655 111.218 47.5914 111.978C49.3173 112.737 51.1864 113.13 53.0767 113.13C54.9671 113.13 56.8362 112.737 58.5621 111.978C60.2879 111.218 61.8318 110.108 63.0929 108.721L78.5792 91.6363L78.7631 115.978L73.2974 131.587L127.605 140.862L129.873 98.6428L133.78 66.2338C134.014 64.3018 133.592 62.3479 132.579 60.6774C131.566 59.007 130.02 57.7142 128.183 57.0011L113.231 51.2114L92.2085 55.0079L83.7471 58.1833C80.1917 59.5086 77.0235 61.6782 74.5237 64.4994L50.7774 91.248" fill="#FFDD03"/>
<path d="M78.263 114.925C78.1317 114.925 78.1055 106.486 78.193 96.0973C78.2805 85.7084 78.4467 77.2697 78.578 77.2697C78.7092 77.2697 78.7355 85.6998 78.648 96.0973C78.5605 106.495 78.3855 114.925 78.263 114.925Z" fill="#263238"/>
<path d="M80.2512 121.112L113.063 108.1C114.36 107.586 115.485 106.725 116.311 105.613C117.136 104.501 117.628 103.184 117.732 101.81L120.132 70.8247C120.132 70.8247 119.852 57.6489 128.208 57.019L132.964 58.8655C139.096 62.084 140.629 70.8938 139.788 77.6931C138.605 87.3572 138.106 101.042 136.774 109.429C135.688 116.289 131.694 122.329 124.879 124.098L84.4732 132.726L80.2512 121.112Z" fill="#FFDD03"/>
<path d="M119.667 75.5525C119.61 75.7847 119.575 76.0215 119.562 76.26C119.509 76.7605 119.439 77.4422 119.351 78.305L118.659 85.8119C118.379 89.0045 118.046 92.7752 117.687 96.9601C117.591 98.0127 117.503 99.0913 117.407 100.187C117.345 101.3 117.205 102.407 116.986 103.501C116.761 104.612 116.192 105.628 115.357 106.408C114.457 107.182 113.437 107.808 112.335 108.264C103.287 112.121 94.9483 115.304 88.8957 117.531L81.7131 120.119L79.7598 120.827C79.5261 120.896 79.3002 120.989 79.0853 121.103C79.3233 121.053 79.5574 120.986 79.7861 120.904L81.7656 120.275C83.5175 119.714 85.9613 118.877 89.0008 117.798C95.0884 115.632 103.445 112.5 112.511 108.626C113.66 108.158 114.723 107.504 115.655 106.693C116.55 105.854 117.162 104.763 117.407 103.57C117.626 102.456 117.766 101.329 117.827 100.196C117.915 99.0999 118.003 98.0214 118.09 96.9687C118.414 92.7838 118.712 89.0045 118.966 85.8119C119.22 82.6193 119.386 80.1084 119.518 78.2878C119.57 77.4249 119.614 76.7432 119.649 76.2428C119.67 76.0132 119.675 75.7827 119.667 75.5525Z" fill="#263238"/>
<path d="M138.466 92.3957C138.424 92.5301 138.4 92.6694 138.396 92.8099C138.396 93.1378 138.334 93.5261 138.29 94.0093C138.194 95.1137 138.063 96.5978 137.896 98.4012C137.73 100.205 137.493 102.465 137.161 104.907C136.84 107.55 136.346 110.17 135.68 112.751C135.372 114.08 134.833 115.347 134.086 116.495C133.357 117.553 132.537 118.546 131.633 119.464C130.099 121.019 128.326 122.327 126.378 123.338C124.57 124.251 122.628 124.88 120.623 125.202C120.763 125.221 120.904 125.221 121.044 125.202C121.452 125.173 121.859 125.121 122.261 125.046C123.741 124.772 125.175 124.293 126.518 123.623C128.523 122.632 130.349 121.323 131.923 119.748C132.853 118.826 133.694 117.821 134.436 116.746C135.219 115.563 135.785 114.255 136.109 112.88C136.777 110.278 137.262 107.635 137.563 104.968C137.87 102.517 138.071 100.299 138.212 98.4357C138.352 96.5719 138.422 95.0706 138.457 94.0265V92.8271C138.474 92.6839 138.476 92.5395 138.466 92.3957Z" fill="#263238"/>
<path d="M124.433 114.08C124.348 113.472 124.146 112.887 123.837 112.354C123.16 111.033 122.222 109.857 121.079 108.896C119.937 107.934 118.611 107.206 117.18 106.754C116.598 106.538 115.98 106.432 115.358 106.444C115.358 106.513 116.032 106.651 117.11 107.048C118.466 107.562 119.724 108.297 120.833 109.222C121.933 110.157 122.868 111.265 123.6 112.501C124.117 113.45 124.363 114.106 124.433 114.08Z" fill="#263238"/>
<g opacity="0.3">
<path opacity="0.3" d="M89.676 117.41C93.1797 115.46 96.6221 113.959 100.292 112.319C103.962 110.68 107.545 108.574 109.927 105.416C114.447 99.3762 113.939 90.7476 118.573 84.7939C118.269 88.786 117.977 92.7754 117.697 96.7618C117.416 100.42 117.986 104.036 115.594 106.521C113.58 108.609 109.656 110.214 106.879 111.12C101.291 112.94 95.2731 115.632 89.6848 117.444" fill="black"/>
</g>
<path d="M114.554 52.6784L112.951 46.7505L92.5598 51.4704C92.2891 51.5341 92.0344 51.6515 91.8112 51.8153C91.588 51.9792 91.4011 52.1862 91.2617 52.4235C91.1224 52.6609 91.0336 52.9237 91.0008 53.196C90.9679 53.4683 90.9917 53.7443 91.0707 54.0072L92.6299 59.2361L99.9876 68.5378L108.335 67.0709L114.554 62.3683V52.6784Z" fill="#FFDD03"/>
<path d="M92.207 55.3691C92.4365 55.4598 92.6788 55.515 92.9253 55.533C93.587 55.6322 94.2537 55.6956 94.9224 55.7229C99.3792 55.9094 103.8 54.8633 107.685 52.7029C108.27 52.3842 108.835 52.0298 109.375 51.6415C109.76 51.3654 109.962 51.2015 109.944 51.1756C109.927 51.1497 109.025 51.6761 107.527 52.4268C103.628 54.3899 99.3101 55.4103 94.9311 55.4036C93.2231 55.4036 92.207 55.2915 92.207 55.3691Z" fill="#263238"/>
<path d="M107.36 52.695C107.36 52.695 107.64 52.531 107.85 52.0823C108.103 51.4904 108.158 50.8348 108.008 50.2099C107.865 49.5823 107.521 49.0165 107.027 48.5964C106.633 48.2858 106.326 48.2167 106.309 48.2599C106.291 48.303 106.51 48.4928 106.799 48.8207C107.168 49.2527 107.429 49.764 107.561 50.3135C107.695 50.8608 107.695 51.4315 107.561 51.9788C107.439 52.4016 107.299 52.6346 107.36 52.695Z" fill="#F5F5F5"/>
<path d="M98.5937 55.6292C98.0721 53.7258 98.2972 51.6987 99.2244 49.9515C99.2244 49.9515 98.9178 50.1414 98.6112 50.6246C98.2275 51.2533 97.9883 51.9572 97.9105 52.6868C97.828 53.4165 97.9057 54.1551 98.1382 54.8526C98.3397 55.3789 98.5411 55.655 98.5937 55.6292Z" fill="#F5F5F5"/>
<path d="M97.8845 114.019C97.9078 113.818 97.9078 113.615 97.8845 113.415C97.8845 113.018 97.7619 112.44 97.7356 111.689C97.5899 109.572 97.5899 107.447 97.7356 105.33C97.9659 102.193 98.3695 99.0701 98.9444 95.9763C99.5575 92.473 100.363 88.6333 101.012 84.5692C102.107 77.6196 102.596 70.5904 102.474 63.5586C102.422 60.8665 102.299 58.6834 102.177 57.1821C102.124 56.4314 102.054 55.8533 102.01 55.4563C102.001 55.2527 101.972 55.0504 101.923 54.8524C101.9 55.0559 101.9 55.2614 101.923 55.465C101.923 55.905 101.923 56.4745 102.001 57.1907C102.063 58.7007 102.142 60.8751 102.15 63.5672C102.179 70.5754 101.646 77.5748 100.556 84.5002C99.9079 88.547 99.1196 92.3867 98.5327 95.9072C97.9772 99.0186 97.6029 102.159 97.4115 105.312C97.2864 107.444 97.3303 109.582 97.5429 111.706C97.5954 112.457 97.7181 113.035 97.7706 113.432C97.7892 113.631 97.8273 113.827 97.8845 114.019Z" fill="#F5F5F5"/>
<path d="M87.8286 56.5344C87.8 56.5827 87.7793 56.6351 87.7672 56.6898C87.7322 56.7933 87.6884 56.9486 87.6359 57.1557C87.5057 57.7608 87.4266 58.3756 87.3994 58.9936C87.2942 60.6071 87.522 62.9196 87.6534 65.7757C87.7848 68.6317 87.9424 72.04 87.8286 75.8194C87.7558 79.9258 87.239 84.013 86.2869 88.0116C85.2708 92.2482 84.0883 96.2778 83.6591 100.092C83.2533 103.435 83.139 106.807 83.3175 110.17C83.4664 113.035 83.7292 115.347 83.9394 116.926C84.0445 117.72 84.1409 118.341 84.2109 118.755C84.2396 118.967 84.2805 119.178 84.3336 119.385C84.3588 119.17 84.3588 118.953 84.3336 118.738C84.3336 118.281 84.2285 117.668 84.1496 116.909C83.992 115.312 83.7817 113.009 83.6766 110.153C83.5476 106.81 83.6941 103.463 84.1146 100.143C84.5613 96.3986 85.7526 92.3776 86.7424 88.141C87.7049 84.1267 88.2218 80.0213 88.2841 75.897C88.3717 72.1004 88.1965 68.6835 88.0038 65.8274C87.811 62.9714 87.5658 60.6503 87.6096 59.0712C87.6183 58.4586 87.671 57.8473 87.7672 57.242C87.8013 57.0075 87.8218 56.7712 87.8286 56.5344Z" fill="#F5F5F5"/>
<path d="M69.1623 91.0583C69.7494 90.7153 70.2858 90.2942 70.7565 89.8072C71.9687 88.7198 73.1042 87.5523 74.155 86.3126C75.2155 85.0798 76.1928 83.7798 77.0806 82.4211C77.4856 81.8924 77.8156 81.3118 78.0616 80.6954C77.9478 80.6264 76.3098 83.1891 73.8134 86.0538C71.317 88.9185 69.0747 90.9634 69.1623 91.0583Z" fill="#F5F5F5"/>
<path d="M57.9408 88.4355C58.296 88.152 58.6244 87.8372 58.9218 87.495C59.5175 86.8738 60.3583 85.9592 61.3744 84.8116C63.4241 82.5163 66.1657 79.2806 69.0563 75.5962C71.9468 71.9118 74.4257 68.4603 76.16 65.9322C77.0359 64.6638 77.7104 63.6369 78.1659 62.9121C78.4268 62.5497 78.6554 62.1657 78.8491 61.7645C78.5241 62.0843 78.2308 62.434 77.9732 62.8086L75.8447 65.751C74.0929 68.2274 71.5351 71.6357 68.6533 75.3201C65.7715 79.0045 63.065 82.2229 61.0854 84.6044L58.7466 87.3829C58.4467 87.7094 58.177 88.0617 57.9408 88.4355Z" fill="#F5F5F5"/>
<path d="M113.451 108.281C113.58 108.133 113.694 107.974 113.793 107.806C114.079 107.317 114.325 106.807 114.528 106.279C115.209 104.316 115.472 102.237 115.299 100.17C115.176 97.581 114.423 94.5179 113.976 91.1268C113.595 87.4307 113.554 83.7081 113.854 80.0046C114.117 76.0527 114.511 72.2906 114.66 68.8478C114.828 65.7969 114.737 62.7375 114.388 59.7015C114.149 57.6496 113.703 55.6262 113.057 53.6615C112.885 53.1273 112.683 52.6031 112.452 52.0911C112.387 51.9043 112.302 51.725 112.198 51.5561C112.198 51.5561 112.479 52.3154 112.882 53.7132C113.465 55.6862 113.86 57.7082 114.064 59.7533C114.364 62.7756 114.422 65.8164 114.239 68.8478C114.073 72.2993 113.661 76.0268 113.363 79.996C113.059 83.7318 113.114 87.4877 113.53 91.2131C113.985 94.6646 114.782 97.6414 114.94 100.221C115.141 102.255 114.932 104.307 114.327 106.261C114.077 106.952 113.785 107.626 113.451 108.281Z" fill="#F5F5F5"/>
<path d="M123.076 111.232C123.86 110.947 124.589 110.533 125.231 110.006C126.972 108.542 128.267 106.63 128.971 104.484C129.473 103.015 129.768 101.485 129.847 99.9368C129.918 98.1664 129.827 96.3932 129.575 94.6388C129.076 90.9372 128.069 86.968 127.745 82.7055C127.396 78.7017 127.431 74.6745 127.85 70.6772C128.034 68.8307 128.226 67.0618 128.226 65.3965C128.261 63.8451 128.057 62.2975 127.622 60.8061C126.996 58.6192 125.578 56.7342 123.637 55.5081C123.089 55.1961 122.499 54.9636 121.885 54.8179C121.674 54.7755 121.46 54.7467 121.245 54.7316C122.041 54.9266 122.803 55.2378 123.505 55.6548C125.357 56.9053 126.696 58.7654 127.28 60.901C127.684 62.3652 127.864 63.8802 127.815 65.3965C127.815 67.036 127.596 68.7875 127.394 70.6341C126.956 74.6471 126.909 78.6923 127.254 82.7141C127.587 87.0284 128.603 91.0062 129.12 94.6647C129.387 96.3916 129.489 98.1393 129.426 99.885C129.373 101.401 129.104 102.903 128.629 104.346C127.968 106.456 126.743 108.351 125.082 109.834C124.451 110.35 123.781 110.818 123.076 111.232Z" fill="#F5F5F5"/>
<path d="M85.4969 124.252C85.9956 124.095 86.4816 123.902 86.951 123.674L90.8488 122C94.1423 120.611 98.7321 118.756 103.883 116.935C109.033 115.114 113.772 113.673 117.223 112.69L121.305 111.542C121.814 111.431 122.312 111.275 122.794 111.076C122.277 111.14 121.765 111.238 121.261 111.37C120.28 111.585 118.87 111.93 117.135 112.388C113.632 113.294 108.893 114.692 103.725 116.512C98.5569 118.333 93.9846 120.24 90.7174 121.689C89.0795 122.423 87.7656 123.044 86.8722 123.493C86.3915 123.705 85.9312 123.959 85.4969 124.252Z" fill="#F5F5F5"/>
<path d="M127.85 122.528C127.85 122.528 127.912 122.528 127.999 122.459C128.143 122.389 128.28 122.308 128.411 122.217C128.917 121.877 129.392 121.493 129.83 121.069C131.446 119.509 132.735 117.65 133.623 115.599C133.9 114.904 134.065 114.17 134.113 113.425C134.201 112.665 134.288 111.88 134.385 111.06C134.56 109.429 134.761 107.686 134.963 105.883C135.385 101.886 136.025 97.9137 136.881 93.9843C137.695 90.0408 138.134 86.0314 138.195 82.0078C138.291 78.3061 138.134 74.9755 137.958 72.1884C137.783 69.4014 137.582 67.1407 137.433 65.5876C137.354 64.8455 137.293 64.2501 137.24 63.8014C137.233 63.5914 137.2 63.3829 137.144 63.1802C137.13 63.3899 137.13 63.6003 137.144 63.8101C137.144 64.2588 137.205 64.8541 137.24 65.6048C137.337 67.158 137.494 69.4186 137.626 72.2057C137.757 74.9927 137.88 78.3147 137.766 81.9992C137.679 85.9939 137.23 89.9731 136.426 93.8894C135.581 97.8157 134.958 101.785 134.56 105.78C134.376 107.617 134.192 109.36 134.026 111C133.938 111.811 133.859 112.605 133.78 113.364C133.745 114.082 133.594 114.79 133.334 115.461C132.487 117.489 131.26 119.342 129.716 120.923C129.299 121.354 128.851 121.755 128.376 122.122C128.19 122.243 128.014 122.379 127.85 122.528Z" fill="#F5F5F5"/>
<path d="M32.644 162.952C32.644 162.952 5.1926 170.442 4.08894 170.821C2.44221 171.391 2.71374 177.362 5.28895 177.267C6.50648 177.224 26.3724 178 28.8863 177.845C31.4002 177.69 38.9681 174.747 38.9681 174.747L32.644 162.952Z" fill="#FFDD03"/>
<path d="M21.2583 173.272C20.7131 171.23 19.6245 169.368 18.105 167.879C19.078 168.412 19.8855 169.195 20.441 170.145C20.9965 171.095 21.2791 172.176 21.2583 173.272Z" fill="#263238"/>
<path d="M24.0963 171.995C23.9649 171.995 23.6846 170.744 22.9576 169.329C22.2306 167.914 21.3634 166.93 21.4598 166.836C22.2616 167.451 22.9137 168.236 23.3684 169.131C23.823 170.027 24.0687 171.011 24.0876 172.013L24.0963 171.995Z" fill="#263238"/>
<path d="M26.7852 171.287C26.6469 170.32 26.4331 169.365 26.1457 168.431C25.7162 167.55 25.2153 166.705 24.6479 165.903C25.5155 166.482 26.1843 167.306 26.5659 168.268C26.9475 169.229 27.024 170.282 26.7852 171.287Z" fill="#263238"/>
<path d="M26.2938 167.792C26.0552 167.15 25.9568 166.465 26.0047 165.782C26.007 165.038 26.0982 164.296 26.2763 163.573C26.3842 163.147 26.5217 162.729 26.688 162.322C26.7717 162.066 26.9228 161.837 27.1259 161.657C27.2592 161.549 27.4264 161.49 27.5989 161.49C27.7715 161.49 27.9387 161.549 28.0719 161.657C28.2855 161.861 28.4164 162.134 28.4398 162.425C28.4525 162.664 28.4525 162.903 28.4398 163.142C28.4324 163.587 28.3736 164.03 28.2646 164.462C28.0726 165.189 27.7778 165.886 27.3887 166.533C27.0896 167.148 26.6698 167.7 26.1536 168.155C26.0923 168.112 26.5478 167.482 27.0997 166.386C27.4209 165.747 27.6621 165.072 27.8179 164.375C27.9072 163.967 27.9513 163.551 27.9493 163.133C27.9493 162.719 27.9493 162.201 27.6953 162.003C27.6466 161.958 27.5824 161.933 27.5157 161.933C27.449 161.933 27.3848 161.958 27.3361 162.003C27.1988 162.131 27.0964 162.291 27.0383 162.468C26.8697 162.858 26.7292 163.259 26.6179 163.668C26.4266 164.356 26.3062 165.061 26.2587 165.773C26.25 167.016 26.3726 167.784 26.2938 167.792Z" fill="#263238"/>
<path d="M26.3291 167.516C26.885 167.297 27.4834 167.203 28.0809 167.24C28.7394 167.237 29.3955 167.315 30.0342 167.473C30.4253 167.556 30.8027 167.693 31.1554 167.879C31.3817 167.991 31.5642 168.173 31.675 168.398C31.7858 168.622 31.8187 168.877 31.7685 169.121C31.7051 169.354 31.58 169.566 31.4061 169.736C31.2323 169.906 31.0157 170.027 30.7787 170.088C30.3732 170.187 29.9492 170.187 29.5437 170.088C28.9058 169.922 28.3094 169.628 27.7919 169.225C27.2911 168.895 26.8598 168.473 26.5218 167.982C27.0303 168.276 27.5189 168.601 27.9846 168.957C28.4912 169.304 29.0629 169.547 29.6663 169.673C29.9999 169.755 30.3488 169.755 30.6824 169.673C30.8441 169.639 30.9924 169.559 31.1103 169.445C31.2281 169.33 31.3105 169.185 31.3481 169.026C31.3762 168.866 31.346 168.701 31.2626 168.56C31.1793 168.42 31.0482 168.313 30.8926 168.258C30.5789 168.088 30.2429 167.96 29.8941 167.879C29.292 167.705 28.6721 167.597 28.0459 167.559C27.0123 167.482 26.3379 167.594 26.3291 167.516Z" fill="#263238"/>
<path d="M17.019 173.565C16.9136 172.737 16.7318 171.92 16.4759 171.124C16.0931 170.382 15.6447 169.674 15.1357 169.01C15.9366 169.437 16.5621 170.125 16.9055 170.955C17.249 171.786 17.2891 172.709 17.019 173.565Z" fill="#263238"/>
<path d="M36.1488 174.808C35.8156 175.011 35.46 175.176 35.0889 175.3C34.0921 175.679 33.0709 175.994 32.032 176.24C28.5809 176.981 25.0517 177.309 21.5209 177.215C17.4128 177.172 13.7077 176.982 11.0098 176.879L7.82149 176.715C7.43037 176.708 7.0406 176.667 6.65649 176.594C7.04443 176.533 7.43794 176.513 7.83025 176.534H11.0186L21.5297 176.732C25.0197 176.812 28.5083 176.523 31.9356 175.869C34.6072 175.395 36.1488 174.73 36.1488 174.808Z" fill="#263238"/>
<path d="M36.9827 175.43C36.9827 175.49 36.1943 175.059 34.933 174.506C33.318 173.745 31.5181 173.446 29.7388 173.644C27.9898 174.015 26.4119 174.939 25.2453 176.275C24.7601 176.845 24.23 177.376 23.6599 177.863C24.0281 177.207 24.4816 176.6 25.0088 176.06C25.5486 175.432 26.1599 174.867 26.8307 174.377C27.665 173.767 28.6349 173.362 29.66 173.195C31.5241 172.971 33.4129 173.324 35.0644 174.204C35.7681 174.506 36.4163 174.92 36.9827 175.43Z" fill="#263238"/>
<path d="M61.8147 155.488C61.8147 155.488 87.7857 172.245 88.7054 172.935C90.0981 173.979 88.4952 178.932 86.0777 178.112C84.939 177.707 63.1373 171.736 60.7899 170.838C58.4424 169.941 52.1445 164.867 52.1445 164.867L61.8147 155.488Z" fill="#FFDD03"/>
<path d="M69.5216 168.741C69.8401 167.691 70.4429 166.745 71.2654 166.007C72.0879 165.268 73.099 164.764 74.1903 164.548C73.2767 165.088 72.399 165.684 71.5625 166.334C70.8347 167.096 70.1532 167.9 69.5216 168.741Z" fill="#263238"/>
<path d="M67.1919 166.671C67.4545 165.695 68.0064 164.817 68.7773 164.151C69.4407 163.383 70.3175 162.822 71.3 162.538C71.3613 162.659 70.2226 163.332 69.1014 164.471C67.9802 165.61 67.3145 166.731 67.1919 166.671Z" fill="#263238"/>
<path d="M64.8536 165.187C64.9343 164.158 65.3312 163.177 65.9915 162.375C66.6518 161.574 67.5443 160.989 68.55 160.7C67.7628 161.294 67.0248 161.949 66.3427 162.659C65.7766 163.459 65.2785 164.305 64.8536 165.187Z" fill="#263238"/>
<path d="M66.3932 162.002C66.3232 162.002 66.6823 161.278 66.9801 160.096C67.1528 159.4 67.2555 158.689 67.2867 157.973C67.3126 157.553 67.3126 157.133 67.2867 156.713C67.2829 156.523 67.2318 156.336 67.1378 156.169C67.1018 156.113 67.0446 156.074 66.9789 156.059C66.9132 156.045 66.8443 156.056 66.7874 156.092C66.4896 156.204 66.3319 156.704 66.1918 157.093C66.067 157.489 65.9819 157.897 65.9378 158.309C65.8745 159.02 65.898 159.736 66.0078 160.441C66.1918 161.657 66.437 162.391 66.3582 162.417C66.0146 161.825 65.7858 161.175 65.6837 160.501C65.5238 159.77 65.4678 159.021 65.5173 158.275C65.5546 157.831 65.6367 157.391 65.7626 156.963C65.8327 156.739 65.9203 156.523 66.0166 156.29C66.1332 156.025 66.3409 155.808 66.6035 155.678C66.7544 155.611 66.9239 155.598 67.0835 155.641C67.2431 155.683 67.3829 155.778 67.4794 155.911C67.6198 156.143 67.6953 156.408 67.6984 156.679C67.7801 157.858 67.6406 159.043 67.2867 160.173C67.1276 160.84 66.8227 161.464 66.3932 162.002Z" fill="#263238"/>
<path d="M66.447 161.735C66.447 161.795 65.8076 161.493 64.7565 161.243C64.1471 161.101 63.5253 161.017 62.8996 160.993C62.5419 160.967 62.1823 160.991 61.831 161.062C61.6751 161.079 61.5295 161.147 61.4169 161.255C61.3044 161.363 61.2313 161.504 61.2091 161.657C61.203 161.818 61.2403 161.978 61.3172 162.121C61.3941 162.263 61.5079 162.383 61.647 162.468C61.9386 162.647 62.2685 162.756 62.6105 162.787C63.2269 162.843 63.8484 162.781 64.4412 162.606C64.9919 162.402 65.5569 162.238 66.1317 162.114C65.6538 162.474 65.1137 162.746 64.5375 162.917C63.9072 163.143 63.2365 163.24 62.5667 163.202C62.1519 163.174 61.7496 163.05 61.393 162.839C61.1863 162.711 61.0181 162.53 60.9057 162.316C60.7933 162.102 60.7408 161.863 60.7536 161.623C60.7832 161.375 60.8944 161.144 61.07 160.965C61.2456 160.786 61.476 160.668 61.7259 160.63C62.1186 160.558 62.5195 160.541 62.9171 160.578C63.5718 160.618 64.219 160.737 64.8441 160.932C65.4352 161.071 65.9844 161.346 66.447 161.735Z" fill="#263238"/>
<path d="M82.783 177.146C82.783 177.146 82.3451 176.887 82.1436 176.154C81.9352 175.2 82.1111 174.204 82.6341 173.375C82.89 172.927 83.183 172.499 83.51 172.098C83.7565 171.749 84.0513 171.435 84.3859 171.166C84.6191 170.973 84.9059 170.852 85.2093 170.821C85.4282 170.821 85.5421 170.821 85.5333 170.89C85.1845 170.989 84.8637 171.166 84.5961 171.408C84.3145 171.693 84.0622 172.005 83.8429 172.34C83.5504 172.741 83.2813 173.159 83.037 173.591C82.5697 174.336 82.3663 175.213 82.4589 176.085C82.5488 176.444 82.657 176.798 82.783 177.146Z" fill="#263238"/>
<path d="M73.4527 170.278C73.4105 169.832 73.4669 169.381 73.6181 168.958C73.7693 168.535 74.0117 168.149 74.3286 167.828C74.5929 167.46 74.9332 167.151 75.3272 166.922C75.7213 166.693 76.1601 166.549 76.6148 166.499C76.6673 166.628 75.5724 167.051 74.6877 168.121C74.2113 168.802 73.7979 169.524 73.4527 170.278Z" fill="#263238"/>
<path d="M54.8234 165.739C55.2216 165.967 55.6022 166.224 55.962 166.507C56.9896 167.215 58.0603 167.86 59.1679 168.44C60.8086 169.296 62.5059 170.042 64.2483 170.674C66.2191 171.399 68.4264 172.081 70.7564 172.745C75.4338 174.066 79.6645 175.282 82.7127 176.197L86.3215 177.284C86.7682 177.402 87.2046 177.555 87.6266 177.741C87.1685 177.691 86.7166 177.595 86.2777 177.457L82.6251 176.499C79.5506 175.636 75.3024 174.514 70.625 173.185C68.295 172.521 66.0789 171.822 64.0994 171.071C62.346 170.419 60.6448 169.637 59.0103 168.733C57.9097 168.119 56.8558 167.427 55.8569 166.662C55.4798 166.392 55.1333 166.082 54.8234 165.739Z" fill="#263238"/>
<path d="M53.8586 166.084C54.5546 165.774 55.2973 165.579 56.0572 165.506C57.9013 165.164 59.8075 165.393 61.5142 166.162C62.4442 166.625 63.2467 167.303 63.8529 168.137C64.3384 168.804 64.7468 169.522 65.0704 170.277C65.4065 170.953 65.6482 171.669 65.7887 172.409C65.4069 171.766 65.0675 171.101 64.7726 170.415C64.0767 168.795 62.8616 167.443 61.3127 166.567C59.6668 165.837 57.845 165.58 56.0572 165.825C54.7171 165.963 53.8674 166.153 53.8586 166.084Z" fill="#263238"/>
<path d="M7.83083 114.632C7.83083 114.632 0.0351181 117.368 7.62939e-05 125.979C-0.0612335 142.468 33.8194 160.64 33.8194 160.64L78.9119 131.208L81.7324 130.086C81.7324 130.086 20.8733 107.566 7.83083 114.632Z" fill="#263238"/>
<path d="M56.0679 146.075C55.6553 145.845 55.2627 145.583 54.8941 145.29C54.1584 144.763 53.1423 143.978 51.8109 142.994C49.2269 141.036 45.6794 138.249 41.9393 135.047C38.1991 131.846 34.8355 128.852 32.4705 126.635C31.288 125.53 30.3421 124.624 29.7027 123.986C29.3534 123.67 29.0311 123.326 28.7391 122.959C29.1294 123.21 29.4933 123.499 29.8253 123.822L32.6457 126.402C35.0633 128.559 38.4268 131.518 42.1933 134.711C45.9597 137.903 49.4459 140.751 51.9686 142.744L54.9642 145.152C55.3588 145.427 55.7281 145.736 56.0679 146.075Z" fill="#455A64"/>
<path d="M20.5568 120.802C23.5048 120.494 26.4564 121.35 28.7642 123.183C28.6853 123.304 27.0123 122.277 24.77 121.621C22.5276 120.966 20.5568 120.931 20.5568 120.802Z" fill="#455A64"/>
<path d="M24.4372 118.213C25.5192 118.573 26.4555 119.265 27.1088 120.188C27.889 121.014 28.3828 122.063 28.519 123.183C28.3877 123.226 27.8884 121.845 26.7672 120.473C25.646 119.101 24.3671 118.307 24.4372 118.213Z" fill="#455A64"/>
<path d="M5.35278 170.398C5.35278 170.346 5.88709 170.243 6.50898 170.743C7.24802 171.422 7.71178 172.342 7.81407 173.332C7.96108 174.3 7.81801 175.29 7.4024 176.179C7.08707 176.852 6.73671 177.163 6.69292 177.137C6.64912 177.111 6.87686 176.714 7.10459 176.059C7.39961 175.202 7.48662 174.288 7.35861 173.392C7.25662 172.506 6.88747 171.671 6.29878 170.994C6.01963 170.744 5.69982 170.543 5.35278 170.398Z" fill="#263238"/>
<path d="M18.2003 87.6934L34.256 127.79L103.401 128.904L104.68 125.219L80.4433 124.356L68.8023 88.7806L18.2003 87.6934Z" fill="#455A64"/>
<path d="M50.4853 105.054C49.9573 104.79 49.3627 104.682 48.7736 104.743C48.1844 104.804 47.6259 105.032 47.1655 105.4C46.7727 105.764 46.5 106.235 46.3828 106.754C46.2657 107.272 46.3095 107.814 46.5086 108.307C46.7242 108.793 47.0711 109.211 47.5113 109.515C47.9516 109.819 48.4683 109.999 49.005 110.033C49.5737 110.065 50.1375 109.914 50.6114 109.603C51.0854 109.291 51.4438 108.837 51.6328 108.307C51.8164 107.714 51.8025 107.078 51.5928 106.492C51.3832 105.907 50.989 105.403 50.4678 105.054" fill="#EBEBEB"/>
<path d="M29.5527 162.642C29.5527 162.642 93.2585 121.484 95.86 120.629C98.4615 119.775 104.777 115.702 111.075 117.411C117.373 119.119 123.031 124.693 125.86 132.83C127.472 137.481 128.234 145.411 128.593 151.356C129.084 158.477 126.744 165.508 122.068 170.96C119.992 173.5 117.242 175.424 114.123 176.517C113.457 176.715 112.774 176.888 112.065 177.043C106.151 178.238 100.01 177.646 94.4441 175.344C88.8785 173.042 84.1482 169.138 80.873 164.143L79.3927 161.917C79.3927 161.917 37.7163 176.991 37.0681 176.784L29.5527 162.642Z" fill="#263238"/>
<path d="M108.361 151.312C108.361 151.312 108.247 151.373 108.011 151.468L106.969 151.873L102.931 153.4L87.9261 158.974C81.5494 161.321 73.9113 164.1 65.3448 167.172C56.7783 170.243 47.2833 173.609 37.1401 176.991L36.9562 177.051L36.8598 176.887C35.2744 173.893 33.5926 170.727 31.8846 167.525L29.3532 162.745L29.2568 162.564L29.432 162.452L78.0194 132.071L92.621 122.993L96.5889 120.56L97.6225 119.939L97.9816 119.74C97.8748 119.823 97.7637 119.901 97.6488 119.973L96.6415 120.638L92.7174 123.14L78.1946 132.329L29.686 162.831L29.7649 162.538L32.305 167.31C34.0043 170.52 35.6861 173.678 37.2803 176.68L37 176.568C47.1344 173.194 56.6381 169.847 65.2134 166.801L87.8297 158.69L102.887 153.254L106.951 151.796L108.011 151.424L108.361 151.312Z" fill="#455A64"/>
</svg>
