<svg width="1057" height="330" viewBox="0 0 1057 330" fill="none" xmlns="http://www.w3.org/2000/svg">
<rect width="1057" height="330" rx="12" fill="#141517"/>
<path d="M70.576 20.12C72.82 20.12 73.384 17.9 73.384 15.836C73.384 13.748 72.796 11.504 70.492 11.504C67.96 11.504 67.672 14.036 67.672 15.824C67.672 17.588 67.984 20.12 70.576 20.12ZM70.54 18.74C69.184 18.74 69.148 17.192 69.148 15.824C69.148 14.408 69.184 12.884 70.492 12.884C71.8 12.884 71.836 14.396 71.836 15.812C71.836 17.156 71.812 18.74 70.54 18.74ZM77.3793 11.636V12.14C77.3793 12.704 77.1152 12.944 76.5393 12.944H75.4233V14.144H77.3793V20H78.8193V11.636H77.3793ZM86.6205 20H88.0725L89.8965 14.492L91.7085 20H93.1725L95.6805 11.636H94.1085L92.3565 17.708L90.5325 12.116H89.2485L87.4365 17.708L85.6725 11.636H84.1125L86.6205 20ZM96.8724 20H102.44V18.62H98.3724V16.388H102.152V15.008H98.3724V13.016H102.44V11.636H96.8724V20ZM104.197 20H109.765V18.62H105.697V16.388H109.477V15.008H105.697V13.016H109.765V11.636H104.197V20ZM118.829 20L115.637 14.804L118.745 11.636H116.777L113.021 15.572V11.636H111.521V20H113.021V17.456L114.617 15.836L117.089 20H118.829Z" fill="white"/>
<path d="M294.576 20.12C296.82 20.12 297.384 17.9 297.384 15.836C297.384 13.748 296.796 11.504 294.492 11.504C291.96 11.504 291.672 14.036 291.672 15.824C291.672 17.588 291.984 20.12 294.576 20.12ZM294.54 18.74C293.184 18.74 293.148 17.192 293.148 15.824C293.148 14.408 293.184 12.884 294.492 12.884C295.8 12.884 295.836 14.396 295.836 15.812C295.836 17.156 295.812 18.74 294.54 18.74ZM301.091 18.644C302.531 17.756 304.139 16.004 304.139 14.12C304.139 12.56 303.047 11.528 301.511 11.528C299.651 11.528 298.643 13.04 298.643 14.576L300.059 14.684C300.095 13.82 300.431 12.92 301.487 12.92C302.315 12.92 302.699 13.472 302.699 14.228C302.699 16.184 300.107 17.912 298.631 18.812V20H304.487V18.644H301.091ZM310.62 20H312.072L313.896 14.492L315.708 20H317.172L319.68 11.636H318.108L316.356 17.708L314.532 12.116H313.248L311.436 17.708L309.672 11.636H308.112L310.62 20ZM320.872 20H326.44V18.62H322.372V16.388H326.152V15.008H322.372V13.016H326.44V11.636H320.872V20ZM328.197 20H333.765V18.62H329.697V16.388H333.477V15.008H329.697V13.016H333.765V11.636H328.197V20ZM342.829 20L339.637 14.804L342.745 11.636H340.777L337.021 15.572V11.636H335.521V20H337.021V17.456L338.617 15.836L341.089 20H342.829Z" fill="white"/>
<path d="M609.576 20.12C611.82 20.12 612.384 17.9 612.384 15.836C612.384 13.748 611.796 11.504 609.492 11.504C606.96 11.504 606.672 14.036 606.672 15.824C606.672 17.588 606.984 20.12 609.576 20.12ZM609.54 18.74C608.184 18.74 608.148 17.192 608.148 15.824C608.148 14.408 608.184 12.884 609.492 12.884C610.8 12.884 610.836 14.396 610.836 15.812C610.836 17.156 610.812 18.74 609.54 18.74ZM616.487 20.12C618.119 20.12 619.583 19.232 619.583 17.54C619.583 16.628 619.163 15.776 618.167 15.464C618.875 15.08 619.139 14.456 619.139 13.808C619.139 12.368 617.855 11.516 616.463 11.516C615.023 11.516 613.787 12.428 613.787 14L615.203 14.096C615.215 13.34 615.719 12.896 616.487 12.896C617.159 12.896 617.699 13.244 617.699 13.988C617.699 14.636 617.279 15.056 616.115 15.056V16.196C617.015 16.196 618.143 16.232 618.143 17.384C618.143 18.344 617.375 18.74 616.523 18.74C615.539 18.74 614.807 18.224 614.807 17.276L613.379 17.36C613.379 19.208 614.819 20.12 616.487 20.12ZM625.62 20H627.072L628.896 14.492L630.708 20H632.172L634.68 11.636H633.108L631.356 17.708L629.532 12.116H628.248L626.436 17.708L624.672 11.636H623.112L625.62 20ZM635.872 20H641.44V18.62H637.372V16.388H641.152V15.008H637.372V13.016H641.44V11.636H635.872V20ZM643.197 20H648.765V18.62H644.697V16.388H648.477V15.008H644.697V13.016H648.765V11.636H643.197V20ZM657.829 20L654.637 14.804L657.745 11.636H655.777L652.021 15.572V11.636H650.521V20H652.021V17.456L653.617 15.836L656.089 20H657.829Z" fill="white"/>
<path d="M879.576 20.12C881.82 20.12 882.384 17.9 882.384 15.836C882.384 13.748 881.796 11.504 879.492 11.504C876.96 11.504 876.672 14.036 876.672 15.824C876.672 17.588 876.984 20.12 879.576 20.12ZM879.54 18.74C878.184 18.74 878.148 17.192 878.148 15.824C878.148 14.408 878.184 12.884 879.492 12.884C880.8 12.884 880.836 14.396 880.836 15.812C880.836 17.156 880.812 18.74 879.54 18.74ZM888.539 16.652V11.636H887.279L883.187 17.168V18.032H887.099V20H888.539V18.032H889.871V16.652H888.539ZM885.011 16.652L887.099 13.712V16.652H885.011ZM895.62 20H897.072L898.896 14.492L900.708 20H902.172L904.68 11.636H903.108L901.356 17.708L899.532 12.116H898.248L896.436 17.708L894.672 11.636H893.112L895.62 20ZM905.872 20H911.44V18.62H907.372V16.388H911.152V15.008H907.372V13.016H911.44V11.636H905.872V20ZM913.197 20H918.765V18.62H914.697V16.388H918.477V15.008H914.697V13.016H918.765V11.636H913.197V20ZM927.829 20L924.637 14.804L927.745 11.636H925.777L922.021 15.572V11.636H920.521V20H922.021V17.456L923.617 15.836L926.089 20H927.829Z" fill="white"/>
<path d="M68.89 35.19C70.47 34.21 71.97 32.76 71.97 31.06C71.97 29.73 71.1 28.93 69.85 28.93C68.37 28.93 67.56 30.05 67.56 31.39L68.41 31.45C68.43 30.52 68.84 29.76 69.84 29.76C70.67 29.76 71.1 30.29 71.1 31.08C71.1 32.86 68.94 34.31 67.44 35.24V36H72.28V35.19H68.89ZM75.6424 36.1C77.3324 36.1 77.8624 34.38 77.8624 32.53C77.8624 30.68 77.3124 28.93 75.5724 28.93C73.6624 28.93 73.3524 30.92 73.3524 32.52C73.3524 34.12 73.6824 36.1 75.6424 36.1ZM75.6224 35.28C74.4024 35.28 74.2324 33.88 74.2324 32.52C74.2324 31.13 74.4024 29.75 75.5724 29.75C76.7224 29.75 76.9324 31.05 76.9324 32.52C76.9324 33.94 76.7324 35.28 75.6224 35.28ZM81.384 33.3H84.124V32.64H81.384V33.3ZM88.9291 35.19C90.5091 34.21 92.0091 32.76 92.0091 31.06C92.0091 29.73 91.1391 28.93 89.8891 28.93C88.4091 28.93 87.5991 30.05 87.5991 31.39L88.4491 31.45C88.4691 30.52 88.8791 29.76 89.8791 29.76C90.7091 29.76 91.1391 30.29 91.1391 31.08C91.1391 32.86 88.9791 34.31 87.4791 35.24V36H92.3191V35.19H88.9291ZM93.1315 29.03V29.85H97.0615L93.8515 36H94.8315L98.1315 29.53V29.03H93.1315ZM103.721 36.12C105.131 36.12 105.971 35.18 105.971 33.53V29.03H102.321V29.85H105.081V33.48C105.081 34.7 104.631 35.28 103.721 35.28C102.871 35.28 102.391 34.78 102.321 33.82L101.441 33.92C101.541 35.3 102.401 36.12 103.721 36.12ZM109.503 30.98C108.643 30.98 107.973 31.31 107.423 32.01L108.043 32.53C108.433 32.01 108.903 31.74 109.483 31.74C110.233 31.74 110.653 32.16 110.653 32.92V33.12H109.563C108.733 33.12 108.243 33.2 107.873 33.4C107.473 33.62 107.253 34.02 107.253 34.54C107.253 35.49 107.923 36.09 108.983 36.09C109.723 36.09 110.313 35.79 110.663 35.26L110.723 36H111.513V32.92C111.513 31.7 110.763 30.98 109.503 30.98ZM109.183 35.37C108.523 35.37 108.113 35.06 108.113 34.58C108.113 34.33 108.203 34.14 108.363 34.01C108.573 33.85 108.913 33.79 109.663 33.79H110.653V33.84C110.653 34.75 110.053 35.37 109.183 35.37ZM115.495 30.98C114.825 30.98 114.245 31.26 113.915 31.74V31.07H113.055V36H113.915V33.87C113.915 32.65 114.275 31.74 115.265 31.74C116.065 31.74 116.295 32.32 116.295 33.14V36H117.155V32.93C117.155 31.66 116.575 30.98 115.495 30.98ZM121.761 31.07V33.21C121.761 34.35 121.431 35.33 120.401 35.33C119.471 35.33 119.381 34.54 119.381 33.9V31.07H118.521V34.11C118.521 35.27 119.021 36.09 120.181 36.09C120.801 36.09 121.411 35.85 121.761 35.33V36H122.621V31.07H121.761ZM126.085 30.98C125.225 30.98 124.555 31.31 124.005 32.01L124.625 32.53C125.015 32.01 125.485 31.74 126.065 31.74C126.815 31.74 127.235 32.16 127.235 32.92V33.12H126.145C125.315 33.12 124.825 33.2 124.455 33.4C124.055 33.62 123.835 34.02 123.835 34.54C123.835 35.49 124.505 36.09 125.565 36.09C126.305 36.09 126.895 35.79 127.245 35.26L127.305 36H128.095V32.92C128.095 31.7 127.345 30.98 126.085 30.98ZM125.765 35.37C125.105 35.37 124.695 35.06 124.695 34.58C124.695 34.33 124.785 34.14 124.945 34.01C125.155 33.85 125.495 33.79 126.245 33.79H127.235V33.84C127.235 34.75 126.635 35.37 125.765 35.37ZM131.917 30.98C131.397 30.98 130.807 31.21 130.497 31.84V31.07H129.637V36H130.497V33.34C130.497 32.32 130.987 31.79 131.737 31.79C131.957 31.79 132.167 31.84 132.377 31.94L132.797 31.22C132.507 31.05 132.227 30.98 131.917 30.98ZM134.306 38.04H135.236L137.966 31.07H137.016L135.606 34.92L134.056 31.07H133.106L135.146 35.92L134.306 38.04Z" fill="#525F69"/>
<path d="M292.89 35.19C294.47 34.21 295.97 32.76 295.97 31.06C295.97 29.73 295.1 28.93 293.85 28.93C292.37 28.93 291.56 30.05 291.56 31.39L292.41 31.45C292.43 30.52 292.84 29.76 293.84 29.76C294.67 29.76 295.1 30.29 295.1 31.08C295.1 32.86 292.94 34.31 291.44 35.24V36H296.28V35.19H292.89ZM299.642 36.1C301.332 36.1 301.862 34.38 301.862 32.53C301.862 30.68 301.312 28.93 299.572 28.93C297.662 28.93 297.352 30.92 297.352 32.52C297.352 34.12 297.682 36.1 299.642 36.1ZM299.622 35.28C298.402 35.28 298.232 33.88 298.232 32.52C298.232 31.13 298.402 29.75 299.572 29.75C300.722 29.75 300.932 31.05 300.932 32.52C300.932 33.94 300.732 35.28 299.622 35.28ZM305.384 33.3H308.124V32.64H305.384V33.3ZM312.929 35.19C314.509 34.21 316.009 32.76 316.009 31.06C316.009 29.73 315.139 28.93 313.889 28.93C312.409 28.93 311.599 30.05 311.599 31.39L312.449 31.45C312.469 30.52 312.879 29.76 313.879 29.76C314.709 29.76 315.139 30.29 315.139 31.08C315.139 32.86 312.979 34.31 311.479 35.24V36H316.319V35.19H312.929ZM317.131 29.03V29.85H321.061L317.851 36H318.831L322.131 29.53V29.03H317.131ZM327.721 36.12C329.131 36.12 329.971 35.18 329.971 33.53V29.03H326.321V29.85H329.081V33.48C329.081 34.7 328.631 35.28 327.721 35.28C326.871 35.28 326.391 34.78 326.321 33.82L325.441 33.92C325.541 35.3 326.401 36.12 327.721 36.12ZM333.503 30.98C332.643 30.98 331.973 31.31 331.423 32.01L332.043 32.53C332.433 32.01 332.903 31.74 333.483 31.74C334.233 31.74 334.653 32.16 334.653 32.92V33.12H333.563C332.733 33.12 332.243 33.2 331.873 33.4C331.473 33.62 331.253 34.02 331.253 34.54C331.253 35.49 331.923 36.09 332.983 36.09C333.723 36.09 334.313 35.79 334.663 35.26L334.723 36H335.513V32.92C335.513 31.7 334.763 30.98 333.503 30.98ZM333.183 35.37C332.523 35.37 332.113 35.06 332.113 34.58C332.113 34.33 332.203 34.14 332.363 34.01C332.573 33.85 332.913 33.79 333.663 33.79H334.653V33.84C334.653 34.75 334.053 35.37 333.183 35.37ZM339.495 30.98C338.825 30.98 338.245 31.26 337.915 31.74V31.07H337.055V36H337.915V33.87C337.915 32.65 338.275 31.74 339.265 31.74C340.065 31.74 340.295 32.32 340.295 33.14V36H341.155V32.93C341.155 31.66 340.575 30.98 339.495 30.98ZM345.761 31.07V33.21C345.761 34.35 345.431 35.33 344.401 35.33C343.471 35.33 343.381 34.54 343.381 33.9V31.07H342.521V34.11C342.521 35.27 343.021 36.09 344.181 36.09C344.801 36.09 345.411 35.85 345.761 35.33V36H346.621V31.07H345.761ZM350.085 30.98C349.225 30.98 348.555 31.31 348.005 32.01L348.625 32.53C349.015 32.01 349.485 31.74 350.065 31.74C350.815 31.74 351.235 32.16 351.235 32.92V33.12H350.145C349.315 33.12 348.825 33.2 348.455 33.4C348.055 33.62 347.835 34.02 347.835 34.54C347.835 35.49 348.505 36.09 349.565 36.09C350.305 36.09 350.895 35.79 351.245 35.26L351.305 36H352.095V32.92C352.095 31.7 351.345 30.98 350.085 30.98ZM349.765 35.37C349.105 35.37 348.695 35.06 348.695 34.58C348.695 34.33 348.785 34.14 348.945 34.01C349.155 33.85 349.495 33.79 350.245 33.79H351.235V33.84C351.235 34.75 350.635 35.37 349.765 35.37ZM355.917 30.98C355.397 30.98 354.807 31.21 354.497 31.84V31.07H353.637V36H354.497V33.34C354.497 32.32 354.987 31.79 355.737 31.79C355.957 31.79 356.167 31.84 356.377 31.94L356.797 31.22C356.507 31.05 356.227 30.98 355.917 30.98ZM358.306 38.04H359.236L361.966 31.07H361.016L359.606 34.92L358.056 31.07H357.106L359.146 35.92L358.306 38.04Z" fill="#525F69"/>
<path d="M607.89 35.19C609.47 34.21 610.97 32.76 610.97 31.06C610.97 29.73 610.1 28.93 608.85 28.93C607.37 28.93 606.56 30.05 606.56 31.39L607.41 31.45C607.43 30.52 607.84 29.76 608.84 29.76C609.67 29.76 610.1 30.29 610.1 31.08C610.1 32.86 607.94 34.31 606.44 35.24V36H611.28V35.19H607.89ZM614.642 36.1C616.332 36.1 616.862 34.38 616.862 32.53C616.862 30.68 616.312 28.93 614.572 28.93C612.662 28.93 612.352 30.92 612.352 32.52C612.352 34.12 612.682 36.1 614.642 36.1ZM614.622 35.28C613.402 35.28 613.232 33.88 613.232 32.52C613.232 31.13 613.402 29.75 614.572 29.75C615.722 29.75 615.932 31.05 615.932 32.52C615.932 33.94 615.732 35.28 614.622 35.28ZM620.384 33.3H623.124V32.64H620.384V33.3ZM627.929 35.19C629.509 34.21 631.009 32.76 631.009 31.06C631.009 29.73 630.139 28.93 628.889 28.93C627.409 28.93 626.599 30.05 626.599 31.39L627.449 31.45C627.469 30.52 627.879 29.76 628.879 29.76C629.709 29.76 630.139 30.29 630.139 31.08C630.139 32.86 627.979 34.31 626.479 35.24V36H631.319V35.19H627.929ZM632.131 29.03V29.85H636.061L632.851 36H633.831L637.131 29.53V29.03H632.131ZM642.721 36.12C644.131 36.12 644.971 35.18 644.971 33.53V29.03H641.321V29.85H644.081V33.48C644.081 34.7 643.631 35.28 642.721 35.28C641.871 35.28 641.391 34.78 641.321 33.82L640.441 33.92C640.541 35.3 641.401 36.12 642.721 36.12ZM648.503 30.98C647.643 30.98 646.973 31.31 646.423 32.01L647.043 32.53C647.433 32.01 647.903 31.74 648.483 31.74C649.233 31.74 649.653 32.16 649.653 32.92V33.12H648.563C647.733 33.12 647.243 33.2 646.873 33.4C646.473 33.62 646.253 34.02 646.253 34.54C646.253 35.49 646.923 36.09 647.983 36.09C648.723 36.09 649.313 35.79 649.663 35.26L649.723 36H650.513V32.92C650.513 31.7 649.763 30.98 648.503 30.98ZM648.183 35.37C647.523 35.37 647.113 35.06 647.113 34.58C647.113 34.33 647.203 34.14 647.363 34.01C647.573 33.85 647.913 33.79 648.663 33.79H649.653V33.84C649.653 34.75 649.053 35.37 648.183 35.37ZM654.495 30.98C653.825 30.98 653.245 31.26 652.915 31.74V31.07H652.055V36H652.915V33.87C652.915 32.65 653.275 31.74 654.265 31.74C655.065 31.74 655.295 32.32 655.295 33.14V36H656.155V32.93C656.155 31.66 655.575 30.98 654.495 30.98ZM660.761 31.07V33.21C660.761 34.35 660.431 35.33 659.401 35.33C658.471 35.33 658.381 34.54 658.381 33.9V31.07H657.521V34.11C657.521 35.27 658.021 36.09 659.181 36.09C659.801 36.09 660.411 35.85 660.761 35.33V36H661.621V31.07H660.761ZM665.085 30.98C664.225 30.98 663.555 31.31 663.005 32.01L663.625 32.53C664.015 32.01 664.485 31.74 665.065 31.74C665.815 31.74 666.235 32.16 666.235 32.92V33.12H665.145C664.315 33.12 663.825 33.2 663.455 33.4C663.055 33.62 662.835 34.02 662.835 34.54C662.835 35.49 663.505 36.09 664.565 36.09C665.305 36.09 665.895 35.79 666.245 35.26L666.305 36H667.095V32.92C667.095 31.7 666.345 30.98 665.085 30.98ZM664.765 35.37C664.105 35.37 663.695 35.06 663.695 34.58C663.695 34.33 663.785 34.14 663.945 34.01C664.155 33.85 664.495 33.79 665.245 33.79H666.235V33.84C666.235 34.75 665.635 35.37 664.765 35.37ZM670.917 30.98C670.397 30.98 669.807 31.21 669.497 31.84V31.07H668.637V36H669.497V33.34C669.497 32.32 669.987 31.79 670.737 31.79C670.957 31.79 671.167 31.84 671.377 31.94L671.797 31.22C671.507 31.05 671.227 30.98 670.917 30.98ZM673.306 38.04H674.236L676.966 31.07H676.016L674.606 34.92L673.056 31.07H672.106L674.146 35.92L673.306 38.04Z" fill="#525F69"/>
<path d="M877.89 35.19C879.47 34.21 880.97 32.76 880.97 31.06C880.97 29.73 880.1 28.93 878.85 28.93C877.37 28.93 876.56 30.05 876.56 31.39L877.41 31.45C877.43 30.52 877.84 29.76 878.84 29.76C879.67 29.76 880.1 30.29 880.1 31.08C880.1 32.86 877.94 34.31 876.44 35.24V36H881.28V35.19H877.89ZM884.642 36.1C886.332 36.1 886.862 34.38 886.862 32.53C886.862 30.68 886.312 28.93 884.572 28.93C882.662 28.93 882.352 30.92 882.352 32.52C882.352 34.12 882.682 36.1 884.642 36.1ZM884.622 35.28C883.402 35.28 883.232 33.88 883.232 32.52C883.232 31.13 883.402 29.75 884.572 29.75C885.722 29.75 885.932 31.05 885.932 32.52C885.932 33.94 885.732 35.28 884.622 35.28ZM890.384 33.3H893.124V32.64H890.384V33.3ZM897.929 35.19C899.509 34.21 901.009 32.76 901.009 31.06C901.009 29.73 900.139 28.93 898.889 28.93C897.409 28.93 896.599 30.05 896.599 31.39L897.449 31.45C897.469 30.52 897.879 29.76 898.879 29.76C899.709 29.76 900.139 30.29 900.139 31.08C900.139 32.86 897.979 34.31 896.479 35.24V36H901.319V35.19H897.929ZM902.131 29.03V29.85H906.061L902.851 36H903.831L907.131 29.53V29.03H902.131ZM912.721 36.12C914.131 36.12 914.971 35.18 914.971 33.53V29.03H911.321V29.85H914.081V33.48C914.081 34.7 913.631 35.28 912.721 35.28C911.871 35.28 911.391 34.78 911.321 33.82L910.441 33.92C910.541 35.3 911.401 36.12 912.721 36.12ZM918.503 30.98C917.643 30.98 916.973 31.31 916.423 32.01L917.043 32.53C917.433 32.01 917.903 31.74 918.483 31.74C919.233 31.74 919.653 32.16 919.653 32.92V33.12H918.563C917.733 33.12 917.243 33.2 916.873 33.4C916.473 33.62 916.253 34.02 916.253 34.54C916.253 35.49 916.923 36.09 917.983 36.09C918.723 36.09 919.313 35.79 919.663 35.26L919.723 36H920.513V32.92C920.513 31.7 919.763 30.98 918.503 30.98ZM918.183 35.37C917.523 35.37 917.113 35.06 917.113 34.58C917.113 34.33 917.203 34.14 917.363 34.01C917.573 33.85 917.913 33.79 918.663 33.79H919.653V33.84C919.653 34.75 919.053 35.37 918.183 35.37ZM924.495 30.98C923.825 30.98 923.245 31.26 922.915 31.74V31.07H922.055V36H922.915V33.87C922.915 32.65 923.275 31.74 924.265 31.74C925.065 31.74 925.295 32.32 925.295 33.14V36H926.155V32.93C926.155 31.66 925.575 30.98 924.495 30.98ZM930.761 31.07V33.21C930.761 34.35 930.431 35.33 929.401 35.33C928.471 35.33 928.381 34.54 928.381 33.9V31.07H927.521V34.11C927.521 35.27 928.021 36.09 929.181 36.09C929.801 36.09 930.411 35.85 930.761 35.33V36H931.621V31.07H930.761ZM935.085 30.98C934.225 30.98 933.555 31.31 933.005 32.01L933.625 32.53C934.015 32.01 934.485 31.74 935.065 31.74C935.815 31.74 936.235 32.16 936.235 32.92V33.12H935.145C934.315 33.12 933.825 33.2 933.455 33.4C933.055 33.62 932.835 34.02 932.835 34.54C932.835 35.49 933.505 36.09 934.565 36.09C935.305 36.09 935.895 35.79 936.245 35.26L936.305 36H937.095V32.92C937.095 31.7 936.345 30.98 935.085 30.98ZM934.765 35.37C934.105 35.37 933.695 35.06 933.695 34.58C933.695 34.33 933.785 34.14 933.945 34.01C934.155 33.85 934.495 33.79 935.245 33.79H936.235V33.84C936.235 34.75 935.635 35.37 934.765 35.37ZM940.917 30.98C940.397 30.98 939.807 31.21 939.497 31.84V31.07H938.637V36H939.497V33.34C939.497 32.32 939.987 31.79 940.737 31.79C940.957 31.79 941.167 31.84 941.377 31.94L941.797 31.22C941.507 31.05 941.227 30.98 940.917 30.98ZM943.306 38.04H944.236L946.966 31.07H946.016L944.606 34.92L943.056 31.07H942.106L944.146 35.92L943.306 38.04Z" fill="#525F69"/>
<rect opacity="0.2" x="59" y="80" width="998" height="1" fill="#525F69"/>
<path d="M24.8627 82.19C26.4427 81.21 27.9427 79.76 27.9427 78.06C27.9427 76.73 27.0727 75.93 25.8227 75.93C24.3427 75.93 23.5327 77.05 23.5327 78.39L24.3827 78.45C24.4027 77.52 24.8127 76.76 25.8127 76.76C26.6427 76.76 27.0727 77.29 27.0727 78.08C27.0727 79.86 24.9127 81.31 23.4127 82.24V83H28.2527V82.19H24.8627ZM31.6151 83.1C33.3051 83.1 33.8351 81.38 33.8351 79.53C33.8351 77.68 33.2851 75.93 31.5451 75.93C29.6351 75.93 29.3251 77.92 29.3251 79.52C29.3251 81.12 29.6551 83.1 31.6151 83.1ZM31.5951 82.28C30.3751 82.28 30.2051 80.88 30.2051 79.52C30.2051 78.13 30.3751 76.75 31.5451 76.75C32.6951 76.75 32.9051 78.05 32.9051 79.52C32.9051 80.94 32.7051 82.28 31.5951 82.28ZM37.9045 83H38.7645V81.55L39.7745 80.47L41.4045 83H42.4245L40.3645 79.94L42.1645 78.07H41.0145L38.7645 80.48V76.03H37.9045V83ZM48.5934 77.98C47.8834 77.98 47.3234 78.27 46.9834 78.94C46.7134 78.25 46.1734 77.98 45.5334 77.98C45.0034 77.98 44.5034 78.17 44.1934 78.68V78.07H43.3534L43.3634 83H44.2234V80.79C44.2234 79.72 44.3934 78.74 45.3734 78.74C46.2034 78.74 46.3934 79.5 46.3934 80.17V83H47.2534V80.79C47.2534 79.72 47.4134 78.74 48.4234 78.74C49.4034 78.74 49.4234 79.74 49.4234 80.15V83H50.2834V79.9C50.2834 78.8 49.7734 77.98 48.5934 77.98Z" fill="#525F69"/>
<rect opacity="0.2" x="59" y="180" width="998" height="1" fill="#525F69"/>
<path d="M25.8534 176.03V176.56C25.8534 176.99 25.6234 177.14 25.2334 177.14H24.1534V177.93H25.8534V183H26.7134V176.03H25.8534ZM31.6151 183.1C33.3051 183.1 33.8351 181.38 33.8351 179.53C33.8351 177.68 33.2851 175.93 31.5451 175.93C29.6351 175.93 29.3251 177.92 29.3251 179.52C29.3251 181.12 29.6551 183.1 31.6151 183.1ZM31.5951 182.28C30.3751 182.28 30.2051 180.88 30.2051 179.52C30.2051 178.13 30.3751 176.75 31.5451 176.75C32.6951 176.75 32.9051 178.05 32.9051 179.52C32.9051 180.94 32.7051 182.28 31.5951 182.28ZM37.9045 183H38.7645V181.55L39.7745 180.47L41.4045 183H42.4245L40.3645 179.94L42.1645 178.07H41.0145L38.7645 180.48V176.03H37.9045V183ZM48.5934 177.98C47.8834 177.98 47.3234 178.27 46.9834 178.94C46.7134 178.25 46.1734 177.98 45.5334 177.98C45.0034 177.98 44.5034 178.17 44.1934 178.68V178.07H43.3534L43.3634 183H44.2234V180.79C44.2234 179.72 44.3934 178.74 45.3734 178.74C46.2034 178.74 46.3934 179.5 46.3934 180.17V183H47.2534V180.79C47.2534 179.72 47.4134 178.74 48.4234 178.74C49.4034 178.74 49.4234 179.74 49.4234 180.15V183H50.2834V179.9C50.2834 178.8 49.7734 177.98 48.5934 177.98Z" fill="#525F69"/>
<rect opacity="0.2" x="59" y="130" width="998" height="1" fill="#525F69"/>
<path d="M25.8827 126.03V126.56C25.8827 126.99 25.6527 127.14 25.2627 127.14H24.1827V127.93H25.8827V133H26.7427V126.03H25.8827ZM31.7051 128.3C31.2751 128.3 30.7851 128.42 30.3451 128.79L30.6951 126.85H33.6851V126.03H29.9851L29.3351 129.65L30.1851 129.87C30.4951 129.41 30.9551 129.1 31.6051 129.1C32.5651 129.1 33.0951 129.79 33.0951 130.62C33.0951 131.48 32.5151 132.26 31.5351 132.26C30.6551 132.26 30.0951 131.65 29.9651 130.9L29.1251 131.04C29.3151 132.18 30.2551 133.09 31.5451 133.09C32.9651 133.09 34.0051 131.94 34.0051 130.62C34.0051 129.34 33.0451 128.3 31.7051 128.3ZM37.9045 133H38.7645V131.55L39.7745 130.47L41.4045 133H42.4245L40.3645 129.94L42.1645 128.07H41.0145L38.7645 130.48V126.03H37.9045V133ZM48.5934 127.98C47.8834 127.98 47.3234 128.27 46.9834 128.94C46.7134 128.25 46.1734 127.98 45.5334 127.98C45.0034 127.98 44.5034 128.17 44.1934 128.68V128.07H43.3534L43.3634 133H44.2234V130.79C44.2234 129.72 44.3934 128.74 45.3734 128.74C46.2034 128.74 46.3934 129.5 46.3934 130.17V133H47.2534V130.79C47.2534 129.72 47.4134 128.74 48.4234 128.74C49.4034 128.74 49.4234 129.74 49.4234 130.15V133H50.2834V129.9C50.2834 128.8 49.7734 127.98 48.5934 127.98Z" fill="#525F69"/>
<rect opacity="0.2" x="59" y="230" width="998" height="1" fill="#525F69"/>
<path d="M31.7051 228.3C31.2751 228.3 30.7851 228.42 30.3451 228.79L30.6951 226.85H33.6851V226.03H29.9851L29.3351 229.65L30.1851 229.87C30.4951 229.41 30.9551 229.1 31.6051 229.1C32.5651 229.1 33.0951 229.79 33.0951 230.62C33.0951 231.48 32.5151 232.26 31.5351 232.26C30.6551 232.26 30.0951 231.65 29.9651 230.9L29.1251 231.04C29.3151 232.18 30.2551 233.09 31.5451 233.09C32.9651 233.09 34.0051 231.94 34.0051 230.62C34.0051 229.34 33.0451 228.3 31.7051 228.3ZM37.9045 233H38.7645V231.55L39.7745 230.47L41.4045 233H42.4245L40.3645 229.94L42.1645 228.07H41.0145L38.7645 230.48V226.03H37.9045V233ZM48.5934 227.98C47.8834 227.98 47.3234 228.27 46.9834 228.94C46.7134 228.25 46.1734 227.98 45.5334 227.98C45.0034 227.98 44.5034 228.17 44.1934 228.68V228.07H43.3534L43.3634 233H44.2234V230.79C44.2234 229.72 44.3934 228.74 45.3734 228.74C46.2034 228.74 46.3934 229.5 46.3934 230.17V233H47.2534V230.79C47.2534 229.72 47.4134 228.74 48.4234 228.74C49.4034 228.74 49.4234 229.74 49.4234 230.15V233H50.2834V229.9C50.2834 228.8 49.7734 227.98 48.5934 227.98Z" fill="#525F69"/>
<path d="M31.6151 283.1C33.3051 283.1 33.8351 281.38 33.8351 279.53C33.8351 277.68 33.2851 275.93 31.5451 275.93C29.6351 275.93 29.3251 277.92 29.3251 279.52C29.3251 281.12 29.6551 283.1 31.6151 283.1ZM31.5951 282.28C30.3751 282.28 30.2051 280.88 30.2051 279.52C30.2051 278.13 30.3751 276.75 31.5451 276.75C32.6951 276.75 32.9051 278.05 32.9051 279.52C32.9051 280.94 32.7051 282.28 31.5951 282.28ZM37.9045 283H38.7645V281.55L39.7745 280.47L41.4045 283H42.4245L40.3645 279.94L42.1645 278.07H41.0145L38.7645 280.48V276.03H37.9045V283ZM48.5934 277.98C47.8834 277.98 47.3234 278.27 46.9834 278.94C46.7134 278.25 46.1734 277.98 45.5334 277.98C45.0034 277.98 44.5034 278.17 44.1934 278.68V278.07H43.3534L43.3634 283H44.2234V280.79C44.2234 279.72 44.3934 278.74 45.3734 278.74C46.2034 278.74 46.3934 279.5 46.3934 280.17V283H47.2534V280.79C47.2534 279.72 47.4134 278.74 48.4234 278.74C49.4034 278.74 49.4234 279.74 49.4234 280.15V283H50.2834V279.9C50.2834 278.8 49.7734 277.98 48.5934 277.98Z" fill="#525F69"/>
<line x1="69" y1="281" x2="91" y2="281" stroke="#525F69" stroke-width="2" stroke-linecap="round" stroke-linejoin="round"/>
<path d="M77.2684 297H78.4784L79.9984 292.41L81.5084 297H82.7284L84.8184 290.03H83.5084L82.0484 295.09L80.5284 290.43H79.4584L77.9484 295.09L76.4784 290.03H75.1784L77.2684 297Z" fill="#525F69"/>
<line x1="384" y1="281" x2="406" y2="281" stroke="#525F69" stroke-width="2" stroke-linecap="round" stroke-linejoin="round"/>
<path d="M392.268 297H393.478L394.998 292.41L396.508 297H397.728L399.818 290.03H398.508L397.048 295.09L395.528 290.43H394.458L392.948 295.09L391.478 290.03H390.178L392.268 297Z" fill="#525F69"/>
<line x1="699" y1="281" x2="721" y2="281" stroke="#525F69" stroke-width="2" stroke-linecap="round" stroke-linejoin="round"/>
<path d="M707.268 297H708.478L709.998 292.41L711.508 297H712.728L714.818 290.03H713.508L712.048 295.09L710.528 290.43H709.458L707.948 295.09L706.478 290.03H705.178L707.268 297Z" fill="#525F69"/>
<line x1="1014" y1="281" x2="1036" y2="281" stroke="#525F69" stroke-width="2" stroke-linecap="round" stroke-linejoin="round"/>
<path d="M1022.27 297H1023.48L1025 292.41L1026.51 297H1027.73L1029.82 290.03H1028.51L1027.05 295.09L1025.53 290.43H1024.46L1022.95 295.09L1021.48 290.03H1020.18L1022.27 297Z" fill="#525F69"/>
<line x1="114" y1="281" x2="136" y2="281" stroke="#525F69" stroke-width="2" stroke-linecap="round" stroke-linejoin="round"/>
<path d="M124.369 297H125.629V291.18H127.809V290.03H122.189V291.18H124.369V297Z" fill="#525F69"/>
<line x1="429" y1="281" x2="451" y2="281" stroke="#525F69" stroke-width="2" stroke-linecap="round" stroke-linejoin="round"/>
<path d="M439.369 297H440.629V291.18H442.809V290.03H437.189V291.18H439.369V297Z" fill="#525F69"/>
<line x1="744" y1="281" x2="766" y2="281" stroke="#525F69" stroke-width="2" stroke-linecap="round" stroke-linejoin="round"/>
<path d="M754.369 297H755.629V291.18H757.809V290.03H752.189V291.18H754.369V297Z" fill="#525F69"/>
<line x1="159" y1="281" x2="181" y2="281" stroke="#525F69" stroke-width="2" stroke-linecap="round" stroke-linejoin="round"/>
<path d="M168.353 297H169.603V293.99H172.853V292.84H169.603V291.18H173.293V290.03H168.353V297Z" fill="#525F69"/>
<line x1="474" y1="281" x2="496" y2="281" stroke="#525F69" stroke-width="2" stroke-linecap="round" stroke-linejoin="round"/>
<path d="M483.353 297H484.603V293.99H487.853V292.84H484.603V291.18H488.293V290.03H483.353V297Z" fill="#525F69"/>
<g filter="url(#filter0_i)">
<path d="M473 145C473 142.791 474.791 141 477 141H493C495.209 141 497 142.791 497 145V282H473V145Z" fill="#FFDD03"/>
</g>
<g filter="url(#filter1_i)">
<path d="M698 192C698 189.791 699.791 188 702 188H718C720.209 188 722 189.791 722 192V282H698V192Z" fill="#FFDD03"/>
</g>
<line x1="789" y1="281" x2="811" y2="281" stroke="#525F69" stroke-width="2" stroke-linecap="round" stroke-linejoin="round"/>
<path d="M798.353 297H799.603V293.99H802.853V292.84H799.603V291.18H803.293V290.03H798.353V297Z" fill="#525F69"/>
<line x1="204" y1="281" x2="226" y2="281" stroke="#525F69" stroke-width="2" stroke-linecap="round" stroke-linejoin="round"/>
<path d="M215.092 297.13C216.522 297.13 217.512 296.27 217.512 294.97C217.512 293.98 217.022 293.45 215.532 292.88C214.482 292.47 214.142 292.21 214.142 291.75C214.142 291.32 214.522 290.99 215.022 290.99C215.492 290.99 215.902 291.27 216.142 291.79L217.182 291.15C216.742 290.31 216.002 289.88 215.062 289.88C213.762 289.88 212.892 290.65 212.892 291.78C212.892 292.79 213.412 293.32 214.872 293.89C215.902 294.3 216.262 294.6 216.262 295.08C216.262 295.67 215.812 296.02 215.112 296.02C214.302 296.02 213.752 295.55 213.662 294.72L212.422 295.03C212.622 296.3 213.702 297.13 215.092 297.13Z" fill="#525F69"/>
<line x1="519" y1="281" x2="541" y2="281" stroke="#525F69" stroke-width="2" stroke-linecap="round" stroke-linejoin="round"/>
<path d="M530.092 297.13C531.522 297.13 532.512 296.27 532.512 294.97C532.512 293.98 532.022 293.45 530.532 292.88C529.482 292.47 529.142 292.21 529.142 291.75C529.142 291.32 529.522 290.99 530.022 290.99C530.492 290.99 530.902 291.27 531.142 291.79L532.182 291.15C531.742 290.31 531.002 289.88 530.062 289.88C528.762 289.88 527.892 290.65 527.892 291.78C527.892 292.79 528.412 293.32 529.872 293.89C530.902 294.3 531.262 294.6 531.262 295.08C531.262 295.67 530.812 296.02 530.112 296.02C529.302 296.02 528.752 295.55 528.662 294.72L527.422 295.03C527.622 296.3 528.702 297.13 530.092 297.13Z" fill="#525F69"/>
<line x1="834" y1="281" x2="856" y2="281" stroke="#525F69" stroke-width="2" stroke-linecap="round" stroke-linejoin="round"/>
<path d="M845.092 297.13C846.522 297.13 847.512 296.27 847.512 294.97C847.512 293.98 847.022 293.45 845.532 292.88C844.482 292.47 844.142 292.21 844.142 291.75C844.142 291.32 844.522 290.99 845.022 290.99C845.492 290.99 845.902 291.27 846.142 291.79L847.182 291.15C846.742 290.31 846.002 289.88 845.062 289.88C843.762 289.88 842.892 290.65 842.892 291.78C842.892 292.79 843.412 293.32 844.872 293.89C845.902 294.3 846.262 294.6 846.262 295.08C846.262 295.67 845.812 296.02 845.112 296.02C844.302 296.02 843.752 295.55 843.662 294.72L842.422 295.03C842.622 296.3 843.702 297.13 845.092 297.13Z" fill="#525F69"/>
<line x1="249" y1="281" x2="271" y2="281" stroke="#525F69" stroke-width="2" stroke-linecap="round" stroke-linejoin="round"/>
<path d="M260.092 297.13C261.522 297.13 262.512 296.27 262.512 294.97C262.512 293.98 262.022 293.45 260.532 292.88C259.482 292.47 259.142 292.21 259.142 291.75C259.142 291.32 259.522 290.99 260.022 290.99C260.492 290.99 260.902 291.27 261.142 291.79L262.182 291.15C261.742 290.31 261.002 289.88 260.062 289.88C258.762 289.88 257.892 290.65 257.892 291.78C257.892 292.79 258.412 293.32 259.872 293.89C260.902 294.3 261.262 294.6 261.262 295.08C261.262 295.67 260.812 296.02 260.112 296.02C259.302 296.02 258.752 295.55 258.662 294.72L257.422 295.03C257.622 296.3 258.702 297.13 260.092 297.13Z" fill="#525F69"/>
<line x1="564" y1="281" x2="586" y2="281" stroke="#525F69" stroke-width="2" stroke-linecap="round" stroke-linejoin="round"/>
<path d="M575.092 297.13C576.522 297.13 577.512 296.27 577.512 294.97C577.512 293.98 577.022 293.45 575.532 292.88C574.482 292.47 574.142 292.21 574.142 291.75C574.142 291.32 574.522 290.99 575.022 290.99C575.492 290.99 575.902 291.27 576.142 291.79L577.182 291.15C576.742 290.31 576.002 289.88 575.062 289.88C573.762 289.88 572.892 290.65 572.892 291.78C572.892 292.79 573.412 293.32 574.872 293.89C575.902 294.3 576.262 294.6 576.262 295.08C576.262 295.67 575.812 296.02 575.112 296.02C574.302 296.02 573.752 295.55 573.662 294.72L572.422 295.03C572.622 296.3 573.702 297.13 575.092 297.13Z" fill="#525F69"/>
<line x1="879" y1="281" x2="901" y2="281" stroke="#525F69" stroke-width="2" stroke-linecap="round" stroke-linejoin="round"/>
<path d="M890.092 297.13C891.522 297.13 892.512 296.27 892.512 294.97C892.512 293.98 892.022 293.45 890.532 292.88C889.482 292.47 889.142 292.21 889.142 291.75C889.142 291.32 889.522 290.99 890.022 290.99C890.492 290.99 890.902 291.27 891.142 291.79L892.182 291.15C891.742 290.31 891.002 289.88 890.062 289.88C888.762 289.88 887.892 290.65 887.892 291.78C887.892 292.79 888.412 293.32 889.872 293.89C890.902 294.3 891.262 294.6 891.262 295.08C891.262 295.67 890.812 296.02 890.112 296.02C889.302 296.02 888.752 295.55 888.662 294.72L887.422 295.03C887.622 296.3 888.702 297.13 890.092 297.13Z" fill="#525F69"/>
<g filter="url(#filter2_i)">
<path d="M878 207C878 204.791 879.791 203 882 203H898C900.209 203 902 204.791 902 207V282H878V207Z" fill="#FFDD03"/>
</g>
<line x1="294" y1="281" x2="316" y2="281" stroke="#525F69" stroke-width="2" stroke-linecap="round" stroke-linejoin="round"/>
<path d="M307.297 290.03L305.497 294.94L303.707 290.03H301.917V297H303.167V291.79L304.897 296.39H306.107L307.837 291.79V297H309.087V290.03H307.297Z" fill="#525F69"/>
<line x1="609" y1="281" x2="631" y2="281" stroke="#525F69" stroke-width="2" stroke-linecap="round" stroke-linejoin="round"/>
<path d="M622.297 290.03L620.497 294.94L618.707 290.03H616.917V297H618.167V291.79L619.897 296.39H621.107L622.837 291.79V297H624.087V290.03H622.297Z" fill="#525F69"/>
<line x1="924" y1="281" x2="946" y2="281" stroke="#525F69" stroke-width="2" stroke-linecap="round" stroke-linejoin="round"/>
<path d="M937.297 290.03L935.497 294.94L933.707 290.03H931.917V297H933.167V291.79L934.897 296.39H936.107L937.837 291.79V297H939.087V290.03H937.297Z" fill="#525F69"/>
<line x1="339" y1="281" x2="361" y2="281" stroke="#525F69" stroke-width="2" stroke-linecap="round" stroke-linejoin="round"/>
<path d="M349.369 297H350.629V291.18H352.809V290.03H347.189V291.18H349.369V297Z" fill="#525F69"/>
<g filter="url(#filter3_i)">
<path d="M338 232C338 229.791 339.791 228 342 228H358C360.209 228 362 229.791 362 232V282H338V232Z" fill="#FFDD03"/>
</g>
<line x1="654" y1="281" x2="676" y2="281" stroke="#525F69" stroke-width="2" stroke-linecap="round" stroke-linejoin="round"/>
<path d="M664.369 297H665.629V291.18H667.809V290.03H662.189V291.18H664.369V297Z" fill="#525F69"/>
<line x1="969" y1="281" x2="991" y2="281" stroke="#525F69" stroke-width="2" stroke-linecap="round" stroke-linejoin="round"/>
<path d="M979.369 297H980.629V291.18H982.809V290.03H977.189V291.18H979.369V297Z" fill="#525F69"/>
<line opacity="0.2" x1="282.5" y1="282" x2="282.5" y2="2.18557e-08" stroke="#525F69"/>
<line opacity="0.2" x1="58.5" y1="275" x2="58.5" y2="2.18557e-08" stroke="#525F69"/>
<line opacity="0.2" x1="597.5" y1="282" x2="597.5" y2="2.18557e-08" stroke="#525F69"/>
<line opacity="0.2" x1="867.5" y1="282" x2="867.5" y2="2.18557e-08" stroke="#525F69"/>
<defs>
<filter id="filter0_i" x="473" y="141" width="24" height="145" filterUnits="userSpaceOnUse" color-interpolation-filters="sRGB">
<feFlood flood-opacity="0" result="BackgroundImageFix"/>
<feBlend mode="normal" in="SourceGraphic" in2="BackgroundImageFix" result="shape"/>
<feColorMatrix in="SourceAlpha" type="matrix" values="0 0 0 0 0 0 0 0 0 0 0 0 0 0 0 0 0 0 127 0" result="hardAlpha"/>
<feOffset dy="4"/>
<feGaussianBlur stdDeviation="7"/>
<feComposite in2="hardAlpha" operator="arithmetic" k2="-1" k3="1"/>
<feColorMatrix type="matrix" values="0 0 0 0 0 0 0 0 0 0 0 0 0 0 0 0 0 0 0.45 0"/>
<feBlend mode="normal" in2="shape" result="effect1_innerShadow"/>
</filter>
<filter id="filter1_i" x="698" y="188" width="24" height="98" filterUnits="userSpaceOnUse" color-interpolation-filters="sRGB">
<feFlood flood-opacity="0" result="BackgroundImageFix"/>
<feBlend mode="normal" in="SourceGraphic" in2="BackgroundImageFix" result="shape"/>
<feColorMatrix in="SourceAlpha" type="matrix" values="0 0 0 0 0 0 0 0 0 0 0 0 0 0 0 0 0 0 127 0" result="hardAlpha"/>
<feOffset dy="4"/>
<feGaussianBlur stdDeviation="7"/>
<feComposite in2="hardAlpha" operator="arithmetic" k2="-1" k3="1"/>
<feColorMatrix type="matrix" values="0 0 0 0 0 0 0 0 0 0 0 0 0 0 0 0 0 0 0.45 0"/>
<feBlend mode="normal" in2="shape" result="effect1_innerShadow"/>
</filter>
<filter id="filter2_i" x="878" y="203" width="24" height="83" filterUnits="userSpaceOnUse" color-interpolation-filters="sRGB">
<feFlood flood-opacity="0" result="BackgroundImageFix"/>
<feBlend mode="normal" in="SourceGraphic" in2="BackgroundImageFix" result="shape"/>
<feColorMatrix in="SourceAlpha" type="matrix" values="0 0 0 0 0 0 0 0 0 0 0 0 0 0 0 0 0 0 127 0" result="hardAlpha"/>
<feOffset dy="4"/>
<feGaussianBlur stdDeviation="7"/>
<feComposite in2="hardAlpha" operator="arithmetic" k2="-1" k3="1"/>
<feColorMatrix type="matrix" values="0 0 0 0 0 0 0 0 0 0 0 0 0 0 0 0 0 0 0.45 0"/>
<feBlend mode="normal" in2="shape" result="effect1_innerShadow"/>
</filter>
<filter id="filter3_i" x="338" y="228" width="24" height="58" filterUnits="userSpaceOnUse" color-interpolation-filters="sRGB">
<feFlood flood-opacity="0" result="BackgroundImageFix"/>
<feBlend mode="normal" in="SourceGraphic" in2="BackgroundImageFix" result="shape"/>
<feColorMatrix in="SourceAlpha" type="matrix" values="0 0 0 0 0 0 0 0 0 0 0 0 0 0 0 0 0 0 127 0" result="hardAlpha"/>
<feOffset dy="4"/>
<feGaussianBlur stdDeviation="7"/>
<feComposite in2="hardAlpha" operator="arithmetic" k2="-1" k3="1"/>
<feColorMatrix type="matrix" values="0 0 0 0 0 0 0 0 0 0 0 0 0 0 0 0 0 0 0.45 0"/>
<feBlend mode="normal" in2="shape" result="effect1_innerShadow"/>
</filter>
</defs>
</svg>
