<svg width="358" height="181" viewBox="0 0 358 181" fill="none" xmlns="http://www.w3.org/2000/svg">
<path opacity="0.2" d="M346 181H0C4.5 173.339 20.8 153.42 50 135.033C86.5 112.049 93 198.987 204 106.053C292.8 31.7063 343.667 58.0875 358 80.5715V169C358 175.627 352.627 181 346 181Z" fill="white" fill-opacity="0.38"/>
<path d="M266.312 28.4751C268.116 22.7716 267.363 13.2025 263.377 8.48263C259.392 3.76279 252.481 1.03615 246.297 0.28546C245.269 0.0817917 244.203 0.190123 243.24 0.596103C242.765 0.816432 242.394 1.20713 242.201 1.68829C242.009 2.16945 242.011 2.70473 242.206 3.18468C240.952 2.4744 239.588 1.97294 238.168 1.70056C237.456 1.57286 236.723 1.61852 236.033 1.83357C235.343 2.04862 234.717 2.42654 234.209 2.93445C233.973 3.19829 233.792 3.50542 233.676 3.83828C233.561 4.17114 233.513 4.52317 233.536 4.87422C233.559 5.22528 233.651 5.56847 233.809 5.88412C233.967 6.19978 234.186 6.48171 234.454 6.71378C233.574 6.4835 232.645 6.51191 231.78 6.79551C230.916 7.07912 230.155 7.60554 229.591 8.30992C229.027 9.01429 228.684 9.86586 228.605 10.7597C228.526 11.6536 228.714 12.5507 229.146 13.3405C230.126 14.9525 231.414 16.362 232.939 17.4909C234.314 18.5263 234.638 19.6998 234.577 21.4083" fill="#263238"/>
<path d="M263.938 18.5362L268.616 52.0583C268.805 53.4098 268.714 54.7851 268.347 56.1007C267.98 57.4164 267.346 58.6449 266.482 59.7116C265.619 60.7784 264.545 61.6612 263.324 62.3065C262.104 62.9517 260.763 63.346 259.384 63.4653C256.769 63.6883 254.168 62.9124 252.118 61.2981C250.069 59.6839 248.728 57.3549 248.373 54.7936C248.023 52.2654 247.725 50.16 247.673 49.9011C247.673 49.9011 238.913 50.2808 237.091 41.9111C236.216 37.8729 235.103 29.4082 234.192 21.7374C233.736 17.7705 234.807 13.7792 237.195 10.5532C239.582 7.32716 243.112 5.10142 247.086 4.31626L247.909 4.15232C256.843 2.88391 262.931 9.68326 263.938 18.5362Z" fill="#FFDBD3"/>
<path d="M247.63 49.7882C251.589 49.0944 255.249 47.2527 258.141 44.4989C258.141 44.4989 256.739 51.048 248.094 51.9626L247.63 49.7882Z" fill="#F0C3B9"/>
<path d="M237.809 26.8609C237.871 27.1731 238.054 27.4493 238.319 27.6313C238.583 27.8132 238.91 27.8866 239.228 27.836C239.385 27.8179 239.536 27.7692 239.674 27.6927C239.811 27.6162 239.931 27.5134 240.027 27.3904C240.124 27.2674 240.194 27.1266 240.234 26.9764C240.275 26.8262 240.284 26.6696 240.262 26.5158C240.202 26.202 240.02 25.9237 239.755 25.74C239.49 25.5562 239.163 25.4817 238.843 25.5321C238.686 25.5512 238.534 25.6009 238.397 25.6783C238.26 25.7558 238.14 25.8593 238.043 25.983C237.947 26.1067 237.877 26.2481 237.837 26.3988C237.796 26.5495 237.787 26.7066 237.809 26.8609Z" fill="#263238"/>
<path d="M236.855 25.4897C237.039 25.6191 237.827 24.7649 239.132 24.5061C240.438 24.2472 241.532 24.7131 241.638 24.5061C241.743 24.299 241.48 24.1696 241.007 23.9538C240.361 23.6792 239.646 23.6069 238.957 23.7467C238.283 23.881 237.67 24.2224 237.205 24.7218C236.846 25.1273 236.767 25.4293 236.855 25.4897Z" fill="#263238"/>
<path d="M250.712 24.7732C250.772 25.0847 250.953 25.3609 251.216 25.543C251.48 25.7251 251.805 25.7987 252.123 25.7482C252.279 25.7302 252.431 25.6815 252.568 25.605C252.705 25.5284 252.825 25.4257 252.922 25.3026C253.018 25.1796 253.088 25.0389 253.129 24.8887C253.169 24.7385 253.178 24.5819 253.156 24.4281C253.098 24.115 252.918 23.8367 252.655 23.6528C252.391 23.469 252.065 23.3942 251.746 23.4444C251.588 23.4624 251.436 23.5113 251.298 23.5884C251.16 23.6655 251.04 23.7691 250.943 23.893C250.847 24.017 250.777 24.1588 250.737 24.31C250.697 24.4612 250.689 24.6187 250.712 24.7732Z" fill="#263238"/>
<path d="M249.757 23.2029C249.941 23.3237 250.729 22.4695 252.034 22.2193C253.34 21.969 254.434 22.4177 254.54 22.2193C254.645 22.0208 254.391 21.8827 253.909 21.667C253.263 21.3924 252.548 21.3201 251.859 21.4599C251.185 21.5942 250.572 21.9356 250.107 22.435C249.748 22.8319 249.669 23.1425 249.757 23.2029Z" fill="#263238"/>
<path d="M246.953 33.6523C246.22 33.5598 245.478 33.5598 244.745 33.6523C244.413 33.6523 244.08 33.6523 243.975 33.4625C243.874 33.1303 243.874 32.7765 243.975 32.4443C244.132 31.5814 244.29 30.7186 244.456 29.7435C245.105 25.9124 245.499 22.7803 245.332 22.7544C245.166 22.7285 244.526 25.8262 243.878 29.6573C243.729 30.6064 243.58 31.5038 243.44 32.3666C243.317 32.8038 243.348 33.2691 243.528 33.6868C243.6 33.7937 243.696 33.8832 243.808 33.9489C243.921 34.0146 244.046 34.0548 244.176 34.0665C244.371 34.0856 244.568 34.0856 244.763 34.0665C245.508 34.0248 246.245 33.8855 246.953 33.6523Z" fill="#263238"/>
<path d="M250.983 33.8162C250.764 33.8162 251.044 35.2485 250.028 36.4824C249.012 37.7163 247.479 37.8543 247.505 38.0528C247.532 38.2513 247.9 38.2599 248.539 38.1477C249.373 37.9937 250.126 37.5572 250.667 36.9138C251.183 36.2948 251.434 35.5028 251.368 34.7049C251.307 34.1095 251.079 33.7903 250.983 33.8162Z" fill="#263238"/>
<path d="M248.397 18.2156C248.599 18.5435 249.869 18.1207 251.437 17.9999C253.005 17.8791 254.336 18.0431 254.476 17.6893C254.538 17.5253 254.249 17.2406 253.679 16.999C252.931 16.7072 252.124 16.5948 251.323 16.6711C250.518 16.7266 249.739 16.9754 249.054 17.3959C248.537 17.7324 248.31 18.0603 248.397 18.2156Z" fill="#263238"/>
<path d="M236.584 21.6666C236.873 21.9169 237.714 21.4337 238.791 21.2007C239.868 20.9677 240.832 21.0109 240.981 20.6571C241.042 20.4932 240.841 20.2257 240.385 20.0272C239.784 19.813 239.133 19.7756 238.511 19.9196C237.889 20.0636 237.323 20.3828 236.882 20.8383C236.514 21.218 236.452 21.5717 236.584 21.6666Z" fill="#263238"/>
<path d="M264.498 24.8765C264.629 24.7903 269.998 22.0291 270.979 27.793C271.96 33.5569 265.873 33.3326 265.838 33.1686C265.803 33.0047 264.498 24.8765 264.498 24.8765Z" fill="#FFDBD3"/>
<path d="M267.258 30.692C267.258 30.692 267.372 30.7438 267.556 30.7956C267.815 30.8592 268.089 30.8188 268.318 30.6834C268.656 30.3865 268.908 30.006 269.046 29.5812C269.185 29.1564 269.206 28.7028 269.106 28.2674C269.037 27.7693 268.857 27.2923 268.581 26.8696C268.497 26.7022 268.374 26.5569 268.221 26.4459C268.069 26.3348 267.892 26.2612 267.705 26.2311C267.583 26.2185 267.461 26.249 267.36 26.3169C267.259 26.3849 267.186 26.4859 267.153 26.6021C267.1 26.7746 267.153 26.8868 267.153 26.9041C267.153 26.9213 267.013 26.8264 267.022 26.5762C267.03 26.4291 267.088 26.2891 267.188 26.1793C267.331 26.0334 267.525 25.9469 267.731 25.9377C267.98 25.9465 268.222 26.0176 268.435 26.1445C268.648 26.2713 268.825 26.4496 268.949 26.6625C269.281 27.1198 269.494 27.65 269.571 28.207C269.687 28.7159 269.647 29.2473 269.457 29.7341C269.267 30.2209 268.934 30.6413 268.502 30.9423C268.353 31.0139 268.19 31.0511 268.025 31.0511C267.859 31.0511 267.696 31.0139 267.547 30.9423C267.293 30.8301 267.241 30.7093 267.258 30.692Z" fill="#F0C3B9"/>
<path d="M228.611 11.4694C229.198 19.0625 239.07 20.633 242.468 15.7837C244.036 13.5402 245.28 10.8481 247.724 9.55383C248.561 9.14875 249.471 8.91117 250.402 8.85489C251.332 8.79861 252.265 8.92473 253.146 9.22594H253.207C255.835 10.0888 257.718 12.5738 258.542 15.171C259.689 18.7778 259.645 22.1343 261.169 25.37C261.346 25.8573 261.678 26.2752 262.115 26.5608C262.912 26.9491 263.867 26.3365 264.331 25.5944C265.001 24.3536 265.287 22.9468 265.155 21.5476C265.141 18.3561 264.48 15.1995 263.21 12.2632C261.933 9.31564 259.8 6.80591 257.079 5.0497C253.597 2.94962 249.421 2.26869 245.438 3.1514C241.476 4.05663 237.905 6.17032 235.233 9.19142C233.929 10.5263 232.984 12.1604 232.483 13.9458" fill="#263238"/>
<path d="M234.069 6.33473C233.791 6.32317 233.514 6.37948 233.263 6.49868C232.56 6.78865 231.953 7.26692 231.511 7.87926C230.844 8.7909 230.508 9.89722 230.556 11.0201C230.669 12.3966 231.292 13.6839 232.308 14.6355C233.299 15.5884 234.54 16.2515 235.891 16.551C236.978 16.7819 238.096 16.8402 239.202 16.7236C239.94 16.6446 240.67 16.5002 241.383 16.2922C241.651 16.2392 241.908 16.143 242.145 16.0074C242.145 15.9211 241.015 16.2749 239.176 16.4043C238.108 16.4804 237.036 16.3931 235.996 16.1455C234.729 15.8431 233.567 15.2114 232.632 14.3162C231.689 13.4427 231.098 12.2629 230.968 10.9942C230.906 9.95724 231.186 8.92831 231.765 8.06046C232.158 7.47028 232.698 6.98906 233.333 6.66263C233.832 6.42965 234.069 6.37788 234.069 6.33473Z" fill="#455A64"/>
<path d="M237.573 3.0459C237.573 3.0459 237.345 3.0459 237.029 3.23573C236.819 3.40319 236.648 3.61305 236.527 3.8512C236.406 4.08934 236.339 4.35024 236.329 4.61631C236.342 5.39962 236.634 6.15358 237.152 6.74758C237.713 7.48601 238.38 8.14003 239.132 8.68902C240.489 9.69571 242.078 10.3567 243.757 10.6132C244.443 10.7617 245.155 10.7617 245.841 10.6132C245.841 10.5355 245.044 10.5614 243.818 10.3026C242.23 9.96323 240.736 9.28911 239.438 8.3266C238.723 7.79965 238.078 7.18494 237.52 6.49734C237.045 5.97817 236.753 5.32123 236.688 4.62492C236.677 4.15781 236.853 3.70525 237.178 3.36515C237.389 3.13218 237.573 3.08041 237.573 3.0459Z" fill="#455A64"/>
<path d="M198.061 108.721C199.322 110.108 200.865 111.218 202.591 111.978C204.317 112.737 206.186 113.13 208.077 113.13C209.967 113.13 211.836 112.737 213.562 111.978C215.288 111.218 216.832 110.108 218.093 108.721L233.579 91.6363L233.763 115.978L228.297 131.587L282.605 140.862L284.873 98.6428L288.78 66.2338C289.014 64.3018 288.592 62.3479 287.579 60.6774C286.566 59.007 285.02 57.7142 283.183 57.0011L268.231 51.2114L247.209 55.0079L238.747 58.1833C235.192 59.5086 232.023 61.6782 229.524 64.4994L205.777 91.248" fill="#FFDD03"/>
<path d="M233.263 114.925C233.132 114.925 233.105 106.486 233.193 96.0973C233.28 85.7084 233.447 77.2697 233.578 77.2697C233.709 77.2697 233.735 85.6998 233.648 96.0973C233.56 106.495 233.385 114.925 233.263 114.925Z" fill="#263238"/>
<path d="M235.251 121.112L268.063 108.1C269.36 107.586 270.485 106.725 271.311 105.613C272.136 104.501 272.628 103.184 272.732 101.81L275.132 70.8247C275.132 70.8247 274.852 57.6489 283.208 57.019L287.964 58.8655C294.096 62.084 295.629 70.8938 294.788 77.6931C293.605 87.3572 293.106 101.042 291.774 109.429C290.688 116.289 286.694 122.329 279.879 124.098L239.473 132.726L235.251 121.112Z" fill="#FFDD03"/>
<path d="M274.667 75.5525C274.61 75.7847 274.575 76.0215 274.562 76.26C274.509 76.7605 274.439 77.4422 274.351 78.305L273.659 85.8119C273.379 89.0045 273.046 92.7752 272.687 96.9601C272.591 98.0127 272.503 99.0913 272.407 100.187C272.345 101.3 272.205 102.407 271.986 103.501C271.761 104.612 271.192 105.628 270.357 106.408C269.457 107.182 268.437 107.808 267.335 108.264C258.287 112.121 249.948 115.304 243.896 117.531L236.713 120.119L234.76 120.827C234.526 120.896 234.3 120.989 234.085 121.103C234.323 121.053 234.557 120.986 234.786 120.904L236.766 120.275C238.517 119.714 240.961 118.877 244.001 117.798C250.088 115.632 258.445 112.5 267.511 108.626C268.66 108.158 269.723 107.504 270.655 106.693C271.55 105.854 272.162 104.763 272.407 103.57C272.626 102.456 272.766 101.329 272.827 100.196C272.915 99.0999 273.003 98.0214 273.09 96.9687C273.414 92.7838 273.712 89.0045 273.966 85.8119C274.22 82.6193 274.386 80.1084 274.518 78.2878C274.57 77.4249 274.614 76.7432 274.649 76.2428C274.67 76.0132 274.675 75.7827 274.667 75.5525Z" fill="#263238"/>
<path d="M293.466 92.3957C293.424 92.5301 293.4 92.6694 293.396 92.8099C293.396 93.1378 293.334 93.5261 293.29 94.0093C293.194 95.1137 293.063 96.5978 292.896 98.4012C292.73 100.205 292.493 102.465 292.161 104.907C291.84 107.55 291.346 110.17 290.68 112.751C290.372 114.08 289.833 115.347 289.086 116.495C288.357 117.553 287.537 118.546 286.633 119.464C285.099 121.019 283.326 122.327 281.378 123.338C279.57 124.251 277.628 124.88 275.623 125.202C275.763 125.221 275.904 125.221 276.044 125.202C276.452 125.173 276.859 125.121 277.261 125.046C278.741 124.772 280.175 124.293 281.518 123.623C283.523 122.632 285.349 121.323 286.923 119.748C287.853 118.826 288.694 117.821 289.436 116.746C290.219 115.563 290.785 114.255 291.109 112.88C291.777 110.278 292.262 107.635 292.563 104.968C292.87 102.517 293.071 100.299 293.212 98.4357C293.352 96.5719 293.422 95.0706 293.457 94.0265V92.8271C293.474 92.6839 293.476 92.5395 293.466 92.3957Z" fill="#263238"/>
<path d="M279.433 114.08C279.348 113.472 279.146 112.887 278.837 112.354C278.16 111.033 277.222 109.857 276.079 108.896C274.937 107.934 273.611 107.206 272.18 106.754C271.598 106.538 270.98 106.432 270.358 106.444C270.358 106.513 271.032 106.651 272.11 107.048C273.466 107.562 274.724 108.297 275.833 109.222C276.933 110.157 277.868 111.265 278.6 112.501C279.117 113.45 279.363 114.106 279.433 114.08Z" fill="#263238"/>
<g opacity="0.3">
<path opacity="0.3" d="M244.676 117.41C248.18 115.46 251.622 113.959 255.292 112.319C258.962 110.68 262.545 108.574 264.927 105.416C269.447 99.3762 268.939 90.7476 273.573 84.7939C273.269 88.786 272.977 92.7754 272.697 96.7618C272.416 100.42 272.986 104.036 270.594 106.521C268.58 108.609 264.656 110.214 261.879 111.12C256.291 112.94 250.273 115.632 244.685 117.444" fill="black"/>
</g>
<path d="M269.554 52.6784L267.951 46.7505L247.56 51.4704C247.289 51.5341 247.034 51.6515 246.811 51.8153C246.588 51.9792 246.401 52.1862 246.262 52.4235C246.122 52.6609 246.034 52.9237 246.001 53.196C245.968 53.4683 245.992 53.7443 246.071 54.0072L247.63 59.2361L254.988 68.5378L263.335 67.0709L269.554 62.3683V52.6784Z" fill="#FFDD03"/>
<path d="M247.207 55.3691C247.436 55.4598 247.679 55.515 247.925 55.533C248.587 55.6322 249.254 55.6956 249.922 55.7229C254.379 55.9094 258.8 54.8633 262.685 52.7029C263.27 52.3842 263.835 52.0298 264.375 51.6415C264.76 51.3654 264.962 51.2015 264.944 51.1756C264.927 51.1497 264.025 51.6761 262.527 52.4268C258.628 54.3899 254.31 55.4103 249.931 55.4036C248.223 55.4036 247.207 55.2915 247.207 55.3691Z" fill="#263238"/>
<path d="M262.36 52.695C262.36 52.695 262.64 52.531 262.85 52.0823C263.103 51.4904 263.158 50.8348 263.008 50.2099C262.865 49.5823 262.521 49.0165 262.027 48.5964C261.633 48.2858 261.326 48.2167 261.309 48.2599C261.291 48.303 261.51 48.4928 261.799 48.8207C262.168 49.2527 262.429 49.764 262.561 50.3135C262.695 50.8608 262.695 51.4315 262.561 51.9788C262.439 52.4016 262.299 52.6346 262.36 52.695Z" fill="#F5F5F5"/>
<path d="M253.594 55.6292C253.072 53.7258 253.297 51.6987 254.224 49.9515C254.224 49.9515 253.918 50.1414 253.611 50.6246C253.228 51.2533 252.988 51.9572 252.91 52.6868C252.828 53.4165 252.906 54.1551 253.138 54.8526C253.34 55.3789 253.541 55.655 253.594 55.6292Z" fill="#F5F5F5"/>
<path d="M252.885 114.019C252.908 113.818 252.908 113.615 252.885 113.415C252.885 113.018 252.762 112.44 252.736 111.689C252.59 109.572 252.59 107.447 252.736 105.33C252.966 102.193 253.369 99.0701 253.944 95.9763C254.558 92.473 255.363 88.6333 256.012 84.5692C257.107 77.6196 257.596 70.5904 257.474 63.5586C257.422 60.8665 257.299 58.6834 257.177 57.1821C257.124 56.4314 257.054 55.8533 257.01 55.4563C257.001 55.2527 256.972 55.0504 256.923 54.8524C256.9 55.0559 256.9 55.2614 256.923 55.465C256.923 55.905 256.923 56.4745 257.001 57.1907C257.063 58.7007 257.142 60.8751 257.15 63.5672C257.179 70.5754 256.646 77.5748 255.556 84.5002C254.908 88.547 254.12 92.3867 253.533 95.9072C252.977 99.0186 252.603 102.159 252.412 105.312C252.286 107.444 252.33 109.582 252.543 111.706C252.595 112.457 252.718 113.035 252.771 113.432C252.789 113.631 252.827 113.827 252.885 114.019Z" fill="#F5F5F5"/>
<path d="M242.829 56.5344C242.8 56.5827 242.779 56.6351 242.767 56.6898C242.732 56.7933 242.688 56.9486 242.636 57.1557C242.506 57.7608 242.427 58.3756 242.399 58.9936C242.294 60.6071 242.522 62.9196 242.653 65.7757C242.785 68.6317 242.942 72.04 242.829 75.8194C242.756 79.9258 242.239 84.013 241.287 88.0116C240.271 92.2482 239.088 96.2778 238.659 100.092C238.253 103.435 238.139 106.807 238.317 110.17C238.466 113.035 238.729 115.347 238.939 116.926C239.045 117.72 239.141 118.341 239.211 118.755C239.24 118.967 239.281 119.178 239.334 119.385C239.359 119.17 239.359 118.953 239.334 118.738C239.334 118.281 239.228 117.668 239.15 116.909C238.992 115.312 238.782 113.009 238.677 110.153C238.548 106.81 238.694 103.463 239.115 100.143C239.561 96.3986 240.753 92.3776 241.742 88.141C242.705 84.1267 243.222 80.0213 243.284 75.897C243.372 72.1004 243.196 68.6835 243.004 65.8274C242.811 62.9714 242.566 60.6503 242.61 59.0712C242.618 58.4586 242.671 57.8473 242.767 57.242C242.801 57.0075 242.822 56.7712 242.829 56.5344Z" fill="#F5F5F5"/>
<path d="M224.162 91.0583C224.749 90.7153 225.286 90.2942 225.756 89.8072C226.969 88.7198 228.104 87.5523 229.155 86.3126C230.215 85.0798 231.193 83.7798 232.081 82.4211C232.486 81.8924 232.816 81.3118 233.062 80.6954C232.948 80.6264 231.31 83.1891 228.813 86.0538C226.317 88.9185 224.075 90.9634 224.162 91.0583Z" fill="#F5F5F5"/>
<path d="M212.941 88.4355C213.296 88.152 213.624 87.8372 213.922 87.495C214.517 86.8738 215.358 85.9592 216.374 84.8116C218.424 82.5163 221.166 79.2806 224.056 75.5962C226.947 71.9118 229.426 68.4603 231.16 65.9322C232.036 64.6638 232.71 63.6369 233.166 62.9121C233.427 62.5497 233.655 62.1657 233.849 61.7645C233.524 62.0843 233.231 62.434 232.973 62.8086L230.845 65.751C229.093 68.2274 226.535 71.6357 223.653 75.3201C220.772 79.0045 218.065 82.2229 216.085 84.6044L213.747 87.3829C213.447 87.7094 213.177 88.0617 212.941 88.4355Z" fill="#F5F5F5"/>
<path d="M268.451 108.281C268.58 108.133 268.694 107.974 268.793 107.806C269.079 107.317 269.325 106.807 269.528 106.279C270.209 104.316 270.472 102.237 270.299 100.17C270.176 97.581 269.423 94.5179 268.976 91.1268C268.595 87.4307 268.554 83.7081 268.854 80.0046C269.117 76.0527 269.511 72.2906 269.66 68.8478C269.828 65.7969 269.737 62.7375 269.388 59.7015C269.149 57.6496 268.703 55.6262 268.057 53.6615C267.885 53.1273 267.683 52.6031 267.452 52.0911C267.387 51.9043 267.302 51.725 267.198 51.5561C267.198 51.5561 267.479 52.3154 267.882 53.7132C268.465 55.6862 268.86 57.7082 269.064 59.7533C269.364 62.7756 269.422 65.8164 269.239 68.8478C269.073 72.2993 268.661 76.0268 268.363 79.996C268.059 83.7318 268.114 87.4877 268.53 91.2131C268.985 94.6646 269.782 97.6414 269.94 100.221C270.141 102.255 269.932 104.307 269.327 106.261C269.077 106.952 268.785 107.626 268.451 108.281Z" fill="#F5F5F5"/>
<path d="M278.076 111.232C278.86 110.947 279.589 110.533 280.231 110.006C281.972 108.542 283.267 106.63 283.971 104.484C284.473 103.015 284.768 101.485 284.847 99.9368C284.918 98.1664 284.827 96.3932 284.575 94.6388C284.076 90.9372 283.069 86.968 282.745 82.7055C282.396 78.7017 282.431 74.6745 282.85 70.6772C283.034 68.8307 283.226 67.0618 283.226 65.3965C283.261 63.8451 283.057 62.2975 282.622 60.8061C281.996 58.6192 280.578 56.7342 278.637 55.5081C278.089 55.1961 277.499 54.9636 276.885 54.8179C276.674 54.7755 276.46 54.7467 276.245 54.7316C277.041 54.9266 277.803 55.2378 278.505 55.6548C280.357 56.9053 281.696 58.7654 282.28 60.901C282.684 62.3652 282.864 63.8802 282.815 65.3965C282.815 67.036 282.596 68.7875 282.394 70.6341C281.956 74.6471 281.909 78.6923 282.254 82.7141C282.587 87.0284 283.603 91.0062 284.12 94.6647C284.387 96.3916 284.489 98.1393 284.426 99.885C284.373 101.401 284.104 102.903 283.629 104.346C282.968 106.456 281.743 108.351 280.082 109.834C279.451 110.35 278.781 110.818 278.076 111.232Z" fill="#F5F5F5"/>
<path d="M240.497 124.252C240.996 124.095 241.482 123.902 241.951 123.674L245.849 122C249.142 120.611 253.732 118.756 258.883 116.935C264.033 115.114 268.772 113.673 272.223 112.69L276.305 111.542C276.814 111.431 277.312 111.275 277.794 111.076C277.277 111.14 276.765 111.238 276.261 111.37C275.28 111.585 273.87 111.93 272.135 112.388C268.632 113.294 263.893 114.692 258.725 116.512C253.557 118.333 248.985 120.24 245.717 121.689C244.079 122.423 242.766 123.044 241.872 123.493C241.392 123.705 240.931 123.959 240.497 124.252Z" fill="#F5F5F5"/>
<path d="M282.85 122.528C282.85 122.528 282.912 122.528 282.999 122.459C283.143 122.389 283.28 122.308 283.411 122.217C283.917 121.877 284.392 121.493 284.83 121.069C286.446 119.509 287.735 117.65 288.623 115.599C288.9 114.904 289.065 114.17 289.113 113.425C289.201 112.665 289.288 111.88 289.385 111.06C289.56 109.429 289.761 107.686 289.963 105.883C290.385 101.886 291.025 97.9137 291.881 93.9843C292.695 90.0408 293.134 86.0314 293.195 82.0078C293.291 78.3061 293.134 74.9755 292.958 72.1884C292.783 69.4014 292.582 67.1407 292.433 65.5876C292.354 64.8455 292.293 64.2501 292.24 63.8014C292.233 63.5914 292.2 63.3829 292.144 63.1802C292.13 63.3899 292.13 63.6003 292.144 63.8101C292.144 64.2588 292.205 64.8541 292.24 65.6048C292.337 67.158 292.494 69.4186 292.626 72.2057C292.757 74.9927 292.88 78.3147 292.766 81.9992C292.679 85.9939 292.23 89.9731 291.426 93.8894C290.581 97.8157 289.958 101.785 289.56 105.78C289.376 107.617 289.192 109.36 289.026 111C288.938 111.811 288.859 112.605 288.78 113.364C288.745 114.082 288.594 114.79 288.334 115.461C287.487 117.489 286.26 119.342 284.716 120.923C284.299 121.354 283.851 121.755 283.376 122.122C283.19 122.243 283.014 122.379 282.85 122.528Z" fill="#F5F5F5"/>
<path d="M187.644 162.952C187.644 162.952 160.193 170.442 159.089 170.821C157.442 171.391 157.714 177.362 160.289 177.267C161.506 177.224 181.372 178 183.886 177.845C186.4 177.69 193.968 174.747 193.968 174.747L187.644 162.952Z" fill="#FFDD03"/>
<path d="M176.258 173.272C175.713 171.23 174.625 169.368 173.105 167.879C174.078 168.412 174.886 169.195 175.441 170.145C175.997 171.095 176.279 172.176 176.258 173.272Z" fill="#263238"/>
<path d="M179.096 171.995C178.965 171.995 178.685 170.744 177.958 169.329C177.231 167.914 176.363 166.93 176.46 166.836C177.262 167.451 177.914 168.236 178.368 169.131C178.823 170.027 179.069 171.011 179.088 172.013L179.096 171.995Z" fill="#263238"/>
<path d="M181.785 171.287C181.647 170.32 181.433 169.365 181.146 168.431C180.716 167.55 180.215 166.705 179.648 165.903C180.516 166.482 181.184 167.306 181.566 168.268C181.948 169.229 182.024 170.282 181.785 171.287Z" fill="#263238"/>
<path d="M181.294 167.792C181.055 167.15 180.957 166.465 181.005 165.782C181.007 165.038 181.098 164.296 181.276 163.573C181.384 163.147 181.522 162.729 181.688 162.322C181.772 162.066 181.923 161.837 182.126 161.657C182.259 161.549 182.426 161.49 182.599 161.49C182.771 161.49 182.939 161.549 183.072 161.657C183.286 161.861 183.416 162.134 183.44 162.425C183.453 162.664 183.453 162.903 183.44 163.142C183.432 163.587 183.374 164.03 183.265 164.462C183.073 165.189 182.778 165.886 182.389 166.533C182.09 167.148 181.67 167.7 181.154 168.155C181.092 168.112 181.548 167.482 182.1 166.386C182.421 165.747 182.662 165.072 182.818 164.375C182.907 163.967 182.951 163.551 182.949 163.133C182.949 162.719 182.949 162.201 182.695 162.003C182.647 161.958 182.582 161.933 182.516 161.933C182.449 161.933 182.385 161.958 182.336 162.003C182.199 162.131 182.096 162.291 182.038 162.468C181.87 162.858 181.729 163.259 181.618 163.668C181.427 164.356 181.306 165.061 181.259 165.773C181.25 167.016 181.373 167.784 181.294 167.792Z" fill="#263238"/>
<path d="M181.329 167.516C181.885 167.297 182.483 167.203 183.081 167.24C183.739 167.237 184.396 167.315 185.034 167.473C185.425 167.556 185.803 167.693 186.155 167.879C186.382 167.991 186.564 168.173 186.675 168.398C186.786 168.622 186.819 168.877 186.769 169.121C186.705 169.354 186.58 169.566 186.406 169.736C186.232 169.906 186.016 170.027 185.779 170.088C185.373 170.187 184.949 170.187 184.544 170.088C183.906 169.922 183.309 169.628 182.792 169.225C182.291 168.895 181.86 168.473 181.522 167.982C182.03 168.276 182.519 168.601 182.985 168.957C183.491 169.304 184.063 169.547 184.666 169.673C185 169.755 185.349 169.755 185.682 169.673C185.844 169.639 185.992 169.559 186.11 169.445C186.228 169.33 186.311 169.185 186.348 169.026C186.376 168.866 186.346 168.701 186.263 168.56C186.179 168.42 186.048 168.313 185.893 168.258C185.579 168.088 185.243 167.96 184.894 167.879C184.292 167.705 183.672 167.597 183.046 167.559C182.012 167.482 181.338 167.594 181.329 167.516Z" fill="#263238"/>
<path d="M172.019 173.565C171.914 172.737 171.732 171.92 171.476 171.124C171.093 170.382 170.645 169.674 170.136 169.01C170.937 169.437 171.562 170.125 171.906 170.955C172.249 171.786 172.289 172.709 172.019 173.565Z" fill="#263238"/>
<path d="M191.149 174.808C190.816 175.011 190.46 175.176 190.089 175.3C189.092 175.679 188.071 175.994 187.032 176.24C183.581 176.981 180.052 177.309 176.521 177.215C172.413 177.172 168.708 176.982 166.01 176.879L162.821 176.715C162.43 176.708 162.041 176.667 161.656 176.594C162.044 176.533 162.438 176.513 162.83 176.534H166.019L176.53 176.732C180.02 176.812 183.508 176.523 186.936 175.869C189.607 175.395 191.149 174.73 191.149 174.808Z" fill="#263238"/>
<path d="M191.983 175.43C191.983 175.49 191.194 175.059 189.933 174.506C188.318 173.745 186.518 173.446 184.739 173.644C182.99 174.015 181.412 174.939 180.245 176.275C179.76 176.845 179.23 177.376 178.66 177.863C179.028 177.207 179.482 176.6 180.009 176.06C180.549 175.432 181.16 174.867 181.831 174.377C182.665 173.767 183.635 173.362 184.66 173.195C186.524 172.971 188.413 173.324 190.064 174.204C190.768 174.506 191.416 174.92 191.983 175.43Z" fill="#263238"/>
<path d="M216.815 155.488C216.815 155.488 242.786 172.245 243.705 172.935C245.098 173.979 243.495 178.932 241.078 178.112C239.939 177.707 218.137 171.736 215.79 170.838C213.442 169.941 207.145 164.867 207.145 164.867L216.815 155.488Z" fill="#FFDD03"/>
<path d="M224.522 168.741C224.84 167.691 225.443 166.745 226.265 166.007C227.088 165.268 228.099 164.764 229.19 164.548C228.277 165.088 227.399 165.684 226.563 166.334C225.835 167.096 225.153 167.9 224.522 168.741Z" fill="#263238"/>
<path d="M222.192 166.671C222.454 165.695 223.006 164.817 223.777 164.151C224.441 163.383 225.317 162.822 226.3 162.538C226.361 162.659 225.223 163.332 224.101 164.471C222.98 165.61 222.315 166.731 222.192 166.671Z" fill="#263238"/>
<path d="M219.854 165.187C219.934 164.158 220.331 163.177 220.992 162.375C221.652 161.574 222.544 160.989 223.55 160.7C222.763 161.294 222.025 161.949 221.343 162.659C220.777 163.459 220.279 164.305 219.854 165.187Z" fill="#263238"/>
<path d="M221.393 162.002C221.323 162.002 221.682 161.278 221.98 160.096C222.153 159.4 222.256 158.689 222.287 157.973C222.313 157.553 222.313 157.133 222.287 156.713C222.283 156.523 222.232 156.336 222.138 156.169C222.102 156.113 222.045 156.074 221.979 156.059C221.913 156.045 221.844 156.056 221.787 156.092C221.49 156.204 221.332 156.704 221.192 157.093C221.067 157.489 220.982 157.897 220.938 158.309C220.874 159.02 220.898 159.736 221.008 160.441C221.192 161.657 221.437 162.391 221.358 162.417C221.015 161.825 220.786 161.175 220.684 160.501C220.524 159.77 220.468 159.021 220.517 158.275C220.555 157.831 220.637 157.391 220.763 156.963C220.833 156.739 220.92 156.523 221.017 156.29C221.133 156.025 221.341 155.808 221.603 155.678C221.754 155.611 221.924 155.598 222.083 155.641C222.243 155.683 222.383 155.778 222.479 155.911C222.62 156.143 222.695 156.408 222.698 156.679C222.78 157.858 222.641 159.043 222.287 160.173C222.128 160.84 221.823 161.464 221.393 162.002Z" fill="#263238"/>
<path d="M221.447 161.735C221.447 161.795 220.808 161.493 219.757 161.243C219.147 161.101 218.525 161.017 217.9 160.993C217.542 160.967 217.182 160.991 216.831 161.062C216.675 161.079 216.529 161.147 216.417 161.255C216.304 161.363 216.231 161.504 216.209 161.657C216.203 161.818 216.24 161.978 216.317 162.121C216.394 162.263 216.508 162.383 216.647 162.468C216.939 162.647 217.269 162.756 217.611 162.787C218.227 162.843 218.848 162.781 219.441 162.606C219.992 162.402 220.557 162.238 221.132 162.114C220.654 162.474 220.114 162.746 219.538 162.917C218.907 163.143 218.237 163.24 217.567 163.202C217.152 163.174 216.75 163.05 216.393 162.839C216.186 162.711 216.018 162.53 215.906 162.316C215.793 162.102 215.741 161.863 215.754 161.623C215.783 161.375 215.894 161.144 216.07 160.965C216.246 160.786 216.476 160.668 216.726 160.63C217.119 160.558 217.52 160.541 217.917 160.578C218.572 160.618 219.219 160.737 219.844 160.932C220.435 161.071 220.984 161.346 221.447 161.735Z" fill="#263238"/>
<path d="M237.783 177.146C237.783 177.146 237.345 176.887 237.144 176.154C236.935 175.2 237.111 174.204 237.634 173.375C237.89 172.927 238.183 172.499 238.51 172.098C238.756 171.749 239.051 171.435 239.386 171.166C239.619 170.973 239.906 170.852 240.209 170.821C240.428 170.821 240.542 170.821 240.533 170.89C240.185 170.989 239.864 171.166 239.596 171.408C239.314 171.693 239.062 172.005 238.843 172.34C238.55 172.741 238.281 173.159 238.037 173.591C237.57 174.336 237.366 175.213 237.459 176.085C237.549 176.444 237.657 176.798 237.783 177.146Z" fill="#263238"/>
<path d="M228.453 170.278C228.41 169.832 228.467 169.381 228.618 168.958C228.769 168.535 229.012 168.149 229.329 167.828C229.593 167.46 229.933 167.151 230.327 166.922C230.721 166.693 231.16 166.549 231.615 166.499C231.667 166.628 230.572 167.051 229.688 168.121C229.211 168.802 228.798 169.524 228.453 170.278Z" fill="#263238"/>
<path d="M209.823 165.739C210.222 165.967 210.602 166.224 210.962 166.507C211.99 167.215 213.06 167.86 214.168 168.44C215.809 169.296 217.506 170.042 219.248 170.674C221.219 171.399 223.426 172.081 225.756 172.745C230.434 174.066 234.664 175.282 237.713 176.197L241.321 177.284C241.768 177.402 242.205 177.555 242.627 177.741C242.168 177.691 241.717 177.595 241.278 177.457L237.625 176.499C234.551 175.636 230.302 174.514 225.625 173.185C223.295 172.521 221.079 171.822 219.099 171.071C217.346 170.419 215.645 169.637 214.01 168.733C212.91 168.119 211.856 167.427 210.857 166.662C210.48 166.392 210.133 166.082 209.823 165.739Z" fill="#263238"/>
<path d="M208.859 166.084C209.555 165.774 210.297 165.579 211.057 165.506C212.901 165.164 214.807 165.393 216.514 166.162C217.444 166.625 218.247 167.303 218.853 168.137C219.338 168.804 219.747 169.522 220.07 170.277C220.407 170.953 220.648 171.669 220.789 172.409C220.407 171.766 220.068 171.101 219.773 170.415C219.077 168.795 217.862 167.443 216.313 166.567C214.667 165.837 212.845 165.58 211.057 165.825C209.717 165.963 208.867 166.153 208.859 166.084Z" fill="#263238"/>
<path d="M162.831 114.632C162.831 114.632 155.035 117.368 155 125.979C154.939 142.468 188.819 160.64 188.819 160.64L233.912 131.208L236.732 130.086C236.732 130.086 175.873 107.566 162.831 114.632Z" fill="#263238"/>
<path d="M211.068 146.075C210.655 145.845 210.263 145.583 209.894 145.29C209.158 144.763 208.142 143.978 206.811 142.994C204.227 141.036 200.679 138.249 196.939 135.047C193.199 131.846 189.836 128.852 187.471 126.635C186.288 125.53 185.342 124.624 184.703 123.986C184.353 123.67 184.031 123.326 183.739 122.959C184.129 123.21 184.493 123.499 184.825 123.822L187.646 126.402C190.063 128.559 193.427 131.518 197.193 134.711C200.96 137.903 204.446 140.751 206.969 142.744L209.964 145.152C210.359 145.427 210.728 145.736 211.068 146.075Z" fill="#455A64"/>
<path d="M175.557 120.802C178.505 120.494 181.456 121.35 183.764 123.183C183.685 123.304 182.012 122.277 179.77 121.621C177.528 120.966 175.557 120.931 175.557 120.802Z" fill="#455A64"/>
<path d="M179.437 118.213C180.519 118.573 181.456 119.265 182.109 120.188C182.889 121.014 183.383 122.063 183.519 123.183C183.388 123.226 182.888 121.845 181.767 120.473C180.646 119.101 179.367 118.307 179.437 118.213Z" fill="#455A64"/>
<path d="M160.353 170.398C160.353 170.346 160.887 170.243 161.509 170.743C162.248 171.422 162.712 172.342 162.814 173.332C162.961 174.3 162.818 175.29 162.402 176.179C162.087 176.852 161.737 177.163 161.693 177.137C161.649 177.111 161.877 176.714 162.105 176.059C162.4 175.202 162.487 174.288 162.359 173.392C162.257 172.506 161.887 171.671 161.299 170.994C161.02 170.744 160.7 170.543 160.353 170.398Z" fill="#263238"/>
<path d="M173.2 87.6934L189.256 127.79L258.401 128.904L259.68 125.219L235.443 124.356L223.802 88.7806L173.2 87.6934Z" fill="#455A64"/>
<path d="M205.485 105.054C204.957 104.79 204.363 104.682 203.774 104.743C203.184 104.804 202.626 105.032 202.166 105.4C201.773 105.764 201.5 106.235 201.383 106.754C201.266 107.272 201.309 107.814 201.509 108.307C201.724 108.793 202.071 109.211 202.511 109.515C202.952 109.819 203.468 109.999 204.005 110.033C204.574 110.065 205.137 109.914 205.611 109.603C206.085 109.291 206.444 108.837 206.633 108.307C206.816 107.714 206.802 107.078 206.593 106.492C206.383 105.907 205.989 105.403 205.468 105.054" fill="#EBEBEB"/>
<path d="M184.553 162.642C184.553 162.642 248.259 121.484 250.86 120.629C253.461 119.775 259.777 115.702 266.075 117.411C272.373 119.119 278.031 124.693 280.86 132.83C282.472 137.481 283.234 145.411 283.593 151.356C284.084 158.477 281.744 165.508 277.068 170.96C274.992 173.5 272.242 175.424 269.123 176.517C268.457 176.715 267.774 176.888 267.065 177.043C261.151 178.238 255.01 177.646 249.444 175.344C243.878 173.042 239.148 169.138 235.873 164.143L234.393 161.917C234.393 161.917 192.716 176.991 192.068 176.784L184.553 162.642Z" fill="#263238"/>
<path d="M263.361 151.312C263.361 151.312 263.247 151.373 263.011 151.468L261.969 151.873L257.931 153.4L242.926 158.974C236.549 161.321 228.911 164.1 220.345 167.172C211.778 170.243 202.283 173.609 192.14 176.991L191.956 177.051L191.86 176.887C190.274 173.893 188.593 170.727 186.885 167.525L184.353 162.745L184.257 162.564L184.432 162.452L233.019 132.071L247.621 122.993L251.589 120.56L252.623 119.939L252.982 119.74C252.875 119.823 252.764 119.901 252.649 119.973L251.641 120.638L247.717 123.14L233.195 132.329L184.686 162.831L184.765 162.538L187.305 167.31C189.004 170.52 190.686 173.678 192.28 176.68L192 176.568C202.134 173.194 211.638 169.847 220.213 166.801L242.83 158.69L257.887 153.254L261.951 151.796L263.011 151.424L263.361 151.312Z" fill="#455A64"/>
</svg>
