<svg width="1057" height="220" viewBox="0 0 1057 220" fill="none" xmlns="http://www.w3.org/2000/svg">
<rect width="1057" height="220" rx="12" fill="#141517"/>
<line opacity="0.2" x1="271.5" y1="220" x2="271.5" y2="12" stroke="#525F69"/>
<line opacity="0.2" x1="184.5" y1="46" x2="184.5" y2="12" stroke="#525F69"/>
<path d="M279.89 21.19C281.47 20.21 282.97 18.76 282.97 17.06C282.97 15.73 282.1 14.93 280.85 14.93C279.37 14.93 278.56 16.05 278.56 17.39L279.41 17.45C279.43 16.52 279.84 15.76 280.84 15.76C281.67 15.76 282.1 16.29 282.1 17.08C282.1 18.86 279.94 20.31 278.44 21.24V22H283.28V21.19H279.89ZM286.642 22.1C288.332 22.1 288.862 20.38 288.862 18.53C288.862 16.68 288.312 14.93 286.572 14.93C284.662 14.93 284.352 16.92 284.352 18.52C284.352 20.12 284.682 22.1 286.642 22.1ZM286.622 21.28C285.402 21.28 285.232 19.88 285.232 18.52C285.232 17.13 285.402 15.75 286.572 15.75C287.722 15.75 287.932 17.05 287.932 18.52C287.932 19.94 287.732 21.28 286.622 21.28ZM292.346 22.1C294.036 22.1 294.566 20.38 294.566 18.53C294.566 16.68 294.016 14.93 292.276 14.93C290.366 14.93 290.056 16.92 290.056 18.52C290.056 20.12 290.386 22.1 292.346 22.1ZM292.326 21.28C291.106 21.28 290.936 19.88 290.936 18.52C290.936 17.13 291.106 15.75 292.276 15.75C293.426 15.75 293.636 17.05 293.636 18.52C293.636 19.94 293.436 21.28 292.326 21.28Z" fill="#525F69"/>
<path d="M193.91 22.1C195.6 22.1 196.13 20.38 196.13 18.53C196.13 16.68 195.58 14.93 193.84 14.93C191.93 14.93 191.62 16.92 191.62 18.52C191.62 20.12 191.95 22.1 193.91 22.1ZM193.89 21.28C192.67 21.28 192.5 19.88 192.5 18.52C192.5 17.13 192.67 15.75 193.84 15.75C194.99 15.75 195.2 17.05 195.2 18.52C195.2 19.94 195 21.28 193.89 21.28Z" fill="#525F69"/>
<path d="M506.44 19.52V15.03H505.66L502.16 19.81V20.35H505.58V22H506.44V20.35H507.56V19.52H506.44ZM503.28 19.52L505.58 16.29V19.52H503.28ZM510.642 22.1C512.332 22.1 512.862 20.38 512.862 18.53C512.862 16.68 512.312 14.93 510.572 14.93C508.662 14.93 508.352 16.92 508.352 18.52C508.352 20.12 508.682 22.1 510.642 22.1ZM510.622 21.28C509.402 21.28 509.232 19.88 509.232 18.52C509.232 17.13 509.402 15.75 510.572 15.75C511.722 15.75 511.932 17.05 511.932 18.52C511.932 19.94 511.732 21.28 510.622 21.28ZM516.346 22.1C518.036 22.1 518.566 20.38 518.566 18.53C518.566 16.68 518.016 14.93 516.276 14.93C514.366 14.93 514.056 16.92 514.056 18.52C514.056 20.12 514.386 22.1 516.346 22.1ZM516.326 21.28C515.106 21.28 514.936 19.88 514.936 18.52C514.936 17.13 515.106 15.75 516.276 15.75C517.426 15.75 517.636 17.05 517.636 18.52C517.636 19.94 517.436 21.28 516.326 21.28Z" fill="#525F69"/>
<path d="M729.26 17.44C728.95 17.4 728.63 17.43 728.34 17.51L729.89 15.03H728.91L726.82 18.48C726.59 18.85 726.45 19.3 726.45 19.74C726.45 21.06 727.54 22.09 728.88 22.09C730.21 22.09 731.3 21.06 731.3 19.73C731.3 18.53 730.44 17.57 729.26 17.44ZM728.88 21.26C728.01 21.26 727.32 20.6 727.32 19.73C727.32 18.86 728.02 18.2 728.88 18.2C729.73 18.2 730.43 18.86 730.43 19.73C730.43 20.6 729.73 21.26 728.88 21.26ZM734.642 22.1C736.332 22.1 736.862 20.38 736.862 18.53C736.862 16.68 736.312 14.93 734.572 14.93C732.662 14.93 732.352 16.92 732.352 18.52C732.352 20.12 732.682 22.1 734.642 22.1ZM734.622 21.28C733.402 21.28 733.232 19.88 733.232 18.52C733.232 17.13 733.402 15.75 734.572 15.75C735.722 15.75 735.932 17.05 735.932 18.52C735.932 19.94 735.732 21.28 734.622 21.28ZM740.346 22.1C742.036 22.1 742.566 20.38 742.566 18.53C742.566 16.68 742.016 14.93 740.276 14.93C738.366 14.93 738.056 16.92 738.056 18.52C738.056 20.12 738.386 22.1 740.346 22.1ZM740.326 21.28C739.106 21.28 738.936 19.88 738.936 18.52C738.936 17.13 739.106 15.75 740.276 15.75C741.426 15.75 741.636 17.05 741.636 18.52C741.636 19.94 741.436 21.28 740.326 21.28Z" fill="#525F69"/>
<path d="M952.87 22.09C954.11 22.09 955.29 21.39 955.29 20C955.29 19.17 954.86 18.51 954.1 18.21C954.59 17.95 954.93 17.44 954.93 16.79C954.93 15.65 953.98 14.94 952.88 14.94C951.83 14.94 950.81 15.61 950.81 16.76C950.81 17.42 951.14 17.93 951.64 18.21C950.88 18.51 950.44 19.16 950.44 20C950.44 21.4 951.63 22.09 952.87 22.09ZM952.88 17.96C952.16 17.96 951.67 17.53 951.67 16.83C951.67 16.17 952.21 15.77 952.88 15.77C953.58 15.77 954.08 16.21 954.08 16.85C954.08 17.53 953.58 17.96 952.88 17.96ZM952.87 21.27C952.02 21.27 951.3 20.82 951.3 19.93C951.3 19.08 951.95 18.56 952.87 18.56C953.79 18.56 954.44 19.08 954.44 19.93C954.44 20.82 953.72 21.27 952.87 21.27ZM958.613 22.1C960.303 22.1 960.833 20.38 960.833 18.53C960.833 16.68 960.283 14.93 958.543 14.93C956.633 14.93 956.323 16.92 956.323 18.52C956.323 20.12 956.653 22.1 958.613 22.1ZM958.593 21.28C957.373 21.28 957.203 19.88 957.203 18.52C957.203 17.13 957.373 15.75 958.543 15.75C959.693 15.75 959.903 17.05 959.903 18.52C959.903 19.94 959.703 21.28 958.593 21.28ZM964.316 22.1C966.006 22.1 966.536 20.38 966.536 18.53C966.536 16.68 965.986 14.93 964.246 14.93C962.336 14.93 962.026 16.92 962.026 18.52C962.026 20.12 962.356 22.1 964.316 22.1ZM964.296 21.28C963.076 21.28 962.906 19.88 962.906 18.52C962.906 17.13 963.076 15.75 964.246 15.75C965.396 15.75 965.606 17.05 965.606 18.52C965.606 19.94 965.406 21.28 964.296 21.28Z" fill="#525F69"/>
<line opacity="0.2" x1="495.5" y1="220" x2="495.5" y2="12" stroke="#525F69"/>
<line opacity="0.2" x1="719.5" y1="220" x2="719.5" y2="12" stroke="#525F69"/>
<line opacity="0.2" x1="943.5" y1="220" x2="943.5" y2="12" stroke="#525F69"/>
<path d="M9.056 32H14.624V30.62H10.556V28.388H14.336V27.008H10.556V25.016H14.624V23.636H9.056V32ZM21.5282 23.636L19.2842 29.552L17.0282 23.636H15.3722L18.7202 32H19.8482L23.1842 23.636H21.5282ZM24.2904 32H29.8584V30.62H25.7904V28.388H29.5704V27.008H25.7904V25.016H29.8584V23.636H24.2904V32ZM36.6786 23.636V29.396L33.1626 23.636H31.6146V32H33.1146V26.216L36.6186 32H38.1786V23.636H36.6786ZM41.9425 32H43.4545V25.016H46.0705V23.636H39.3265V25.016H41.9425V32Z" fill="white"/>
<path d="M131.498 18H133.13L129.794 9.636H128.666L125.318 18H126.95L127.586 16.272H130.862L131.498 18ZM128.102 14.892L129.23 11.844L130.358 14.892H128.102ZM138.645 9.636L136.401 15.552L134.145 9.636H132.489L135.837 18H136.965L140.301 9.636H138.645ZM141.408 18H146.976V16.62H142.908V14.388H146.688V13.008H142.908V11.016H146.976V9.636H141.408V18ZM155.02 18L152.764 14.352C153.76 14.016 154.312 13.248 154.312 12.048C154.312 10.548 153.46 9.636 151.468 9.636H148.732V18H150.22V14.532H150.772H151.276L153.28 18H155.02ZM150.22 13.152V11.016H151.312C152.284 11.016 152.812 11.256 152.812 12.072C152.812 12.888 152.284 13.152 151.312 13.152H150.22ZM161.345 18H162.977L159.641 9.636H158.513L155.165 18H156.797L157.433 16.272H160.709L161.345 18ZM157.949 14.892L159.077 11.844L160.205 14.892H157.949ZM167.561 13.476V14.856H169.433V14.964C169.433 16.092 168.641 16.752 167.297 16.752C165.593 16.752 164.573 15.696 164.573 13.788C164.573 11.952 165.521 10.872 167.129 10.872C168.257 10.872 169.085 11.4 169.457 12.432L170.837 11.892C170.225 10.308 168.857 9.444 167.153 9.444C164.645 9.444 163.073 11.316 163.073 13.8C163.073 16.452 164.861 18.18 167.201 18.18C168.281 18.18 169.181 17.808 169.673 17.136L169.853 18H170.921V13.476H167.561ZM172.732 18H178.3V16.62H174.232V14.388H178.012V13.008H174.232V11.016H178.3V9.636H172.732V18ZM133.134 32.644C134.574 31.756 136.182 30.004 136.182 28.12C136.182 26.56 135.09 25.528 133.554 25.528C131.694 25.528 130.686 27.04 130.686 28.576L132.102 28.684C132.138 27.82 132.474 26.92 133.53 26.92C134.358 26.92 134.742 27.472 134.742 28.228C134.742 30.184 132.15 31.912 130.674 32.812V34H136.53V32.644H133.134ZM138.161 34H140.573C143.405 34 144.941 32.548 144.941 29.884C144.941 27.172 143.357 25.636 140.585 25.636H138.161V34ZM139.661 32.62V27.016H140.561C142.541 27.016 143.429 27.892 143.429 29.824C143.429 31.792 142.541 32.62 140.429 32.62H139.661ZM149.376 34H154.452V32.62H150.876V25.636H149.376V34ZM158.737 34.18C161.113 34.18 162.733 32.44 162.733 29.824C162.733 27.196 161.125 25.456 158.737 25.456C156.361 25.456 154.741 27.196 154.741 29.824C154.741 32.44 156.361 34.18 158.737 34.18ZM158.737 32.752C157.213 32.752 156.241 31.636 156.241 29.824C156.241 28 157.213 26.884 158.737 26.884C160.261 26.884 161.233 28.012 161.233 29.824C161.233 31.624 160.261 32.752 158.737 32.752ZM169.021 34H170.653L167.317 25.636H166.189L162.841 34H164.473L165.109 32.272H168.385L169.021 34ZM165.625 30.892L166.753 27.844L167.881 30.892H165.625ZM171.759 34H174.171C177.003 34 178.539 32.548 178.539 29.884C178.539 27.172 176.955 25.636 174.183 25.636H171.759V34ZM173.259 32.62V27.016H174.159C176.139 27.016 177.027 27.892 177.027 29.824C177.027 31.792 176.139 32.62 174.027 32.62H173.259Z" fill="white"/>
<path d="M8 50C8 47.7909 9.79086 46 12 46H184V76H8V50Z" fill="#FFDD03"/>
<path d="M185 46H1045C1047.21 46 1049 47.7909 1049 50V72C1049 74.2091 1047.21 76 1045 76H185V46Z" fill="url(#paint0_linear)"/>
<path d="M185 80H587C589.209 80 591 81.7909 591 84V106C591 108.209 589.209 110 587 110H185V80Z" fill="url(#paint1_linear)"/>
<path d="M185 114H893C895.209 114 897 115.791 897 118V140C897 142.209 895.209 144 893 144H185V114Z" fill="url(#paint2_linear)"/>
<path d="M185 148H665C667.209 148 669 149.791 669 152V174C669 176.209 667.209 178 665 178H185V148Z" fill="url(#paint3_linear)"/>
<path d="M185 182H372C374.209 182 376 183.791 376 186V208C376 210.209 374.209 212 372 212H185V182Z" fill="url(#paint4_linear)"/>
<path d="M8 80H96H184V110H8V80Z" fill="#FFDD03"/>
<path d="M15.888 89H16.592L17.952 84.856L19.296 89H20.008L21.64 83.424H20.888L19.608 87.928L18.256 83.728H17.632L16.28 87.928L14.992 83.424H14.256L15.888 89ZM22.7384 89H26.4184V88.344H23.4504V86.48H26.1464V85.824H23.4504V84.08H26.4184V83.424H22.7384V89ZM27.7384 89H29.2824C31.1384 89 32.1544 88.032 32.1544 86.256C32.1544 84.456 31.1144 83.424 29.2904 83.424H27.7384V89ZM28.4504 88.344V84.08H29.2744C30.7224 84.08 31.4344 84.792 31.4344 86.224C31.4344 87.664 30.7224 88.344 29.2184 88.344H28.4504ZM33.2174 90.224H33.6814L34.7214 87.968H33.8734L33.2174 90.224ZM39.6249 83.424V83.848C39.6249 84.192 39.4409 84.312 39.1289 84.312H38.2649V84.944H39.6249V89H40.3129V83.424H39.6249ZM42.1708 83.424V84.08H45.3148L42.7468 89H43.5308L46.1708 83.824V83.424H42.1708ZM49.4103 89H50.9543C52.8103 89 53.8263 88.032 53.8263 86.256C53.8263 84.456 52.7863 83.424 50.9623 83.424H49.4103V89ZM50.1223 88.344V84.08H50.9463C52.3943 84.08 53.1063 84.792 53.1063 86.224C53.1063 87.664 52.3943 88.344 50.8903 88.344H50.1223ZM55.1213 89H58.8012V88.344H55.8333V86.48H58.5293V85.824H55.8333V84.08H58.8012V83.424H55.1213V89ZM62.3453 89.096C63.4813 89.096 64.3293 88.544 64.7373 87.504L64.0653 87.256C63.7773 88.024 63.1773 88.416 62.3453 88.416C61.1533 88.416 60.4653 87.608 60.4653 86.2C60.4653 84.8 61.1533 84.008 62.3693 84.008C63.2093 84.008 63.7853 84.376 64.0653 85.144L64.7213 84.888C64.3293 83.856 63.5052 83.328 62.3693 83.328C60.7453 83.328 59.7533 84.416 59.7533 86.2C59.7533 88 60.7373 89.096 62.3453 89.096ZM15.056 105H16.556V101.388H20.216V105H21.716V96.636H20.216V100.008H16.556V96.636H15.056V105ZM27.2413 105.18C29.6173 105.18 31.2373 103.44 31.2373 100.824C31.2373 98.196 29.6293 96.456 27.2413 96.456C24.8653 96.456 23.2453 98.196 23.2453 100.824C23.2453 103.44 24.8653 105.18 27.2413 105.18ZM27.2413 103.752C25.7173 103.752 24.7453 102.636 24.7453 100.824C24.7453 99 25.7173 97.884 27.2413 97.884C28.7653 97.884 29.7373 99.012 29.7373 100.824C29.7373 102.624 28.7653 103.752 27.2413 103.752ZM39.219 96.636L37.059 102.528L34.911 96.636H32.763V105H34.263V98.748L36.339 104.268H37.791L39.867 98.748V105H41.367V96.636H39.219ZM43.474 105H49.042V103.62H44.974V101.388H48.754V100.008H44.974V98.016H49.042V96.636H43.474V105ZM57.6042 100.476V101.856H59.4762V101.964C59.4762 103.092 58.6842 103.752 57.3402 103.752C55.6362 103.752 54.6162 102.696 54.6162 100.788C54.6162 98.952 55.5642 97.872 57.1722 97.872C58.3002 97.872 59.1282 98.4 59.5002 99.432L60.8802 98.892C60.2682 97.308 58.9002 96.444 57.1962 96.444C54.6882 96.444 53.1162 98.316 53.1162 100.8C53.1162 103.452 54.9042 105.18 57.2442 105.18C58.3242 105.18 59.2242 104.808 59.7162 104.136L59.8962 105H60.9642V100.476H57.6042ZM67.9468 105H69.5788L66.2428 96.636H65.1148L61.7668 105H63.3988L64.0348 103.272H67.3108L67.9468 105ZM64.5508 101.892L65.6788 98.844L66.8068 101.892H64.5508ZM77.1409 96.636L74.9809 102.528L72.8329 96.636H70.6849V105H72.1849V98.748L74.2609 104.268H75.7129L77.7889 98.748V105H79.2889V96.636H77.1409ZM81.3958 105H86.9638V103.62H82.8958V101.388H86.6758V100.008H82.8958V98.016H86.9638V96.636H81.3958V105Z" fill="black"/>
<path d="M162.79 92.03V92.45C162.79 92.92 162.57 93.12 162.09 93.12H161.16V94.12H162.79V99H163.99V92.03H162.79ZM168.409 97.87C169.609 97.13 170.949 95.67 170.949 94.1C170.949 92.8 170.039 91.94 168.759 91.94C167.209 91.94 166.369 93.2 166.369 94.48L167.549 94.57C167.579 93.85 167.859 93.1 168.739 93.1C169.429 93.1 169.749 93.56 169.749 94.19C169.749 95.82 167.589 97.26 166.359 98.01V99H171.239V97.87H168.409ZM172.149 92.03V93.18H175.659L172.709 99H174.089L177.179 92.67V92.03H172.149Z" fill="black"/>
<path d="M8 114H96H184V144H8V114Z" fill="#FFDD03"/>
<path d="M16.072 123H16.792V118.08H18.664V117.424H14.2V118.08H16.072V123ZM21.643 123.096C22.979 123.096 23.691 122.36 23.691 120.944V117.424H22.979V120.896C22.979 121.936 22.571 122.4 21.643 122.4C20.723 122.4 20.315 121.944 20.315 120.912V117.424H19.603V120.984C19.603 122.368 20.315 123.096 21.643 123.096ZM25.2619 123H28.9419V122.344H25.9739V120.48H28.6699V119.824H25.9739V118.08H28.9419V117.424H25.2619V123ZM30.0299 124.224H30.4939L31.5339 121.968H30.6859L30.0299 124.224ZM35.6214 122.352C36.8854 121.568 38.0854 120.408 38.0854 119.048C38.0854 117.984 37.3894 117.344 36.3894 117.344C35.2054 117.344 34.5574 118.24 34.5574 119.312L35.2374 119.36C35.2534 118.616 35.5814 118.008 36.3814 118.008C37.0454 118.008 37.3894 118.432 37.3894 119.064C37.3894 120.488 35.6614 121.648 34.4614 122.392V123H38.3334V122.352H35.6214ZM41.0233 117.424V117.848C41.0233 118.192 40.8393 118.312 40.5273 118.312H39.6633V118.944H41.0233V123H41.7113V117.424H41.0233ZM46.2228 123H47.7668C49.6228 123 50.6388 122.032 50.6388 120.256C50.6388 118.456 49.5988 117.424 47.7748 117.424H46.2228V123ZM46.9348 122.344V118.08H47.7588C49.2068 118.08 49.9188 118.792 49.9188 120.224C49.9188 121.664 49.2068 122.344 47.7028 122.344H46.9348ZM51.9338 123H55.6137V122.344H52.6458V120.48H55.3418V119.824H52.6458V118.08H55.6137V117.424H51.9338V123ZM59.1578 123.096C60.2938 123.096 61.1418 122.544 61.5498 121.504L60.8778 121.256C60.5898 122.024 59.9898 122.416 59.1578 122.416C57.9658 122.416 57.2778 121.608 57.2778 120.2C57.2778 118.8 57.9658 118.008 59.1818 118.008C60.0218 118.008 60.5978 118.376 60.8778 119.144L61.5338 118.888C61.1418 117.856 60.3177 117.328 59.1818 117.328C57.5578 117.328 56.5658 118.416 56.5658 120.2C56.5658 122 57.5498 123.096 59.1578 123.096ZM15.056 139H16.556V135.388H20.216V139H21.716V130.636H20.216V134.008H16.556V130.636H15.056V139ZM27.2413 139.18C29.6173 139.18 31.2373 137.44 31.2373 134.824C31.2373 132.196 29.6293 130.456 27.2413 130.456C24.8653 130.456 23.2453 132.196 23.2453 134.824C23.2453 137.44 24.8653 139.18 27.2413 139.18ZM27.2413 137.752C25.7173 137.752 24.7453 136.636 24.7453 134.824C24.7453 133 25.7173 131.884 27.2413 131.884C28.7653 131.884 29.7373 133.012 29.7373 134.824C29.7373 136.624 28.7653 137.752 27.2413 137.752ZM39.219 130.636L37.059 136.528L34.911 130.636H32.763V139H34.263V132.748L36.339 138.268H37.791L39.867 132.748V139H41.367V130.636H39.219ZM43.474 139H49.042V137.62H44.974V135.388H48.754V134.008H44.974V132.016H49.042V130.636H43.474V139ZM57.6042 134.476V135.856H59.4762V135.964C59.4762 137.092 58.6842 137.752 57.3402 137.752C55.6362 137.752 54.6162 136.696 54.6162 134.788C54.6162 132.952 55.5642 131.872 57.1722 131.872C58.3002 131.872 59.1282 132.4 59.5002 133.432L60.8802 132.892C60.2682 131.308 58.9002 130.444 57.1962 130.444C54.6882 130.444 53.1162 132.316 53.1162 134.8C53.1162 137.452 54.9042 139.18 57.2442 139.18C58.3242 139.18 59.2242 138.808 59.7162 138.136L59.8962 139H60.9642V134.476H57.6042ZM67.9468 139H69.5788L66.2428 130.636H65.1148L61.7668 139H63.3988L64.0348 137.272H67.3108L67.9468 139ZM64.5508 135.892L65.6788 132.844L66.8068 135.892H64.5508ZM77.1409 130.636L74.9809 136.528L72.8329 130.636H70.6849V139H72.1849V132.748L74.2609 138.268H75.7129L77.7889 132.748V139H79.2889V130.636H77.1409ZM81.3958 139H86.9638V137.62H82.8958V135.388H86.6758V134.008H82.8958V132.016H86.9638V130.636H81.3958V139Z" fill="black"/>
<path d="M163.07 128.21C162.75 128.21 162.37 128.27 161.99 128.51L162.24 127.18H165.13V126.03H161.25L160.58 129.7L161.71 129.98C161.94 129.62 162.32 129.33 162.91 129.33C163.79 129.33 164.17 129.92 164.17 130.57C164.17 131.25 163.76 131.95 162.88 131.95C162.05 131.95 161.62 131.36 161.55 130.79L160.37 130.99C160.54 132.16 161.55 133.1 162.89 133.1C164.38 133.1 165.44 131.9 165.44 130.57C165.44 129.3 164.47 128.21 163.07 128.21ZM168.649 126.03V126.45C168.649 126.92 168.429 127.12 167.949 127.12H167.019V128.12H168.649V133H169.849V126.03H168.649ZM174.849 128.27C174.729 128.27 174.619 128.28 174.499 128.29L175.969 126.03H174.589L172.509 129.38C172.259 129.78 172.119 130.23 172.119 130.68C172.119 132.11 173.269 133.1 174.669 133.1C176.059 133.1 177.199 132.11 177.199 130.67C177.199 129.31 176.279 128.27 174.849 128.27ZM174.669 131.95C173.929 131.95 173.349 131.47 173.349 130.67C173.349 129.87 173.929 129.39 174.669 129.39C175.399 129.39 175.979 129.87 175.979 130.67C175.979 131.47 175.399 131.95 174.669 131.95Z" fill="black"/>
<path d="M8 148H96H184V178H8V148Z" fill="#FFDD03"/>
<path d="M19.264 151.424L17.568 155.712L15.872 151.424H14.84V157H15.552V152.376L17.224 156.528H17.92L19.576 152.392V157H20.296V151.424H19.264ZM24.1808 157.096C25.7328 157.096 26.7728 155.944 26.7728 154.216C26.7728 152.48 25.7328 151.328 24.1808 151.328C22.6368 151.328 21.5968 152.48 21.5968 154.216C21.5968 155.944 22.6368 157.096 24.1808 157.096ZM24.1808 156.416C23.0368 156.416 22.3088 155.56 22.3088 154.216C22.3088 152.864 23.0368 152.008 24.1808 152.008C25.3248 152.008 26.0608 152.864 26.0608 154.216C26.0608 155.56 25.3248 156.416 24.1808 156.416ZM31.4504 151.424V155.768L28.8344 151.424H28.0744V157H28.7864V152.64L31.3944 157H32.1624V151.424H31.4504ZM33.84 157H35.384C37.24 157 38.256 156.032 38.256 154.256C38.256 152.456 37.216 151.424 35.392 151.424H33.84V157ZM34.552 156.344V152.08H35.376C36.824 152.08 37.536 152.792 37.536 154.224C37.536 155.664 36.824 156.344 35.32 156.344H34.552ZM42.7324 157H43.5164L41.3804 151.424H40.8204L38.6844 157H39.4684L39.9644 155.616H42.2364L42.7324 157ZM40.1964 154.984L41.1004 152.456L42.0044 154.984H40.1964ZM45.3269 157H46.0389V154.848L48.1589 151.424H47.3109L45.6709 154.16L44.0389 151.424H43.1989L45.3269 154.848V157ZM48.9205 158.224H49.3845L50.4245 155.968H49.5765L48.9205 158.224ZM54.512 156.352C55.776 155.568 56.976 154.408 56.976 153.048C56.976 151.984 56.28 151.344 55.28 151.344C54.096 151.344 53.448 152.24 53.448 153.312L54.128 153.36C54.144 152.616 54.472 152.008 55.272 152.008C55.936 152.008 56.28 152.432 56.28 153.064C56.28 154.488 54.552 155.648 53.352 156.392V157H57.224V156.352H54.512ZM57.8739 151.424V152.08H61.0179L58.4499 157H59.2339L61.8739 151.824V151.424H57.8739ZM65.1134 157H66.6574C68.5134 157 69.5294 156.032 69.5294 154.256C69.5294 152.456 68.4894 151.424 66.6654 151.424H65.1134V157ZM65.8254 156.344V152.08H66.6494C68.0974 152.08 68.8094 152.792 68.8094 154.224C68.8094 155.664 68.0974 156.344 66.5934 156.344H65.8254ZM70.8244 157H74.5044V156.344H71.5364V154.48H74.2324V153.824H71.5364V152.08H74.5044V151.424H70.8244V157ZM78.0484 157.096C79.1844 157.096 80.0324 156.544 80.4404 155.504L79.7684 155.256C79.4804 156.024 78.8804 156.416 78.0484 156.416C76.8564 156.416 76.1684 155.608 76.1684 154.2C76.1684 152.8 76.8564 152.008 78.0724 152.008C78.9124 152.008 79.4884 152.376 79.7684 153.144L80.4244 152.888C80.0324 151.856 79.2084 151.328 78.0724 151.328C76.4484 151.328 75.4564 152.416 75.4564 154.2C75.4564 156 76.4404 157.096 78.0484 157.096ZM15.056 173H16.556V169.388H20.216V173H21.716V164.636H20.216V168.008H16.556V164.636H15.056V173ZM27.2413 173.18C29.6173 173.18 31.2373 171.44 31.2373 168.824C31.2373 166.196 29.6293 164.456 27.2413 164.456C24.8653 164.456 23.2453 166.196 23.2453 168.824C23.2453 171.44 24.8653 173.18 27.2413 173.18ZM27.2413 171.752C25.7173 171.752 24.7453 170.636 24.7453 168.824C24.7453 167 25.7173 165.884 27.2413 165.884C28.7653 165.884 29.7373 167.012 29.7373 168.824C29.7373 170.624 28.7653 171.752 27.2413 171.752ZM39.219 164.636L37.059 170.528L34.911 164.636H32.763V173H34.263V166.748L36.339 172.268H37.791L39.867 166.748V173H41.367V164.636H39.219ZM43.474 173H49.042V171.62H44.974V169.388H48.754V168.008H44.974V166.016H49.042V164.636H43.474V173ZM57.6042 168.476V169.856H59.4762V169.964C59.4762 171.092 58.6842 171.752 57.3402 171.752C55.6362 171.752 54.6162 170.696 54.6162 168.788C54.6162 166.952 55.5642 165.872 57.1722 165.872C58.3002 165.872 59.1282 166.4 59.5002 167.432L60.8802 166.892C60.2682 165.308 58.9002 164.444 57.1962 164.444C54.6882 164.444 53.1162 166.316 53.1162 168.8C53.1162 171.452 54.9042 173.18 57.2442 173.18C58.3242 173.18 59.2242 172.808 59.7162 172.136L59.8962 173H60.9642V168.476H57.6042ZM67.9468 173H69.5788L66.2428 164.636H65.1148L61.7668 173H63.3988L64.0348 171.272H67.3108L67.9468 173ZM64.5508 169.892L65.6788 166.844L66.8068 169.892H64.5508ZM77.1409 164.636L74.9809 170.528L72.8329 164.636H70.6849V173H72.1849V166.748L74.2609 172.268H75.7129L77.7889 166.748V173H79.2889V164.636H77.1409ZM81.3958 173H86.9638V171.62H82.8958V169.388H86.6758V168.008H82.8958V166.016H86.9638V164.636H81.3958V173Z" fill="black"/>
<path d="M162.88 167.1C164.24 167.1 165.46 166.36 165.46 164.95C165.46 164.19 165.11 163.48 164.28 163.22C164.87 162.9 165.09 162.38 165.09 161.84C165.09 160.64 164.02 159.93 162.86 159.93C161.66 159.93 160.63 160.69 160.63 162L161.81 162.08C161.82 161.45 162.24 161.08 162.88 161.08C163.44 161.08 163.89 161.37 163.89 161.99C163.89 162.53 163.54 162.88 162.57 162.88V163.83C163.32 163.83 164.26 163.86 164.26 164.82C164.26 165.62 163.62 165.95 162.91 165.95C162.09 165.95 161.48 165.52 161.48 164.73L160.29 164.8C160.29 166.34 161.49 167.1 162.88 167.1ZM166.289 160.03V161.18H169.799L166.849 167H168.229L171.319 160.67V160.03H166.289ZM172.149 160.03V161.18H175.659L172.709 167H174.089L177.179 160.67V160.03H172.149Z" fill="black"/>
<path d="M8 182H96H184V212H12C9.79086 212 8 210.209 8 208V182Z" fill="#FFDD03"/>
<path d="M16.072 191H16.792V186.08H18.664V185.424H14.2V186.08H16.072V191ZM19.7072 191H20.4192V188.48H23.1632V191H23.8832V185.424H23.1632V187.816H20.4192V185.424H19.7072V191ZM27.4946 191.096C28.8306 191.096 29.5426 190.36 29.5426 188.944V185.424H28.8306V188.896C28.8306 189.936 28.4226 190.4 27.4946 190.4C26.5746 190.4 26.1666 189.944 26.1666 188.912V185.424H25.4546V188.984C25.4546 190.368 26.1666 191.096 27.4946 191.096ZM35.0494 191L33.5374 188.488C34.2574 188.288 34.6414 187.784 34.6414 186.992C34.6414 185.984 34.0254 185.424 32.7854 185.424H31.1134V191H31.8254V188.584H32.4654H32.8254L34.2254 191H35.0494ZM31.8254 187.92V186.08H32.7134C33.5134 186.08 33.9294 186.368 33.9294 187C33.9294 187.632 33.5134 187.92 32.7134 187.92H31.8254ZM35.9127 192.224H36.3767L37.4167 189.968H36.5687L35.9127 192.224ZM42.3202 191.08C43.6722 191.08 44.0962 189.704 44.0962 188.224C44.0962 186.744 43.6562 185.344 42.2642 185.344C40.7362 185.344 40.4882 186.936 40.4882 188.216C40.4882 189.496 40.7522 191.08 42.3202 191.08ZM42.3042 190.424C41.3282 190.424 41.1922 189.304 41.1922 188.216C41.1922 187.104 41.3282 186 42.2642 186C43.1842 186 43.3522 187.04 43.3522 188.216C43.3522 189.352 43.1922 190.424 42.3042 190.424ZM46.8827 185.424V185.848C46.8827 186.192 46.6987 186.312 46.3867 186.312H45.5227V186.944H46.8827V191H47.5707V185.424H46.8827ZM53.3142 191.096C54.4422 191.096 55.1142 190.344 55.1142 189.024V185.424H52.1942V186.08H54.4022V188.984C54.4022 189.96 54.0422 190.424 53.3142 190.424C52.6342 190.424 52.2502 190.024 52.1942 189.256L51.4902 189.336C51.5702 190.44 52.2582 191.096 53.3142 191.096ZM59.8652 191H60.6492L58.5132 185.424H57.9532L55.8172 191H56.6012L57.0972 189.616H59.3692L59.8652 191ZM57.3292 188.984L58.2332 186.456L59.1372 188.984H57.3292ZM65.0676 185.424V189.768L62.4516 185.424H61.6916V191H62.4036V186.64L65.0116 191H65.7796V185.424H65.0676ZM15.056 207H16.556V203.388H20.216V207H21.716V198.636H20.216V202.008H16.556V198.636H15.056V207ZM27.2413 207.18C29.6173 207.18 31.2373 205.44 31.2373 202.824C31.2373 200.196 29.6293 198.456 27.2413 198.456C24.8653 198.456 23.2453 200.196 23.2453 202.824C23.2453 205.44 24.8653 207.18 27.2413 207.18ZM27.2413 205.752C25.7173 205.752 24.7453 204.636 24.7453 202.824C24.7453 201 25.7173 199.884 27.2413 199.884C28.7653 199.884 29.7373 201.012 29.7373 202.824C29.7373 204.624 28.7653 205.752 27.2413 205.752ZM39.219 198.636L37.059 204.528L34.911 198.636H32.763V207H34.263V200.748L36.339 206.268H37.791L39.867 200.748V207H41.367V198.636H39.219ZM43.474 207H49.042V205.62H44.974V203.388H48.754V202.008H44.974V200.016H49.042V198.636H43.474V207ZM57.6042 202.476V203.856H59.4762V203.964C59.4762 205.092 58.6842 205.752 57.3402 205.752C55.6362 205.752 54.6162 204.696 54.6162 202.788C54.6162 200.952 55.5642 199.872 57.1722 199.872C58.3002 199.872 59.1282 200.4 59.5002 201.432L60.8802 200.892C60.2682 199.308 58.9002 198.444 57.1962 198.444C54.6882 198.444 53.1162 200.316 53.1162 202.8C53.1162 205.452 54.9042 207.18 57.2442 207.18C58.3242 207.18 59.2242 206.808 59.7162 206.136L59.8962 207H60.9642V202.476H57.6042ZM67.9468 207H69.5788L66.2428 198.636H65.1148L61.7668 207H63.3988L64.0348 205.272H67.3108L67.9468 207ZM64.5508 203.892L65.6788 200.844L66.8068 203.892H64.5508ZM77.1409 198.636L74.9809 204.528L72.8329 198.636H70.6849V207H72.1849V200.748L74.2609 206.268H75.7129L77.7889 200.748V207H79.2889V198.636H77.1409ZM81.3958 207H86.9638V205.62H82.8958V203.388H86.6758V202.008H82.8958V200.016H86.9638V198.636H81.3958V207Z" fill="black"/>
<path d="M164.59 198.21V194.03H163.54L160.13 198.64V199.36H163.39V201H164.59V199.36H165.7V198.21H164.59ZM161.65 198.21L163.39 195.76V198.21H161.65ZM168.649 194.03V194.45C168.649 194.92 168.429 195.12 167.949 195.12H167.019V196.12H168.649V201H169.849V194.03H168.649ZM174.639 193.93C173.249 193.93 172.109 194.92 172.109 196.36C172.109 197.72 173.029 198.76 174.459 198.76C174.579 198.76 174.689 198.75 174.809 198.74L173.339 201H174.719L176.799 197.65C177.049 197.25 177.189 196.8 177.189 196.35C177.189 194.92 176.039 193.93 174.639 193.93ZM174.639 197.64C173.909 197.64 173.329 197.16 173.329 196.36C173.329 195.56 173.909 195.08 174.639 195.08C175.379 195.08 175.959 195.56 175.959 196.36C175.959 197.16 175.379 197.64 174.639 197.64Z" fill="black"/>
<path d="M19.264 50.424L17.568 54.712L15.872 50.424H14.84V56H15.552V51.376L17.224 55.528H17.92L19.576 51.392V56H20.296V50.424H19.264ZM24.1808 56.096C25.7328 56.096 26.7728 54.944 26.7728 53.216C26.7728 51.48 25.7328 50.328 24.1808 50.328C22.6368 50.328 21.5968 51.48 21.5968 53.216C21.5968 54.944 22.6368 56.096 24.1808 56.096ZM24.1808 55.416C23.0368 55.416 22.3088 54.56 22.3088 53.216C22.3088 51.864 23.0368 51.008 24.1808 51.008C25.3248 51.008 26.0608 51.864 26.0608 53.216C26.0608 54.56 25.3248 55.416 24.1808 55.416ZM31.4504 50.424V54.768L28.8344 50.424H28.0744V56H28.7864V51.64L31.3944 56H32.1624V50.424H31.4504ZM33.608 57.224H34.072L35.112 54.968H34.264L33.608 57.224ZM40.0155 50.424V50.848C40.0155 51.192 39.8315 51.312 39.5195 51.312H38.6555V51.944H40.0155V56H40.7035V50.424H40.0155ZM43.7854 55.352C45.0494 54.568 46.2494 53.408 46.2494 52.048C46.2494 50.984 45.5534 50.344 44.5534 50.344C43.3694 50.344 42.7214 51.24 42.7214 52.312L43.4014 52.36C43.4174 51.616 43.7454 51.008 44.5454 51.008C45.2094 51.008 45.5534 51.432 45.5534 52.064C45.5534 53.488 43.8254 54.648 42.6254 55.392V56H46.4974V55.352H43.7854ZM49.8009 56H51.3449C53.2009 56 54.2169 55.032 54.2169 53.256C54.2169 51.456 53.1769 50.424 51.3529 50.424H49.8009V56ZM50.5129 55.344V51.08H51.3369C52.7849 51.08 53.4969 51.792 53.4969 53.224C53.4969 54.664 52.7849 55.344 51.2809 55.344H50.5129ZM55.5119 56H59.1919V55.344H56.2239V53.48H58.9199V52.824H56.2239V51.08H59.1919V50.424H55.5119V56ZM62.7359 56.096C63.8719 56.096 64.7199 55.544 65.1279 54.504L64.4559 54.256C64.1679 55.024 63.5679 55.416 62.7359 55.416C61.5439 55.416 60.8559 54.608 60.8559 53.2C60.8559 51.8 61.5439 51.008 62.7599 51.008C63.5999 51.008 64.1759 51.376 64.4559 52.144L65.1119 51.888C64.7199 50.856 63.8959 50.328 62.7599 50.328C61.1359 50.328 60.1439 51.416 60.1439 53.2C60.1439 55 61.1279 56.096 62.7359 56.096ZM15.056 72H16.556V68.388H20.216V72H21.716V63.636H20.216V67.008H16.556V63.636H15.056V72ZM27.2413 72.18C29.6173 72.18 31.2373 70.44 31.2373 67.824C31.2373 65.196 29.6293 63.456 27.2413 63.456C24.8653 63.456 23.2453 65.196 23.2453 67.824C23.2453 70.44 24.8653 72.18 27.2413 72.18ZM27.2413 70.752C25.7173 70.752 24.7453 69.636 24.7453 67.824C24.7453 66 25.7173 64.884 27.2413 64.884C28.7653 64.884 29.7373 66.012 29.7373 67.824C29.7373 69.624 28.7653 70.752 27.2413 70.752ZM39.219 63.636L37.059 69.528L34.911 63.636H32.763V72H34.263V65.748L36.339 71.268H37.791L39.867 65.748V72H41.367V63.636H39.219ZM43.474 72H49.042V70.62H44.974V68.388H48.754V67.008H44.974V65.016H49.042V63.636H43.474V72ZM57.6042 67.476V68.856H59.4762V68.964C59.4762 70.092 58.6842 70.752 57.3402 70.752C55.6362 70.752 54.6162 69.696 54.6162 67.788C54.6162 65.952 55.5642 64.872 57.1722 64.872C58.3002 64.872 59.1282 65.4 59.5002 66.432L60.8802 65.892C60.2682 64.308 58.9002 63.444 57.1962 63.444C54.6882 63.444 53.1162 65.316 53.1162 67.8C53.1162 70.452 54.9042 72.18 57.2442 72.18C58.3242 72.18 59.2242 71.808 59.7162 71.136L59.8962 72H60.9642V67.476H57.6042ZM67.9468 72H69.5788L66.2428 63.636H65.1148L61.7668 72H63.3988L64.0348 70.272H67.3108L67.9468 72ZM64.5508 68.892L65.6788 65.844L66.8068 68.892H64.5508ZM77.1409 63.636L74.9809 69.528L72.8329 63.636H70.6849V72H72.1849V65.748L74.2609 71.268H75.7129L77.7889 65.748V72H79.2889V63.636H77.1409ZM81.3958 72H86.9638V70.62H82.8958V68.388H86.6758V67.008H82.8958V65.016H86.9638V63.636H81.3958V72Z" fill="black"/>
<path d="M160.43 59.03V60.18H163.94L160.99 66H162.37L165.46 59.67V59.03H160.43ZM168.739 66.1C170.099 66.1 171.319 65.36 171.319 63.95C171.319 63.19 170.969 62.48 170.139 62.22C170.729 61.9 170.949 61.38 170.949 60.84C170.949 59.64 169.879 58.93 168.719 58.93C167.519 58.93 166.489 59.69 166.489 61L167.669 61.08C167.679 60.45 168.099 60.08 168.739 60.08C169.299 60.08 169.749 60.37 169.749 60.99C169.749 61.53 169.399 61.88 168.429 61.88V62.83C169.179 62.83 170.119 62.86 170.119 63.82C170.119 64.62 169.479 64.95 168.769 64.95C167.949 64.95 167.339 64.52 167.339 63.73L166.149 63.8C166.149 65.34 167.349 66.1 168.739 66.1ZM174.789 61.21C174.469 61.21 174.089 61.27 173.709 61.51L173.959 60.18H176.849V59.03H172.969L172.299 62.7L173.429 62.98C173.659 62.62 174.039 62.33 174.629 62.33C175.509 62.33 175.889 62.92 175.889 63.57C175.889 64.25 175.479 64.95 174.599 64.95C173.769 64.95 173.339 64.36 173.269 63.79L172.089 63.99C172.259 65.16 173.269 66.1 174.609 66.1C176.099 66.1 177.159 64.9 177.159 63.57C177.159 62.3 176.189 61.21 174.789 61.21Z" fill="black"/>
<defs>
<linearGradient id="paint0_linear" x1="1049" y1="61.0005" x2="185" y2="61.0005" gradientUnits="userSpaceOnUse">
<stop stop-color="#FFDD03"/>
<stop offset="1" stop-color="#AB9734"/>
</linearGradient>
<linearGradient id="paint1_linear" x1="591" y1="95.0005" x2="185" y2="95.0005" gradientUnits="userSpaceOnUse">
<stop stop-color="#FFDD03"/>
<stop offset="1" stop-color="#AB9734"/>
</linearGradient>
<linearGradient id="paint2_linear" x1="897" y1="129" x2="185" y2="129.001" gradientUnits="userSpaceOnUse">
<stop stop-color="#FFDD03"/>
<stop offset="1" stop-color="#AB9734"/>
</linearGradient>
<linearGradient id="paint3_linear" x1="669" y1="163" x2="185" y2="163.001" gradientUnits="userSpaceOnUse">
<stop stop-color="#FFDD03"/>
<stop offset="1" stop-color="#AB9734"/>
</linearGradient>
<linearGradient id="paint4_linear" x1="376" y1="197" x2="185" y2="197.001" gradientUnits="userSpaceOnUse">
<stop stop-color="#FFDD03"/>
<stop offset="1" stop-color="#AB9734"/>
</linearGradient>
</defs>
</svg>
