<svg width="40" height="40" viewBox="0 0 40 40" fill="none" xmlns="http://www.w3.org/2000/svg">
<path d="M35.8906 16.3086H29.4922V12.0899C29.4922 10.2374 27.2261 9.26206 25.8908 10.5991L17.4539 19.036C16.6299 19.86 16.6299 21.1948 17.4539 22.0188L22.2907 26.8555L16.3992 32.7469C15.5753 33.5709 15.5753 34.9057 16.3992 35.7297C17.2232 36.5536 18.558 36.5537 19.382 35.7297L26.7649 28.3469C27.5888 27.5229 27.5888 26.1881 26.7649 25.3641L21.9281 20.5274L25.2735 17.1821V18.418C25.2735 19.5829 26.218 20.5274 27.3828 20.5274H35.8906C37.0555 20.5274 38 19.5829 38 18.418C38 17.2531 37.0555 16.3086 35.8906 16.3086Z" fill="white"/>
<path d="M21.6974 5.58873C20.859 5.0315 19.7467 5.14175 19.036 5.8524L13.2352 11.6532C12.4112 12.4772 12.4112 13.812 13.2352 14.636C14.0592 15.46 15.3941 15.4599 16.218 14.6359L20.7962 10.0577L22.3385 11.1687L24.399 9.10808C24.7437 8.76341 25.1503 8.49587 25.5949 8.28697L21.6974 5.58873Z" fill="white"/>
<path d="M15.9625 23.51C15.4281 22.9755 15.0713 22.3178 14.8832 21.6065L3.74299 32.7467C2.919 33.5707 2.919 34.9055 3.74299 35.7295C4.56692 36.5534 5.9018 36.5535 6.72579 35.7295L17.4539 25.0014L15.9625 23.51Z" fill="white"/>
<path d="M30.5469 9.98047C32.2943 9.98047 33.7109 8.56387 33.7109 6.81641C33.7109 5.06894 32.2943 3.65234 30.5469 3.65234C28.7994 3.65234 27.3828 5.06894 27.3828 6.81641C27.3828 8.56387 28.7994 9.98047 30.5469 9.98047Z" fill="white"/>
</svg>
