<svg width="40" height="40" viewBox="0 0 40 40" fill="none" xmlns="http://www.w3.org/2000/svg">
<path d="M8.67603 27.5C9.53897 27.5 10.2385 26.8004 10.2385 25.9375C10.2385 25.0746 9.53897 24.375 8.67603 24.375C7.81308 24.375 7.11353 25.0746 7.11353 25.9375C7.11353 26.8004 7.81308 27.5 8.67603 27.5Z" fill="white"/>
<path d="M13.2073 30C14.0702 30 14.7698 29.3004 14.7698 28.4375C14.7698 27.5746 14.0702 26.875 13.2073 26.875C12.3443 26.875 11.6448 27.5746 11.6448 28.4375C11.6448 29.3004 12.3443 30 13.2073 30Z" fill="white"/>
<path d="M11.0963 8.59375C11.0963 7.25828 10.0099 6.17188 8.67445 6.17188C7.33897 6.17188 6.25256 7.25828 6.25256 8.59375C6.25256 9.92922 7.33897 11.0156 8.67445 11.0156C10.0099 11.0156 11.0963 9.92922 11.0963 8.59375Z" fill="white"/>
<path d="M8.40199 21.0938H8.86043C9.39551 21.0938 9.89332 20.82 10.1799 20.3682C10.9794 19.1078 12.0038 17.9899 12.9944 16.9089C15.0905 14.6216 17.2579 12.2564 17.2614 8.59523C17.2558 3.85578 13.3843 0 8.63121 0C3.87809 0 0.00652344 3.85578 0.000976562 8.59859C0.00457031 12.2563 2.17191 14.6215 4.26801 16.9088C5.25856 17.9899 6.28301 19.1077 7.08254 20.3682C7.3691 20.82 7.86684 21.0938 8.40199 21.0938ZM6.57184 14.7975C4.64793 12.698 3.12832 11.0397 3.12598 8.59883C3.12949 5.58055 5.5991 3.125 8.63121 3.125C11.6633 3.125 14.1329 5.58055 14.1364 8.59547C14.134 11.0397 12.6144 12.698 10.6904 14.7976C10.001 15.5499 9.29668 16.3186 8.63121 17.1635C7.96566 16.3186 7.26137 15.5499 6.57184 14.7975Z" fill="white"/>
<path d="M22.2705 35C23.1335 35 23.833 34.3004 23.833 33.4375C23.833 32.5746 23.1335 31.875 22.2705 31.875C21.4076 31.875 20.708 32.5746 20.708 33.4375C20.708 34.3004 21.4076 35 22.2705 35Z" fill="white"/>
<path d="M31.4088 18.2812C30.0733 18.2812 28.9869 19.3677 28.9869 20.7031C28.9869 22.0386 30.0733 23.125 31.4088 23.125C32.7443 23.125 33.8307 22.0386 33.8307 20.7031C33.8307 19.3677 32.7443 18.2812 31.4088 18.2812Z" fill="white"/>
<path d="M17.8167 32.5C18.6796 32.5 19.3792 31.8004 19.3792 30.9375C19.3792 30.0746 18.6796 29.375 17.8167 29.375C16.9537 29.375 16.2542 30.0746 16.2542 30.9375C16.2542 31.8004 16.9537 32.5 17.8167 32.5Z" fill="white"/>
<path d="M31.3672 12.1094C26.614 12.1094 22.7425 15.9652 22.7369 20.708C22.7405 24.3466 24.9544 26.6951 27.0953 28.9662C28.1301 30.0638 29.2001 31.1988 30.0112 32.4776C30.3088 32.9467 30.8148 33.2034 31.3321 33.2034C31.6183 33.2034 31.908 33.1247 32.1676 32.9601C32.8962 32.4979 33.1123 31.5324 32.6501 30.8037C31.6788 29.2725 30.5047 28.027 29.3692 26.8225C27.411 24.7452 25.8643 23.1045 25.8619 20.7082C25.8655 17.6899 28.3351 15.2344 31.3672 15.2344C34.3993 15.2344 36.8689 17.6899 36.8724 20.7048C36.8705 22.698 35.9458 24.1484 34.4547 25.8427C33.8846 26.4905 33.9476 27.4778 34.5953 28.048C35.243 28.618 36.2305 28.5552 36.8006 27.9073C38.4591 26.0229 39.9944 23.8465 39.9975 20.7046C39.9919 15.9652 36.1204 12.1094 31.3672 12.1094Z" fill="white"/>
<path d="M26.8799 37.5C27.7428 37.5 28.4424 36.8004 28.4424 35.9375C28.4424 35.0746 27.7428 34.375 26.8799 34.375C26.0169 34.375 25.3174 35.0746 25.3174 35.9375C25.3174 36.8004 26.0169 37.5 26.8799 37.5Z" fill="white"/>
<path d="M31.3721 40C32.235 40 32.9346 39.3004 32.9346 38.4375C32.9346 37.5746 32.235 36.875 31.3721 36.875C30.5091 36.875 29.8096 37.5746 29.8096 38.4375C29.8096 39.3004 30.5091 40 31.3721 40Z" fill="white"/>
</svg>
