<svg width="40" height="40" viewBox="0 0 40 40" fill="none" xmlns="http://www.w3.org/2000/svg">
<path d="M20 2.75858C8.9425 2.75858 0 11.7201 0 22.7586C0 28.0976 2.08133 33.1192 5.86055 36.8981C6.0893 37.1269 6.3893 37.2413 6.68914 37.2413C6.98906 37.2413 7.28898 37.1269 7.51781 36.898L11.0673 33.3483C11.5249 32.8906 11.5249 32.1487 11.0673 31.691C10.064 30.6876 7.38172 27.7036 7.36461 22.7576C7.36508 15.7306 13.0713 10.1231 20 10.1231C27.0234 10.1231 32.6349 15.8247 32.6354 22.7576C32.6252 25.6996 31.6541 28.3947 29.9154 30.5876C28.1092 27.7865 24.0772 21.6283 22.6037 20.1551C21.1527 18.704 18.8212 18.7301 17.3962 20.1551C15.9423 21.6088 15.9742 23.9402 17.3962 25.3621C19.157 27.1233 27.6094 32.5384 29.0252 33.441L32.4821 36.898C32.7109 37.1269 33.0109 37.2413 33.3108 37.2413C33.6107 37.2413 33.9105 37.1269 34.1394 36.8981C37.9187 33.1191 40 28.0976 40 22.7586C40 11.6998 31.0366 2.75858 20 2.75858ZM8.61312 32.4879L6.71594 34.3853C4.14516 31.4572 2.63508 27.8147 2.3818 23.9305H5.06586C5.31031 27.0996 6.54375 30.0737 8.61312 32.4879ZM5.06578 21.5867H2.3818C2.635 17.7023 4.14508 14.0598 6.71594 11.1318L8.61312 13.029C6.5418 15.4445 5.30984 18.4169 5.06578 21.5867ZM18.8281 7.82428C15.6582 8.06834 12.6855 9.30061 10.2703 11.3717L8.37328 9.47451C11.3016 6.90373 14.9441 5.39358 18.8281 5.14037V7.82428ZM19.0536 23.7048C18.5273 23.1786 18.5348 22.331 19.0535 21.8123C19.5757 21.2901 20.4248 21.2906 20.9465 21.8123C20.9465 21.8123 20.9465 21.8124 20.9466 21.8124C21.787 22.6527 23.8702 25.674 25.7575 28.516C22.9155 26.6287 19.8941 24.5455 19.0536 23.7048ZM21.1719 7.82428V5.14037C25.0559 5.39358 28.6984 6.90373 31.6267 9.47459L29.7297 11.3718C27.3145 9.30061 24.3418 8.06834 21.1719 7.82428ZM31.3869 13.029L33.2841 11.1318C35.8548 14.0598 37.3649 17.7023 37.6182 21.5867H34.9343C34.6902 18.4169 33.4582 15.4445 31.3869 13.029ZM33.2841 34.3853L31.3869 32.4879C33.4563 30.0737 34.6897 27.0996 34.9341 23.9304H37.6182C37.3649 27.8147 35.8548 31.4572 33.2841 34.3853Z" fill="white"/>
</svg>
