<svg width="40" height="40" viewBox="0 0 40 40" fill="none" xmlns="http://www.w3.org/2000/svg">
<path d="M27.0834 10.5002H4.76693C3.94469 10.5002 3.18932 11.0544 3.03294 11.8613C2.82216 12.9464 3.65171 13.9002 4.70006 13.9002H27.0834C27.2397 13.9002 27.3667 13.7733 27.3667 13.6168V10.7835C27.3667 10.6272 27.2397 10.5002 27.0834 10.5002Z" fill="white"/>
<path d="M36.7994 11.7673L29.4327 5.53397C29.2645 5.39173 29.0287 5.35946 28.8281 5.45236C28.6281 5.54586 28.5 5.74587 28.5 5.96687V18.4335C28.5 18.6545 28.6281 18.8545 28.8281 18.9475C28.9046 18.9832 28.9856 19.0002 29.0667 19.0002C29.1982 19.0002 29.3285 18.9543 29.4328 18.8665L36.7994 12.6331C36.9269 12.5249 37.0001 12.3668 37.0001 12.2002C37.0001 12.0337 36.9269 11.8756 36.7994 11.7673Z" fill="white"/>
<path d="M11.1719 21.0529C10.9713 20.96 10.7355 20.9923 10.5672 21.1345L3.20061 27.3678C3.07311 27.4754 3 27.6335 3 27.8001C3 27.9668 3.07311 28.1249 3.20061 28.233L10.5672 34.4664C10.6715 34.5542 10.8018 34.6001 10.9333 34.6001C11.0143 34.6001 11.0954 34.5831 11.1719 34.5474C11.3719 34.4545 11.5 34.2544 11.5 34.0334V21.5669C11.5 21.3459 11.3719 21.1458 11.1719 21.0529Z" fill="white"/>
<path d="M36.9671 27.4613C36.8101 26.6544 36.0547 26.1002 35.2331 26.1002H12.9167C12.7603 26.1002 12.6333 26.2271 12.6333 26.3836V29.2169C12.6333 29.3733 12.7602 29.5003 12.9167 29.5003H35.3C36.3483 29.5002 37.1779 28.5466 36.9671 27.4613Z" fill="white"/>
</svg>
