<svg width="40" height="40" viewBox="0 0 40 40" fill="none" xmlns="http://www.w3.org/2000/svg">
<g clip-path="url(#clip0)">
<path d="M32.8242 7.61654C32.512 7.53139 32.1898 7.7148 32.1043 8.027C32.0189 8.33889 32.2023 8.66116 32.5145 8.74691C36.468 9.83029 38.8283 11.3678 38.8283 12.8592V12.8677C38.8283 13.4649 38.4312 14.3954 36.5398 15.4355C35.0471 16.2561 32.9326 16.9592 30.4008 17.4789C30.2321 17.5134 30.0615 17.5473 29.889 17.5803C29.6132 17.6331 29.4133 17.8748 29.4133 18.1558V23.4796C28.4306 23.3087 27.4049 23.1662 26.3496 23.0518L26.5892 19.6265C26.6117 19.3036 26.3685 19.0237 26.0456 19.0012C25.7234 18.9789 25.4429 19.2218 25.4203 19.5447L25.1011 24.1086C25.0559 24.7486 24.5185 25.25 23.878 25.25H23.5664C23.2633 25.25 23.0103 25.481 22.9829 25.7828L22.0313 36.2403H17.9688L17.0176 25.7828C16.9901 25.481 16.7371 25.25 16.4341 25.25H16.1225C15.4816 25.25 14.9445 24.7486 14.8994 24.1095L14.2783 15.2328C14.2216 14.4202 14.4965 13.6444 15.0519 13.0487C15.6074 12.4533 16.3615 12.1255 17.1754 12.1255H22.8248C23.6387 12.1255 24.3928 12.4533 24.9482 13.0487C25.5039 13.6444 25.7789 14.4202 25.7221 15.2325L25.5845 17.1988C25.5619 17.5217 25.8052 17.8015 26.128 17.8241C26.45 17.8458 26.7308 17.6035 26.7533 17.2806L26.891 15.3143C26.9694 14.1904 26.5736 13.0734 25.8052 12.2494C25.0968 11.4905 24.1181 11.0306 23.0876 10.9634C24.0656 10.1077 24.687 8.85433 24.6952 7.45784C26.6627 7.61501 28.5456 7.86953 30.2729 8.21804C30.5903 8.28182 30.8992 8.07644 30.9629 7.75936C31.027 7.44228 30.822 7.13314 30.5046 7.06935C28.6625 6.69765 26.6508 6.4297 24.55 6.27101C24.0275 4.2248 22.1507 2.73431 20.0001 2.73431C17.8495 2.73431 15.973 4.2248 15.4508 6.26918C11.9413 6.53346 8.71616 7.10262 6.09469 7.93606C2.10755 9.20376 0 10.906 0 12.8592V29.4828C0 31.1377 1.57471 32.3508 2.89552 33.0775C4.59413 34.0113 7.01297 34.7959 9.89079 35.3464C9.92741 35.3535 9.96433 35.3568 10.001 35.3568C10.1361 35.3568 10.2683 35.3101 10.3742 35.2225C10.5088 35.1112 10.5869 34.9457 10.5869 34.7709V30.6473C10.5869 30.3238 10.3244 30.0617 10.001 30.0617C9.67747 30.0617 9.41502 30.3238 9.41502 30.6473V34.0559C6.96475 33.5404 4.9164 32.8513 3.4601 32.0505C1.56861 31.0105 1.17188 30.08 1.17188 29.4828V15.2353C1.17218 15.2359 1.1728 15.2362 1.17341 15.2368C1.23292 15.2939 1.29426 15.3494 1.35621 15.404C1.36445 15.4114 1.37269 15.419 1.38123 15.426C1.44105 15.4782 1.50178 15.5292 1.56342 15.5792C1.57471 15.5884 1.586 15.5975 1.5976 15.6067C1.65894 15.6561 1.7212 15.7043 1.78406 15.7513C1.79383 15.7587 1.8039 15.766 1.81397 15.7733C1.87959 15.8221 1.94581 15.8704 2.01264 15.9167C2.01325 15.917 2.01386 15.9177 2.01447 15.9183C2.08161 15.9647 2.14906 16.0098 2.2165 16.0541C2.22566 16.0605 2.23512 16.0666 2.24458 16.073C2.30958 16.1151 2.37428 16.156 2.43928 16.196C2.45088 16.2033 2.46278 16.2103 2.47438 16.2176C2.53907 16.2573 2.60377 16.2958 2.66786 16.3333C2.67732 16.3385 2.68647 16.3437 2.69563 16.3492C2.76277 16.3879 2.8296 16.4258 2.89552 16.4621C3.79793 16.9583 4.90358 17.4124 6.17312 17.8116C6.5964 17.9446 7.03769 18.0713 7.49606 18.1918C7.80154 18.2721 8.11435 18.3496 8.43448 18.4238C8.75431 18.4979 9.08146 18.5693 9.41502 18.6374V28.3039C9.41502 28.6277 9.67747 28.8898 10.001 28.8898C10.3244 28.8898 10.5869 28.6277 10.5869 28.3039V24.6698C11.5928 24.4898 12.6462 24.3396 13.733 24.2209C13.8294 25.3821 14.7559 26.3037 15.8979 26.4112L16.8503 36.8793C16.8778 37.1812 17.1308 37.4122 17.4338 37.4122H22.566C22.869 37.4122 23.122 37.1812 23.1495 36.8793L24.102 26.4112C25.2439 26.3034 26.1701 25.3824 26.2669 24.2209C27.3539 24.3396 28.4071 24.4898 29.4133 24.6698V34.7712C29.4133 34.9457 29.4911 35.1112 29.6257 35.2225C29.7316 35.3101 29.864 35.3571 29.9989 35.3571C30.0355 35.3571 30.0724 35.3535 30.1091 35.3464C32.9872 34.7959 35.406 34.0113 37.1043 33.0775C38.4254 32.3511 39.9999 31.1377 39.9999 29.4828V12.8592C40.0002 10.7467 37.4516 8.88485 32.8242 7.61654ZM16.5147 6.91188C16.7664 5.19801 18.2648 3.90589 20.0001 3.90589C21.7353 3.90589 23.2337 5.19801 23.4861 6.91402C23.5111 7.08126 23.524 7.2546 23.524 7.42977C23.524 9.37283 21.9431 10.9536 20.0001 10.9536C18.057 10.9536 16.4762 9.37283 16.4762 7.42977C16.4762 7.2546 16.489 7.08126 16.5147 6.91188ZM10.1111 17.5803C7.35232 17.0526 5.05251 16.3107 3.4604 15.4352C1.56861 14.3951 1.17188 13.4649 1.17188 12.8677V12.8592C1.17188 11.5265 3.14485 10.1034 6.44961 9.0527C8.93009 8.26382 11.9782 7.71938 15.3052 7.4554C15.3126 8.85281 15.9342 10.1071 16.9129 10.9631C15.882 11.0306 14.9033 11.4901 14.1953 12.2494C13.4269 13.0731 13.0311 14.1904 13.1092 15.3143L13.6506 23.0518C12.5956 23.1662 11.5696 23.3087 10.5869 23.4796V18.1558C10.5869 17.8748 10.3873 17.6331 10.1111 17.5803ZM38.8283 29.4828C38.8283 30.08 38.4312 31.0105 36.5398 32.0505C35.0835 32.8513 33.0351 33.5404 30.5851 34.0559V18.6374C33.2542 18.093 35.5006 17.3441 37.1046 16.4621C37.1702 16.4261 37.2365 16.3885 37.3033 16.3498C37.3131 16.344 37.3231 16.3385 37.3329 16.3327C37.3967 16.2958 37.4608 16.2573 37.5252 16.2183C37.5374 16.2106 37.5493 16.2033 37.5615 16.1957C37.6262 16.156 37.6909 16.1151 37.7553 16.073C37.765 16.0669 37.7745 16.0605 37.7843 16.0541C37.8514 16.0101 37.9185 15.965 37.9854 15.9186C37.986 15.918 37.9869 15.9173 37.9878 15.9167C38.0543 15.8704 38.1203 15.8224 38.1862 15.7739C38.1963 15.7663 38.2063 15.759 38.2164 15.7513C38.279 15.7043 38.3409 15.6561 38.4026 15.607C38.4138 15.5978 38.4254 15.5884 38.437 15.5792C38.4984 15.5292 38.5591 15.4785 38.6189 15.4263C38.6275 15.419 38.636 15.4114 38.6446 15.4037C38.7059 15.3494 38.7666 15.2945 38.8255 15.238C38.8264 15.2371 38.8277 15.2362 38.8286 15.2356V29.4828H38.8283Z" fill="white" stroke="white"/>
</g>
<defs>
<clipPath id="clip0">
<rect width="40" height="40" fill="white"/>
</clipPath>
</defs>
</svg>
