<svg width="44" height="44" viewBox="0 0 44 44" fill="none" xmlns="http://www.w3.org/2000/svg">
<path d="M38.1443 13.8359L38.0704 13.9098L38.1443 13.8359C35.8546 11.5462 33.0565 10.0672 30.1102 9.39799V7.48775C31.3233 7.14868 32.2161 6.03396 32.2161 4.71366C32.2161 3.12532 30.9241 1.83334 29.3357 1.83334H23.4575C21.8692 1.83334 20.5772 3.12532 20.5772 4.71366C20.5772 6.03389 21.4699 7.1486 22.683 7.48774V9.40392C19.7458 10.0759 16.957 11.5528 14.6738 13.836C14.1828 14.3269 13.7291 14.8414 13.3126 15.3756C13.3083 15.3755 13.3039 15.3754 13.2996 15.3754H7.48168C6.97315 15.3754 6.56076 15.7877 6.56076 16.2964C6.56076 16.805 6.97315 17.2173 7.48168 17.2173H12.0676C11.5209 18.1562 11.0743 19.1377 10.7272 20.1463H1.91639C1.40786 20.1463 0.995476 20.5586 0.995476 21.0672C0.995476 21.5758 1.40786 21.9881 1.91639 21.9881H10.2101C9.99817 22.9533 9.87302 23.9338 9.83455 24.9172H6.32506C5.81652 24.9172 5.40414 25.3295 5.40414 25.8381C5.40414 26.3467 5.81652 26.759 6.32506 26.759H9.86377C9.93383 27.7447 10.0913 28.7253 10.3362 29.6881H5.18207C4.67354 29.6881 4.26115 30.1004 4.26115 30.609C4.26115 31.1176 4.67354 31.5299 5.18207 31.5299H10.9202C11.7272 33.6368 12.9783 35.6112 14.6738 37.3067C17.3806 40.0135 20.9656 41.711 24.7685 42.0868L24.7788 41.9828L24.7686 42.0868C25.3113 42.1403 25.8545 42.1669 26.3969 42.1669C29.6027 42.1669 32.7679 41.2392 35.4539 39.49C35.8801 39.2124 36.0007 38.6419 35.7231 38.2157C35.4456 37.7895 34.8751 37.669 34.4489 37.9465C28.6483 41.7238 20.8789 40.9071 15.9761 36.0043C10.2235 30.2516 10.2235 20.8912 15.9761 15.1384C21.7287 9.38586 31.0892 9.38586 36.8419 15.1384C41.7382 20.0348 42.5593 27.7976 38.7946 33.5953C38.5176 34.0219 38.6388 34.5923 39.0653 34.8692L39.1222 34.7816L39.0653 34.8692C39.4921 35.1462 40.0623 35.0249 40.3392 34.5984C42.3781 31.4584 43.2957 27.6665 42.9234 23.9205C42.5457 20.1215 40.8485 16.5402 38.1443 13.8359ZM22.419 4.71374C22.419 4.14118 22.885 3.67526 23.4575 3.67526H29.3357C29.9083 3.67526 30.3742 4.14118 30.3742 4.71374C30.3742 5.2863 29.9083 5.75223 29.3357 5.75223H29.1893H23.6039H23.4575C22.885 5.75223 22.419 5.28623 22.419 4.71374ZM28.2684 9.08655C27.0247 8.94751 25.7682 8.94843 24.5248 9.08932V7.59407H28.2684V9.08655Z" fill="white" stroke="white" stroke-width="0.209"/>
<path d="M38.1444 36.004L38.1442 36.0038C37.9721 35.8327 37.7358 35.7342 37.4933 35.7342C37.25 35.7342 37.0137 35.8326 36.8424 36.0039C36.6699 36.1756 36.5724 36.4129 36.5724 36.6551C36.5724 36.8973 36.6698 37.1346 36.8423 37.3062C37.0138 37.4787 37.2504 37.576 37.4933 37.576C37.7357 37.576 37.9721 37.4785 38.1444 37.3062C38.3158 37.1348 38.4142 36.8976 38.4142 36.6551C38.4142 36.4127 38.3159 36.1755 38.1444 36.004Z" fill="white" stroke="white" stroke-width="0.209"/>
<path d="M26.409 12.8018C19.3678 12.8018 13.6395 18.5301 13.6395 25.5713C13.6395 32.6126 19.3678 38.3409 26.409 38.3409C33.4502 38.3409 39.1786 32.6126 39.1786 25.5713C39.1786 18.5301 33.4502 12.8018 26.409 12.8018ZM26.409 36.499C20.3835 36.499 15.4814 31.5968 15.4814 25.5713C15.4814 19.5459 20.3835 14.6436 26.409 14.6436C32.4346 14.6436 37.3367 19.5459 37.3367 25.5713C37.3367 31.5968 32.4346 36.499 26.409 36.499Z" fill="white" stroke="white" stroke-width="0.209"/>
<path d="M31.4993 19.1786L31.4993 19.1786L27.5078 23.17C27.173 23.0162 26.8007 22.93 26.4088 22.93C26.0169 22.93 25.6447 23.0162 25.3099 23.17L23.5524 21.4125L23.5524 21.4125C23.1927 21.0528 22.6097 21.0529 22.25 21.4125L22.2499 21.4125C21.8903 21.7721 21.8903 22.3552 22.2499 22.7148L24.0075 24.4724C23.8535 24.8072 23.7674 25.1794 23.7674 25.5713C23.7674 27.0279 24.9522 28.2128 26.4088 28.2128C27.8655 28.2128 29.0503 27.0279 29.0503 25.5713C29.0503 25.1794 28.9641 24.8072 28.8102 24.4724L32.683 20.5996L32.8016 20.4809C33.1613 20.1213 33.1613 19.5382 32.8016 19.1786C32.442 18.819 31.8591 18.819 31.4993 19.1786ZM26.4088 26.371C25.9681 26.371 25.6092 26.0122 25.6092 25.5714C25.6092 25.1306 25.9681 24.7718 26.4088 24.7718C26.8496 24.7718 27.2084 25.1306 27.2084 25.5714C27.2084 26.0122 26.8496 26.371 26.4088 26.371Z" fill="white" stroke="white" stroke-width="0.209"/>
<path d="M35.1382 24.6602H34.3818C33.8733 24.6602 33.4609 25.0725 33.4609 25.5811C33.4609 26.0897 33.8733 26.502 34.3818 26.502H35.1382C35.6468 26.502 36.0591 26.0897 36.0591 25.5811C36.0591 25.0725 35.6468 24.6602 35.1382 24.6602Z" fill="white" stroke="white" stroke-width="0.209"/>
<path d="M18.4362 24.6402H17.6799C17.1714 24.6402 16.759 25.0524 16.759 25.5611C16.759 26.0697 17.1714 26.482 17.6799 26.482H18.4362C18.9448 26.482 19.3572 26.0697 19.3572 25.5611C19.3572 25.0524 18.9448 24.6402 18.4362 24.6402Z" fill="white" stroke="white" stroke-width="0.209"/>
<path d="M26.4187 18.5194C26.9272 18.5194 27.3396 18.1072 27.3396 17.5985V16.8422C27.3396 16.3336 26.9272 15.9213 26.4187 15.9213C25.9102 15.9213 25.4978 16.3336 25.4978 16.8422V17.5985C25.4978 18.1072 25.9102 18.5194 26.4187 18.5194Z" fill="white" stroke="white" stroke-width="0.209"/>
<path d="M26.3993 32.6232C25.8908 32.6232 25.4784 33.0355 25.4784 33.5441V34.3004C25.4784 34.8091 25.8908 35.2214 26.3993 35.2214C26.9078 35.2214 27.3202 34.8091 27.3202 34.3004V33.5441C27.3202 33.0355 26.9078 32.6232 26.3993 32.6232Z" fill="white" stroke="white" stroke-width="0.209"/>
<path d="M1.26517 29.9574C1.43659 29.786 1.67379 29.6876 1.91626 29.6876C2.1587 29.6876 2.3959 29.786 2.56725 29.9574C2.56726 29.9574 2.56728 29.9574 2.56729 29.9574L2.49338 30.0313C2.64531 30.1831 2.73267 30.3938 2.73267 30.6085C2.73267 30.8232 2.64523 31.0338 2.49338 31.1857L1.26517 29.9574ZM1.26517 29.9574C1.09375 30.1288 0.995354 30.366 0.995354 30.6085C0.995354 30.8518 1.09369 31.0882 1.26519 31.2596C1.43667 31.431 1.67378 31.5294 1.91626 31.5294C2.15871 31.5294 2.39592 31.431 2.56727 31.2596L1.26517 29.9574Z" fill="white" stroke="white" stroke-width="0.209"/>
</svg>
