<svg width="40" height="40" viewBox="0 0 40 40" fill="none" xmlns="http://www.w3.org/2000/svg">
<g clip-path="url(#clip0)">
<path d="M37.1491 28.8941L38.1786 21.2227C37.1491 21.6224 35.7895 21.9829 34.1301 22.2913C30.2553 23.0168 25.1164 23.4164 19.6561 23.4164C14.1958 23.4164 9.05254 23.0168 5.1821 22.2913C3.5314 21.9829 2.18044 21.6267 1.15527 21.2314L2.20651 28.8898C2.24994 29.1244 2.41936 29.4545 2.6018 29.6109C3.98752 30.7751 6.97614 32.1738 12.8361 32.795V26.4529C12.8361 25.8534 13.3226 25.3669 13.9221 25.3669H25.3814C25.9809 25.3669 26.4674 25.8534 26.4674 26.4529V32.8081C32.3534 32.2043 35.3203 30.8272 36.7495 29.6109C36.9362 29.4588 37.1057 29.1287 37.1491 28.8941Z" fill="#FFDD03"/>
<path d="M39.031 14.9197C38.905 14.9849 38.7704 15.0501 38.627 15.1109C37.5584 15.5844 36.0467 16.0058 34.131 16.3663C30.2563 17.0917 25.1174 17.4913 19.6571 17.4913C14.1967 17.4913 9.05353 17.0917 5.18309 16.3663C3.26741 16.0057 1.75572 15.5844 0.687117 15.1109C0.548111 15.0501 0.41345 14.9849 0.287476 14.9197L0.947753 19.7198C1.03029 19.7588 1.11717 19.8023 1.21708 19.8457C2.18143 20.2714 3.6323 20.6754 5.422 21.0099C9.2186 21.7223 14.2749 22.1132 19.6571 22.1132C25.0392 22.1132 30.0955 21.7223 33.8921 21.0099C35.6818 20.6754 37.137 20.2714 38.097 19.8457C38.2013 19.7979 38.2969 19.7545 38.3837 19.711L39.031 14.9197Z" fill="#FFDD03"/>
<path d="M1.2163 13.9207C2.18065 14.3464 3.63153 14.7504 5.42123 15.0849C5.46467 15.0588 5.51245 15.037 5.56892 15.024C8.73565 14.2856 13.9831 13.8468 19.6042 13.8468C25.2991 13.8468 30.5856 14.2943 33.7437 15.0501C33.7828 15.0588 33.8219 15.0762 33.8567 15.0936C33.8697 15.0936 33.8784 15.0892 33.8914 15.0892C35.6811 14.7547 37.1363 14.3507 38.0963 13.925C38.8782 13.5775 39.178 13.2864 39.2692 13.1344C39.2953 13.091 39.3039 13.0605 39.3039 13.0388C39.3039 12.9433 39.0867 12.5914 38.0963 12.1527C37.6706 11.9659 37.1494 11.7791 36.5455 11.6053V10.9277V10.25V9.4073L39.8469 7.44384C40.0511 7.32221 40.0511 7.12239 39.8469 7.00076L36.1633 4.83749C36.0807 4.80273 35.9895 4.78101 35.894 4.78101C35.5334 4.78101 35.2424 5.07206 35.2424 5.4326V9.92857V10.5975V11.2665C34.8167 11.1666 34.3649 11.0754 33.8914 10.9841C30.2598 10.3022 25.4815 9.91554 20.3601 9.88079V9.2292V8.57761V7.92602L23.6614 5.96256C23.8656 5.84093 23.8656 5.64111 23.6614 5.51948L19.9734 3.36055C19.891 3.3258 19.7997 3.30408 19.7041 3.30408C19.3436 3.30408 19.0525 3.59512 19.0525 3.95567V8.57761V9.2292V9.88079C13.8963 9.90685 9.07017 10.2978 5.41697 10.9841C4.97823 11.0667 4.56556 11.1536 4.17026 11.2404V10.5715V9.90251V9.39861L7.47165 7.43516C7.67582 7.31353 7.67582 7.11371 7.47165 6.99208L3.78365 4.83314C3.70112 4.79839 3.60989 4.77667 3.51433 4.77667C3.15378 4.77667 2.86274 5.06771 2.86274 5.42826V10.2153V10.8886V11.5662C2.21549 11.7487 1.65513 11.9442 1.2077 12.144C0.217197 12.5828 0 12.9347 0 13.0302C0 13.0519 0.00868786 13.0823 0.0347515 13.1258C0.134662 13.2865 0.434393 13.5732 1.2163 13.9207Z" fill="#FFDD03"/>
<path d="M30.9813 15.5367C27.9361 15.0892 23.8963 14.8373 19.6089 14.8373C15.3518 14.8373 11.325 15.0892 8.27991 15.5323C11.5987 15.9624 15.5343 16.1926 19.6567 16.1926C23.7617 16.1882 27.6712 15.9624 30.9813 15.5367Z" fill="#FFDD03"/>
<path d="M14.1431 26.6744V32.921V34.172L13.4915 34.3892L12.8399 34.6064L12.0059 34.8801C11.7801 34.9539 11.5933 35.2102 11.5933 35.4492V36.2615C11.5933 36.5004 11.7887 36.6959 12.0277 36.6959H27.2792C27.5181 36.6959 27.7136 36.5004 27.7136 36.2615V35.4492C27.7136 35.2102 27.5268 34.954 27.3009 34.8801L26.4669 34.6064L25.8153 34.3892L25.1637 34.172V32.9296V26.6744H23.5738V32.2737H15.733V26.6744H14.1431Z" fill="#FFDD03"/>
</g>
<defs>
<clipPath id="clip0">
<rect width="40" height="40" fill="white"/>
</clipPath>
</defs>
</svg>
