<svg width="126" height="30" viewBox="0 0 126 30" fill="none" xmlns="http://www.w3.org/2000/svg">
<path d="M23.7727 29.6583H27.2644L21.3633 16.4283H19.0151L13.0936 29.6583H16.5853L17.5041 27.4185H22.8539L23.7727 29.6583ZM18.6272 24.6852L20.1994 20.87L21.7513 24.6852H18.6272Z" fill="white"/>
<path d="M28.4091 29.6583H31.6149V24.1917H37.9243V21.4394H31.6149V19.1616H38.7615V16.4283H28.4091V29.6583Z" fill="white"/>
<path d="M40.473 29.6583H49.5186V26.925H43.6788V16.4283H40.473V29.6583Z" fill="white"/>
<path d="M50.862 29.6583H60.418V26.925H54.0677V24.1917H60.1117V21.4394H54.0677V19.1616H60.418V16.4283H50.862V29.6583Z" fill="white"/>
<path d="M71.8689 29.6583H75.3605L69.4595 16.4283H67.1113L61.1898 29.6583H64.6814L65.6003 27.4185H70.9501L71.8689 29.6583ZM66.7233 24.6852L68.2956 20.87L69.8474 24.6852H66.7233Z" fill="white"/>
<path d="M82.1985 22.3125V24.9699H85.2409V25.1597C85.2409 26.2037 84.1995 27.1528 82.076 27.1528C79.687 27.1528 77.9718 25.938 77.9718 23.0718C77.9718 20.3385 79.544 18.8959 81.8718 18.8959C83.5053 18.8959 84.9142 19.6362 85.4859 21.1547L88.4467 20.0727C87.3441 17.4343 84.7509 16.0487 81.9126 16.0487C77.7267 16.0487 74.766 19.0478 74.766 23.1667C74.766 27.1148 77.4817 30 81.8105 30C83.5666 30 85.0163 29.5255 85.8943 28.3866L86.2619 29.6583H88.4671V22.3125H82.1985Z" fill="white"/>
<path d="M96.2116 30C99.9279 30 101.847 28.2917 101.847 24.7801V16.4283H98.6415V24.5713C98.6415 26.3556 98.2535 27.2667 96.2116 27.2667C94.1493 27.2667 93.7818 26.3746 93.7818 24.5334V16.4283H90.576V24.875C90.576 28.3296 92.475 30 96.2116 30Z" fill="white"/>
<path d="M104.442 29.6583H113.998V26.925H107.648V24.1917H113.692V21.4394H107.648V19.1616H113.998V16.4283H104.442V29.6583Z" fill="white"/>
<path d="M120.854 29.943C123.754 29.943 126 28.1778 126 25.5584C126 23.6792 125.02 22.7301 121.957 21.6292C119.915 20.8889 119.364 20.4334 119.364 19.788C119.364 19.1616 119.976 18.7251 120.711 18.7251C121.528 18.7251 122.222 19.2186 122.651 20.1866L125.306 18.6491C124.387 16.9408 122.794 16.0867 120.814 16.0867C118.016 16.0867 116.158 17.6431 116.158 19.845C116.158 21.876 117.261 22.9199 120.303 24.0588C122.161 24.7611 122.815 25.2167 122.815 25.8241C122.815 26.8301 121.957 27.3046 120.916 27.3046C119.486 27.3046 118.465 26.5833 118.322 25.0269L115.137 25.7671C115.566 28.2917 117.894 29.943 120.854 29.943Z" fill="white"/>
<path fill-rule="evenodd" clip-rule="evenodd" d="M15.2173 12.4056C18.5113 12.0132 21.057 9.39707 21.057 6.22825C21.057 2.78848 18.0574 0 14.3571 0C11.4364 0 8.95228 1.7372 8.03511 4.16069C7.90987 4.15503 7.78385 4.15217 7.6571 4.15217C3.4282 4.15217 0 7.33901 0 11.2702C0 15.2013 3.4282 18.3882 7.6571 18.3882C11.4703 18.3882 14.6324 15.7971 15.2173 12.4056ZM14.3571 12.4565C14.6485 12.4565 14.9357 12.4392 15.2173 12.4056C15.2811 12.0359 15.3142 11.6566 15.3142 11.2702C15.3142 7.45683 12.0884 4.34387 8.03511 4.16069C7.79028 4.80764 7.6571 5.50349 7.6571 6.22825C7.6571 9.66802 10.6568 12.4565 14.3571 12.4565Z" fill="#FFDD03"/>
</svg>
